<?xml version="1.0" standalone="no"?>
<!DOCTYPE svg PUBLIC "-//W3C//DTD SVG 1.1//EN" "http://www.w3.org/Graphics/SVG/1.1/DTD/svg11.dtd" >
<svg xmlns="http://www.w3.org/2000/svg">
<metadata>
This is a custom SVG webfont generated by Font Squirrel.
Copyright   : Copyright c 2008 BNP Paribas
Designer    : Christophe Badani
Foundry     : Christophe Badani et Stphane Gabrielli
Foundry URL : wwwseenkcom
</metadata>
<defs>
<font id="webfontcp3uC3WQ" horiz-adv-x="1085" >
<font-face units-per-em="2048" ascent="1546" descent="-502" />
<missing-glyph horiz-adv-x="548" />
<glyph unicode=" "  horiz-adv-x="548" />
<glyph unicode="&#x09;" horiz-adv-x="548" />
<glyph unicode="&#xa0;" horiz-adv-x="548" />
<glyph unicode="!" horiz-adv-x="591" d="M176 1434h240l-15 -1049h-211zM176 238h236v-238h-236v238z" />
<glyph unicode="&#x22;" horiz-adv-x="876" d="M535 1434h202v-486h-202v486zM139 1434h203v-486h-203v486z" />
<glyph unicode="#" horiz-adv-x="1265" d="M92 889l33 178h242l63 367h193l-64 -367h272l64 367h192l-63 -367h242l-33 -178h-240l-61 -348h239l-30 -176h-242l-63 -365h-193l64 365h-273l-63 -365h-193l64 365h-242l31 176h241l62 348h-242zM526 889l-61 -348h274l62 348h-275z" />
<glyph unicode="$" d="M961 932l-211 -33q-14 104 -59.5 167.5t-158.5 63.5q-84 0 -139 -39.5t-55 -123.5q0 -68 66.5 -114t160.5 -78t188.5 -69.5t161 -112.5t66.5 -183q0 -166 -95 -257.5t-257 -113.5v-219h-176v217q-242 29 -394 207l123 157q143 -170 342 -170q209 0 209 156q0 59 -64.5 99 t-156.5 72t-184 72t-157 122t-65 200q0 166 96.5 259.5t250.5 113.5v211h176v-213q117 -18 192.5 -83.5t104.5 -141.5t35 -166z" />
<glyph unicode="%" horiz-adv-x="1542" d="M1135 1434h184l-911 -1434h-183zM494 1096q0 115 -29 163t-88 48q-61 0 -91 -48.5t-30 -159t29.5 -158.5t91.5 -48q59 0 88 47t29 156zM88 1099.5q0 360.5 289 360.5q147 0 217 -87t70 -275q0 -176 -73 -267.5t-214 -91.5q-289 0 -289 360.5zM1284 332q0 113 -28.5 161 t-88.5 48q-61 0 -90.5 -48.5t-29.5 -159t29.5 -158.5t90.5 -48q59 0 88 47t29 158zM879 333.5q0 360.5 288 360.5q147 0 217 -87t70 -275q0 -176 -72.5 -267.5t-214.5 -91.5q-288 0 -288 360.5z" />
<glyph unicode="&#x26;" horiz-adv-x="1196" d="M1122 690q0 -6 1 -20.5t1 -22.5q0 -176 -67 -332l321 -315h-288l-154 143q-139 -170 -391 -170t-375 114t-123 296q0 246 268 379q-80 90 -117.5 167t-37.5 175q0 158 108.5 257t288.5 99q207 0 304 -97t97 -251q0 -254 -301 -397l246 -244q29 80 29 219h190zM455 618 q-86 -45 -131 -99t-45 -138q0 -102 71.5 -152.5t186.5 -50.5q172 0 251 109zM518 856q123 57 172 111.5t49 132.5q0 74 -49 114.5t-131 40.5t-130 -40.5t-48 -116.5q0 -25 6 -50.5t12.5 -41t25.5 -40.5l26 -34q6 -8 34.5 -40t32.5 -36z" />
<glyph unicode="'" horiz-adv-x="481" d="M139 1434h203v-486h-203v486z" />
<glyph unicode="(" horiz-adv-x="700" d="M100 522q0 330 112 587t269 427h232q-166 -172 -288 -437t-122 -576.5t122 -576.5t288 -438h-232q-158 172 -269.5 427t-111.5 587z" />
<glyph unicode=")" horiz-adv-x="700" d="M600 522q0 -332 -111.5 -586.5t-269.5 -427.5h-231q166 172 287.5 437.5t121.5 577t-121.5 576.5t-287.5 437h231q158 -170 269.5 -427t111.5 -587z" />
<glyph unicode="*" horiz-adv-x="1003" d="M647 1055l256 -137l-78 -134l-256 162l9 -266h-152l8 266l-258 -162l-78 131l254 142l-254 139l78 133l258 -162l-8 267h152l-9 -267l256 160l78 -131z" />
<glyph unicode="+" d="M444 1100h195v-322h322v-194h-322v-322h-195v322h-319v194h319v322z" />
<glyph unicode="," horiz-adv-x="481" d="M147 238h246l-211 -508h-186z" />
<glyph unicode="-" horiz-adv-x="854" d="M696 778v-194h-538v194h538z" />
<glyph unicode="." horiz-adv-x="481" d="M123 238h235v-238h-235v238z" />
<glyph unicode="/" horiz-adv-x="757" d="M539 1434h200l-522 -1434h-199z" />
<glyph unicode="0" d="M549 1460q233 0 355 -176t122 -565q0 -745 -489 -746q-477 0 -478 740q0 379 130.5 563t359.5 184zM543 1255q-252 0 -252 -540q0 -287 63.5 -412t188.5 -125q129 0 191.5 126t62.5 415q0 287 -62.5 411.5t-191.5 124.5z" />
<glyph unicode="1" d="M145 0v205h332v977l-330 -168v225l375 195h185v-1229h297v-205h-859z" />
<glyph unicode="2" d="M285 1012l-219 41q8 166 119.5 286.5t322.5 120.5q215 0 330.5 -109.5t115.5 -324.5t-206 -444l-330 -371h569v-211h-885v178l467 537q78 88 111 157.5t33 149.5q0 115 -52.5 174t-150.5 59q-104 0 -161.5 -66t-63.5 -177z" />
<glyph unicode="3" d="M508 1460q213 0 327.5 -104.5t114.5 -292.5q0 -231 -186 -320q233 -68 233 -352q0 -201 -127 -309.5t-342 -108.5q-289 0 -460 201l110 172q141 -168 342 -168q117 0 182.5 57.5t65.5 157.5q0 221 -270 221h-152v205h139q113 0 172.5 60.5t59.5 169.5q0 96 -53.5 151 t-153.5 55q-106 0 -162.5 -62.5t-71.5 -160.5l-217 43q18 160 135 272.5t314 112.5z" />
<glyph unicode="4" d="M33 330v198l530 906h307v-902h168v-202h-168v-330h-219v330h-618zM651 1180l-381 -648h381v648z" />
<glyph unicode="5" d="M506 -27q-272 0 -445 185l107 172q139 -152 317 -152q113 0 181.5 67.5t68.5 186.5q0 113 -67.5 179.5t-204.5 66.5q-109 0 -207 -29l-117 78v707h774v-220h-559v-335q39 10 129 10q250 0 367 -126t117 -325q0 -213 -124 -339t-337 -126z" />
<glyph unicode="6" d="M317 586q8 -211 67.5 -309.5t182.5 -98.5q104 0 165 68.5t61 191.5q0 111 -54.5 167.5t-154.5 56.5q-152 0 -267 -76zM997 1079l-213 -45q-10 49 -21 79t-33.5 68t-63.5 56t-99 18q-250 0 -250 -462q129 76 304 75q170 0 283.5 -108.5t113.5 -310.5q0 -229 -126 -352.5 t-329 -123.5q-479 0 -479 740q0 385 130 566t361 181q188 0 296 -103.5t126 -277.5z" />
<glyph unicode="7" d="M70 1434h915v-177l-590 -1257h-252l584 1221h-657v213z" />
<glyph unicode="8" d="M543 625q-256 0 -256 -222q0 -109 70.5 -167t183.5 -58q115 0 186.5 57.5t71.5 167.5q0 222 -256 222zM545 -27q-219 0 -353.5 117t-134.5 307q0 258 224 342q-186 109 -187 318q0 188 118 295.5t331 107.5t330.5 -107.5t117.5 -295.5q0 -209 -186 -318q223 -84 223 -342 q0 -190 -133 -307t-350 -117zM543 1255q-221 0 -221 -217q0 -90 61 -150.5t159.5 -60.5t160 60.5t61.5 150.5q0 217 -221 217z" />
<glyph unicode="9" d="M496 -27q-258 0 -437 185l111 172q135 -152 309 -152q279 0 279 449q-127 -66 -269 -66q-188 0 -307 111.5t-119 318.5q0 219 128 344t333 125q238 0 355.5 -177t117.5 -570q0 -369 -135 -554.5t-366 -185.5zM764 838q-8 225 -66.5 321t-175.5 96q-104 0 -166.5 -69.5 t-62.5 -184.5q0 -111 58.5 -173t156.5 -62q150 0 256 72z" />
<glyph unicode=":" horiz-adv-x="481" d="M123 238h235v-238h-235v238zM123 1087h235v-237h-235v237z" />
<glyph unicode=";" horiz-adv-x="481" d="M123 1087h235v-237h-235v237zM147 238h246l-211 -508h-186z" />
<glyph unicode="&#x3c;" d="M961 1090v-199l-642 -211l642 -211v-199l-836 289v242z" />
<glyph unicode="=" d="M961 549v-195h-836v195h836zM961 985v-194h-836v194h836z" />
<glyph unicode="&#x3e;" d="M125 891v199l836 -289v-242l-836 -289v199l641 211z" />
<glyph unicode="?" horiz-adv-x="978" d="M559 383h-215q0 123 22.5 202t56.5 125t114 132q49 51 69.5 75.5t39 67.5t18.5 92q0 76 -43 127t-129 51q-195 0 -211 -221l-211 43q8 164 113.5 273.5t314.5 109.5q197 0 298 -107.5t101 -256.5q0 -82 -28.5 -153t-62.5 -111.5t-101 -112.5q-10 -12 -33 -34.5t-30 -31.5 l-24 -26q-16 -18 -20 -27.5t-14.5 -29t-12.5 -35t-6 -40t-5 -51t-1 -61.5zM334 238h235v-238h-235v238z" />
<glyph unicode="@" horiz-adv-x="1607" d="M938 412v358q-63 33 -141 33q-68 0 -117 -54.5t-49 -187.5q0 -129 40 -187.5t99 -58.5q98 1 168 97zM1270 41l47 -133q-207 -106 -477 -107q-334 0 -545 200t-211 550q0 336 197.5 536.5t523.5 200.5q324 0 523.5 -195.5t199.5 -504.5q0 -221 -91 -340t-241 -119 q-162 0 -215 119q-100 -104 -236 -105q-125 0 -216 97.5t-91 320.5q0 117 34 203t90 130t113.5 63.5t117.5 19.5q162 0 333 -100v-459q0 -113 103 -113q70 0 107.5 77t37.5 206q0 250 -156.5 404.5t-412.5 154.5q-260 0 -417 -160t-157 -436q0 -283 168 -443.5t443 -160.5 q246 0 428 94z" />
<glyph unicode="A" horiz-adv-x="1114" d="M899 0l-98 338h-502l-98 -338h-217l440 1434h270l439 -1434h-234zM549 1196l-193 -659h385z" />
<glyph unicode="B" horiz-adv-x="1169" d="M399 621v-416h183q133 0 196.5 47t63.5 156q0 117 -59.5 165t-202.5 48h-181zM399 1229v-406h179q109 0 169 55.5t60 155.5q0 109 -56.5 152t-179.5 43h-172zM178 1434h395q231 0 348 -84t117 -287q0 -231 -219 -328q260 -53 260 -338q0 -211 -125 -304t-372 -93h-404 v1434z" />
<glyph unicode="C" horiz-adv-x="1142" d="M1057 1030l-213 -26q-10 117 -58.5 184t-167.5 67q-166 0 -232.5 -119.5t-66.5 -414.5q0 -299 89.5 -421t269.5 -122q166 0 332 98l45 -190q-184 -113 -404 -113q-274 0 -417.5 178.5t-143.5 569.5t130 565t403 174q209 0 319.5 -116.5t114.5 -313.5z" />
<glyph unicode="D" horiz-adv-x="1302" d="M178 1434h461q285 0 429 -168t144 -529q0 -737 -579 -737h-455v1434zM399 1229v-1024h226q178 0 268 117.5t90 412.5q0 272 -89 383t-269 111h-226z" />
<glyph unicode="E" horiz-adv-x="1083" d="M178 1434h774v-205h-553v-395h529v-207h-529v-422h582v-205h-803v1434z" />
<glyph unicode="F" horiz-adv-x="1042" d="M178 1434h789v-205h-568v-428h486v-205h-486v-596h-221v1434z" />
<glyph unicode="G" horiz-adv-x="1325" d="M952 1004q-27 252 -272 251q-176 0 -265 -120.5t-89 -401.5q0 -307 87 -431t265 -124q145 0 278 107v284h-290v197h514v-766h-205v82q-123 -109 -338 -109q-547 0 -547 758q0 729 598 729q231 0 351 -121.5t124 -310.5z" />
<glyph unicode="H" horiz-adv-x="1384" d="M178 1434h221v-600h586v600h221v-1434h-221v621h-586v-621h-221v1434z" />
<glyph unicode="I" horiz-adv-x="577" d="M178 1434h221v-1434h-221v1434z" />
<glyph unicode="J" horiz-adv-x="624" d="M231 1434h222v-1174q0 -133 -74 -210t-195 -77q-109 0 -200 54l39 190q59 -39 120 -39q88 0 88 111v1145z" />
<glyph unicode="K" horiz-adv-x="1171" d="M178 1434h221v-691l498 691h248l-430 -590l471 -844h-256l-363 645l-168 -229v-416h-221v1434z" />
<glyph unicode="L" horiz-adv-x="940" d="M178 1434h221v-1229h514v-205h-735v1434z" />
<glyph unicode="M" horiz-adv-x="1744" d="M1307 1040l-334 -925h-201l-334 925l-90 -1040h-223l131 1434h264l352 -953l353 953h264l131 -1434h-223z" />
<glyph unicode="N" horiz-adv-x="1417" d="M178 1434h215l629 -1026v1026h217v-1434h-213l-631 1024v-1024h-217v1434z" />
<glyph unicode="O" horiz-adv-x="1273" d="M639 1460q256 0 400.5 -177t144.5 -566t-147.5 -566.5t-403.5 -177.5q-250 0 -396.5 177.5t-146.5 562.5q0 389 147.5 568t401.5 179zM635 1255q-154 0 -237 -122.5t-83 -417.5q0 -291 83 -414t237 -123q158 0 236.5 123t78.5 418t-78.5 415.5t-236.5 120.5z" />
<glyph unicode="P" horiz-adv-x="1155" d="M399 1229v-533q72 -14 144 -14q145 0 221 61.5t76 210.5q0 156 -63.5 215.5t-213.5 59.5h-164zM178 1434h385q270 0 385 -102.5t115 -366.5q0 -248 -136 -365t-366 -117q-96 0 -162 15v-498h-221v1434z" />
<glyph unicode="Q" horiz-adv-x="1273" d="M639 1460q256 0 400.5 -177t144.5 -566q0 -588 -353 -713l201 -352h-252l-164 321q-244 4 -385 182.5t-141 557.5q0 389 147.5 568t401.5 179zM635 1255q-154 0 -237 -122.5t-83 -417.5q0 -291 83 -414t237 -123q158 0 236.5 123t78.5 418t-78.5 415.5t-236.5 120.5z" />
<glyph unicode="R" horiz-adv-x="1157" d="M1098 0h-246l-238 545q-41 -6 -84 -6q-55 0 -131 10v-549h-221v1434h381q250 0 374 -96.5t124 -342.5q0 -309 -230 -401zM399 1229v-479q76 -12 154 -13q137 0 204.5 58.5t67.5 189.5q0 143 -61.5 193.5t-206.5 50.5h-158z" />
<glyph unicode="S" horiz-adv-x="1099" d="M979 1047l-215 -35q-6 55 -16.5 92t-33 75t-66.5 57t-107 19q-90 0 -147.5 -44t-57.5 -132q0 -80 67.5 -143.5t163.5 -112.5l194 -103q97 -54 164.5 -143.5t67.5 -203.5q0 -195 -122.5 -297.5t-329.5 -102.5q-139 0 -261 55.5t-202 149.5l110 168q68 -80 165.5 -124 t197.5 -44q215 0 215 170q0 70 -67.5 129.5t-164 108.5t-192.5 107.5t-163.5 152.5t-67.5 217q0 193 123.5 295t308.5 102q117 0 204 -37t134 -101.5t70.5 -130.5t27.5 -144z" />
<glyph unicode="T" horiz-adv-x="1110" d="M49 1434h1014v-205h-397v-1229h-222v1229h-395v205z" />
<glyph unicode="U" horiz-adv-x="1349" d="M162 1434h221v-949q0 -307 293 -307q152 0 221.5 76t69.5 231v949h221v-955q0 -242 -125 -374t-387 -132q-264 0 -389 132.5t-125 373.5v955z" />
<glyph unicode="V" horiz-adv-x="1196" d="M31 1434h243l336 -1158l340 1158h215l-434 -1434h-254z" />
<glyph unicode="W" horiz-adv-x="1814" d="M786 1434h242l283 -1127l235 1127h232l-322 -1434h-266l-283 1098l-282 -1098h-267l-321 1434h231l236 -1127z" />
<glyph unicode="X" horiz-adv-x="1173" d="M41 1434h256l299 -525l307 525h238l-422 -701l436 -733h-258l-319 539l-320 -539h-240l433 719z" />
<glyph unicode="Y" horiz-adv-x="1116" d="M565 805l301 629h236l-432 -877v-557h-221v557l-433 877h244z" />
<glyph unicode="Z" horiz-adv-x="1132" d="M100 1434h959v-146l-694 -1083h679v-205h-976v141l694 1088h-662v205z" />
<glyph unicode="[" horiz-adv-x="641" d="M178 1536h404v-180h-203v-1647h203v-180h-404v2007z" />
<glyph unicode="\" horiz-adv-x="757" d="M0 1434h201l520 -1434h-199z" />
<glyph unicode="]" horiz-adv-x="641" d="M59 1536h404v-2007h-404v180h203v1647h-203v180z" />
<glyph unicode="^" horiz-adv-x="1087" d="M449 1434h188l379 -715h-211l-262 479l-262 -479h-211z" />
<glyph unicode="_" horiz-adv-x="1112" d="M1069 -27v-194h-1026v194h1026z" />
<glyph unicode="`" horiz-adv-x="1024" d="M199 1536h227l201 -324h-189z" />
<glyph unicode="a" horiz-adv-x="1050" d="M657 281v211h-21q-136 0 -228 -50q-100 -53 -101 -153q0 -129 123 -129q116 0 227 121zM657 659v125q0 143 -159 144q-76 0 -126 -44t-50 -124l-197 20q4 160 114.5 247t272.5 87q170 0 269.5 -82t99.5 -227v-567q0 -74 59 -74q51 0 107 43l14 -162q-68 -72 -189 -72 q-70 0 -123 35t-59 117q-121 -152 -313 -152q-131 0 -211 76t-80 219q0 197 162 295q158 96 399 96h10z" />
<glyph unicode="b" horiz-adv-x="1122" d="M160 1495l223 41v-518q160 96 297 96q156 0 259 -126t103 -433t-125.5 -444.5t-328.5 -137.5q-109 0 -225.5 38t-202.5 104v1380zM383 838v-617q96 -61 192 -61q231 0 232 395q0 358 -205 358q-98 1 -219 -75z" />
<glyph unicode="c" horiz-adv-x="972" d="M891 741q-127 -12 -201 -20q-6 90 -47 148.5t-127 58.5q-106 0 -151.5 -81t-45.5 -304q0 -219 61.5 -301t192.5 -82q133 0 275 98l43 -166q-172 -119 -363 -119q-442 0 -442 572q0 287 107.5 428t330.5 141q186 0 274.5 -101.5t92.5 -271.5z" />
<glyph unicode="d" horiz-adv-x="1146" d="M737 301v565q-123 61 -217 62q-201 0 -201 -377q0 -188 54.5 -280.5t134.5 -92.5q123 0 229 123zM952 -27q-166 0 -180 156q-137 -156 -313 -156q-154 0 -263.5 135.5t-109.5 432.5q0 295 110.5 434t276.5 139q123 0 264 -67v448l224 41v-1298q0 -74 59 -74q51 0 106 43 l15 -162q-68 -72 -189 -72z" />
<glyph unicode="e" horiz-adv-x="1005" d="M920 483h-601q8 -178 75 -250.5t192 -72.5q145 0 284 106l35 -174q-92 -57 -173 -88t-191 -31q-213 0 -334 138.5t-121 431.5q0 571 440 571q393 0 394 -457v-174zM322 657h383q0 139 -43.5 205t-139.5 66q-100 0 -146 -64t-54 -207z" />
<glyph unicode="f" horiz-adv-x="641" d="M410 907v-1073q0 -129 -78 -198.5t-197 -69.5q-115 0 -215 55l35 178q78 -35 129 -35q102 0 102 113v1030h-151v180h151v74q0 190 104.5 282.5t284.5 92.5q115 0 207 -35l-39 -180q-70 27 -153 27q-180 0 -180 -181v-80h268l-27 -180h-241z" />
<glyph unicode="g" horiz-adv-x="1021" d="M426 -33q-180 -84 -180 -180q0 -123 243 -123q113 0 201 41t88 109q0 29 -9 49t-31.5 35.5t-44 24.5t-59.5 16.5t-63.5 10.5t-72.5 8t-72 9zM1008 1087v-200l-150 8q53 -70 53 -199q0 -184 -109.5 -298.5t-287.5 -114.5q-61 0 -106 12q-27 -18 -38.5 -27.5t-20.5 -24 t-9 -32.5q0 -31 67.5 -44t165 -24.5t194.5 -35t164.5 -91t67.5 -176.5q0 -168 -150.5 -259t-365.5 -91q-205 0 -326.5 71.5t-121.5 200.5q0 156 186 258q-92 49 -92 154q0 100 131 193q-147 111 -147 333q0 188 110.5 301t292.5 113q82 0 156 -27h336zM707 698.5 q0 235.5 -192.5 235.5t-192.5 -235.5t192.5 -235.5t192.5 235.5z" />
<glyph unicode="h" horiz-adv-x="1157" d="M383 1534v-528q150 109 315 108q152 0 236 -86t84 -260v-768h-223v723q0 100 -38 140t-132 40q-119 0 -242 -80v-823h-223v1493z" />
<glyph unicode="i" horiz-adv-x="542" d="M160 1087h223v-1087h-223v1087zM160 1475h223v-242h-223v242z" />
<glyph unicode="j" horiz-adv-x="542" d="M383 1087v-1253q0 -129 -78 -198.5t-196 -69.5q-113 0 -215 55l34 178q78 -35 129 -35q102 0 103 113v1210h223zM160 1475h223v-242h-223v242z" />
<glyph unicode="k" horiz-adv-x="1011" d="M383 344v-344h-223v1495l223 41v-907l377 458h241l-342 -436l383 -651h-254l-284 487z" />
<glyph unicode="l" horiz-adv-x="602" d="M158 1495l223 41v-1286q0 -82 76 -82q57 0 133 43l22 -172q-123 -66 -227 -66q-227 0 -227 277v1245z" />
<glyph unicode="m" horiz-adv-x="1732" d="M360 1087v-98q162 125 328 125q174 0 254 -127q197 127 348 127q305 0 305 -346v-768h-223v729q0 98 -39 136t-125 38q-98 0 -225 -80q6 -41 6 -88v-735h-223v698q0 119 -33 162t-131 43q-94 0 -219 -80v-823h-223v1087h200z" />
<glyph unicode="n" horiz-adv-x="1155" d="M360 1087v-98q170 125 338 125q152 0 236 -86t84 -260v-768h-223v723q0 100 -38 140t-132 40q-119 0 -242 -80v-823h-223v1087h200z" />
<glyph unicode="o" horiz-adv-x="1071" d="M537 1114q231 0 339.5 -135t108.5 -440q0 -565 -448 -566q-221 0 -336 136.5t-115 433.5q0 295 114 433t337 138zM536.5 928q-114.5 0 -168 -84t-53.5 -301q0 -213 53.5 -298t168 -85t167 84t52.5 295q0 219 -52.5 304t-167 85z" />
<glyph unicode="p" horiz-adv-x="1130" d="M598 -27q-102 0 -215 52v-447l-223 -49v1558h200v-98q152 125 320 125q362 0 362 -559q0 -301 -120.5 -441.5t-323.5 -140.5zM383 838v-617q96 -61 192 -61q231 0 232 395q0 358 -205 358q-98 1 -219 -75z" />
<glyph unicode="q" horiz-adv-x="1107" d="M737 -471v563q-129 -119 -282 -119q-160 0 -264.5 130t-104.5 436q0 295 112.5 435t280.5 140q137 0 297 -108v81h182v-1509zM737 293v541q-129 86 -215 86q-94 0 -148.5 -94.5t-54.5 -288.5q0 -201 53.5 -289t133.5 -88q112 0 231 133z" />
<glyph unicode="r" horiz-adv-x="843" d="M160 1087h200v-106q125 133 277 133q111 0 151.5 -83t40.5 -224l-190 -23q-2 57 -14.5 84t-55.5 27q-76 0 -186 -115v-780h-223v1087z" />
<glyph unicode="s" horiz-adv-x="917" d="M819 793l-186 -33q-14 168 -168 168q-68 0 -110 -30t-42 -89q0 -55 52.5 -99t127 -79t149.5 -74t127 -106.5t52 -159.5q0 -147 -99 -232.5t-273 -85.5q-236 0 -383 144l73 164q125 -121 303 -121q158 0 158 119q0 39 -37 73.5t-93 59t-120.5 59.5t-121 74t-93.5 103.5 t-37 146.5q0 145 97.5 232t267.5 87q178 0 267 -90t89 -231z" />
<glyph unicode="t" horiz-adv-x="743" d="M193 1270l217 61v-244h272l-29 -178h-243v-618q0 -113 94 -113q76 0 186 62l49 -164q-158 -102 -307 -103q-111 0 -178.5 63.5t-67.5 190.5v682h-147v178h154v183z" />
<glyph unicode="u" horiz-adv-x="1083" d="M133 1087h223v-745q0 -182 184.5 -182t184.5 182v745h223v-739q0 -184 -111.5 -279.5t-296 -95.5t-296 95.5t-111.5 279.5v739z" />
<glyph unicode="v" horiz-adv-x="1013" d="M10 1087h238l272 -841l260 841h224l-363 -1087h-260z" />
<glyph unicode="w" horiz-adv-x="1564" d="M662 1087h241l223 -808l193 808h237l-303 -1087h-245l-226 801l-225 -801h-246l-303 1087h238l192 -808z" />
<glyph unicode="x" horiz-adv-x="987" d="M25 1087h243l230 -387l235 387h236l-344 -532l342 -555h-248l-240 393l-243 -393h-226l344 545z" />
<glyph unicode="y" horiz-adv-x="995" d="M985 1087l-383 -1042q-86 -240 -189.5 -361.5t-283.5 -121.5q-117 0 -235 57l59 180q86 -43 164 -43q43 0 76.5 15.5t56 33t50.5 64.5t42 77.5t45 104.5l-385 1036h240l258 -765l266 765h219z" />
<glyph unicode="z" horiz-adv-x="983" d="M94 1087h799v-147l-531 -754h537v-186h-817v141l532 760h-520v186z" />
<glyph unicode="{" horiz-adv-x="704" d="M219 -207v512q0 133 -180 133v187q82 0 131 35.5t49 107.5v451q0 340 293 340q109 0 174 -33l-37 -170q-55 23 -117 22q-111 0 -110 -118v-488q0 -184 -158 -240q158 -39 158 -231v-496q0 -119 110 -118q59 0 117 22l37 -170q-74 -33 -174 -33q-129 0 -211 74t-82 213z " />
<glyph unicode="|" horiz-adv-x="561" d="M178 1536h205v-2007h-205v2007z" />
<glyph unicode="}" horiz-adv-x="704" d="M485 305v-512q0 -139 -81.5 -213t-210.5 -74q-100 0 -175 33l37 170q57 -23 117 -22q111 0 111 118v496q0 193 157 231q-158 55 -157 240v488q0 119 -111 118q-61 0 -117 -22l-37 170q66 33 175 33q293 0 292 -340v-451q0 -72 49.5 -107.5t131.5 -35.5v-187 q-181 0 -181 -133z" />
<glyph unicode="~" d="M252 530l-166 64q70 221 272 221q68 0 199 -39t162 -39q76 0 110 99q55 -23 166 -64q-70 -221 -276 -221q-57 0 -185 39t-172 39q-77 -1 -110 -99z" />
<glyph unicode="&#xa1;" horiz-adv-x="591" d="M416 -346h-240l14 1048h211zM412 850h-236v237h236v-237z" />
<glyph unicode="&#xa2;" d="M958 885l-198 -21q-4 86 -52.5 146.5t-134.5 60.5q-117 0 -171 -83t-54 -302q0 -98 21.5 -178t84 -139.5t160.5 -59.5q160 0 301 101l43 -174q-162 -106 -319 -117v-299h-176v307q-348 70 -348 561q0 502 348 559v289h176v-283q158 -14 237.5 -115t81.5 -253z" />
<glyph unicode="&#xa3;" d="M1036 1065l-202 -37q-16 227 -213 227q-195 0 -195 -227q0 -14 14 -242h439v-170h-424q14 -180 14 -196q0 -133 -98 -215h639v-205h-947v178q178 59 179 236l-15 202h-198v170h186q-14 201 -14 240q0 188 100 311t322 123q213 0 311 -112.5t102 -282.5z" />
<glyph unicode="&#xa4;" d="M938 682q0 -117 -59 -211l176 -176l-123 -123l-176 174q-92 -61 -213 -61t-213 61l-176 -174l-123 123l176 176q-59 94 -59.5 211t59.5 211l-176 176l123 123l176 -174q92 61 213 61t213 -61l176 174l123 -123l-176 -176q59 -94 59 -211zM752 682q0 100 -54.5 155.5 t-155 55.5t-154.5 -55.5t-54 -155.5t54 -155.5t154.5 -55.5t155 55.5t54.5 155.5z" />
<glyph unicode="&#xa5;" d="M549 866l291 568h231l-342 -648h275v-170h-351v-616h-221v616h-356v170h278l-340 648h246z" />
<glyph unicode="&#xa6;" horiz-adv-x="561" d="M178 1536h205v-803h-205v803zM178 332h205v-803h-205v803z" />
<glyph unicode="&#xa7;" horiz-adv-x="1138" d="M1049 489q0 -156 -99 -243q14 -43 15 -76q0 -180 -116 -271.5t-308 -91.5q-125 0 -238 49.5t-190 135.5l100 162q135 -158 328 -158q190 0 190 151q0 61 -65.5 114.5t-158.5 99t-186.5 96.5t-159 135t-65.5 192q0 141 97 238q-12 37 -13 82q0 170 110.5 263t289.5 93 q207 0 302 -108.5t105 -259.5l-205 -31q-12 88 -54 144.5t-144 56.5q-176 0 -176 -144q0 -70 65.5 -126t160.5 -101t189.5 -95.5t160 -128.5t65.5 -178zM309 893q-27 -35 -26 -98q0 -66 60 -122.5t139 -92t182.5 -93t164.5 -114.5q29 39 29 94q0 63 -61.5 116.5t-142.5 88.5 t-183.5 94t-161.5 127z" />
<glyph unicode="&#xa8;" horiz-adv-x="1024" d="M258 1481h182v-211h-182v211zM584 1481h182v-211h-182v211z" />
<glyph unicode="&#xa9;" horiz-adv-x="1589" d="M1085 899q-16 -2 -67 -12t-80 -15q-20 150 -135 150q-94 0 -138 -69.5t-44 -237.5q0 -305 213 -305q100 0 200 67l51 -127q-123 -88 -270 -88q-168 0 -266 111.5t-98 341.5q0 459 356 459q129 0 201.5 -82t76.5 -193zM88 717q0 307 207 525t499.5 218t499.5 -218 t207 -525q0 -309 -207 -526.5t-499.5 -217.5t-499.5 217.5t-207 526.5zM211 717q0 -256 171 -436.5t412.5 -180.5t412.5 181.5t171 435.5t-171 434t-412.5 180t-412.5 -180t-171 -434z" />
<glyph unicode="&#xaa;" horiz-adv-x="782" d="M467 899v133q-221 -6 -221 -119q0 -78 86 -77q72 0 135 63zM467 1155v76q0 90 -100 90q-104 0 -109 -115l-158 17q2 113 82 176t199 63q125 0 193.5 -58t68.5 -161v-366q0 -41 37 -41q29 0 76 34l12 -127q-49 -53 -143 -53q-45 0 -85 25.5t-46 72.5q-94 -98 -209 -98 q-92 0 -150.5 52.5t-58.5 152.5q0 129 114.5 193.5t276.5 66.5z" />
<glyph unicode="&#xab;" horiz-adv-x="1275" d="M1208 137h-231l-385 475l385 475h231l-368 -475zM684 137h-231l-385 475l385 475h231l-369 -475z" />
<glyph unicode="&#xac;" d="M125 778h836v-516h-195v322h-641v194z" />
<glyph unicode="&#xad;" horiz-adv-x="854" d="M696 778v-194h-538v194h538z" />
<glyph unicode="&#xae;" horiz-adv-x="1077" d="M745 700h-133l-86 205q-37 0 -47 2v-207h-127v545h166q117 0 167 -35.5t50 -134.5q0 -106 -90 -147zM479 1147v-137q10 -2 37 -2q51 0 73.5 13t22.5 52q0 49 -21.5 61.5t-74.5 12.5h-37zM72 966.5q0 204.5 136 348t331 143.5q193 0 330 -143.5t137 -348t-137.5 -348 t-329.5 -143.5q-195 0 -331 143.5t-136 348zM170 966.5q0 -161.5 107.5 -275t261 -113.5t261 113.5t107.5 275t-107.5 275.5t-261 114t-261 -114t-107.5 -275.5z" />
<glyph unicode="&#xaf;" horiz-adv-x="1024" d="M778 1294h-545v160h545v-160z" />
<glyph unicode="&#xb0;" horiz-adv-x="655" d="M586 1202.5q0 -108.5 -76 -183.5t-182.5 -75t-182 75t-75.5 183.5t75.5 183t182 74.5t182.5 -74.5t76 -183zM449 1202q0 51 -35 87t-86.5 36t-86 -36t-34.5 -87t34.5 -87t86 -36t86.5 36t35 87z" />
<glyph unicode="&#xb1;" d="M961 193v-193h-836v193h836zM444 1100h195v-322h322v-194h-322v-322h-195v322h-319v194h319v322z" />
<glyph unicode="&#xb2;" horiz-adv-x="655" d="M563 1225q0 -119 -104 -236l-158 -174h279v-151h-510v114l262 299q66 72 65 133q0 104 -94 105q-88 0 -104 -117l-148 33q12 94 77 161.5t179 67.5q123 0 189.5 -60t66.5 -175z" />
<glyph unicode="&#xb3;" horiz-adv-x="655" d="M569 1239q0 -121 -102 -166q125 -39 125 -184q0 -109 -73 -168t-193 -59q-176 0 -269 114l78 113q76 -88 180 -88q109 0 109 96q0 98 -119 98h-88v129h90q49 0 75 28t26 71q0 96 -97 96q-98 0 -112 -117l-144 33q10 96 76 160.5t182 64.5q123 0 189.5 -58.5t66.5 -162.5z " />
<glyph unicode="&#xb4;" horiz-adv-x="1024" d="M580 1536h227l-238 -324h-190z" />
<glyph unicode="&#xb5;" horiz-adv-x="1097" d="M150 1087h223v-722q0 -193 184 -193t184 193v722h224v-749q0 -174 -95.5 -269.5t-253 -95.5t-243.5 60v-455l-223 -49v1558z" />
<glyph unicode="&#x3bc;" horiz-adv-x="1097" d="M150 1087h223v-722q0 -193 184 -193t184 193v722h224v-749q0 -174 -95.5 -269.5t-253 -95.5t-243.5 60v-455l-223 -49v1558z" />
<glyph unicode="&#xb6;" horiz-adv-x="1452" d="M1272 1434v-1643h-176v1446h-213v-1446h-178v698q-39 -8 -113 -8q-229 0 -364.5 118t-135.5 366q0 231 120 350t380 119h680zM705 1237h-113q-150 0 -213.5 -63.5t-63.5 -221.5q0 -147 76 -210.5t219 -63.5q57 0 95 6v553z" />
<glyph unicode="&#xb7;" horiz-adv-x="481" d="M123 801h235v-238h-235v238z" />
<glyph unicode="&#xb8;" horiz-adv-x="1024" d="M442 0h181q51 -82 51 -172q0 -100 -62.5 -159.5t-165.5 -59.5q-74 0 -136 30.5t-95 81.5l94 105q43 -55 103 -55q80 0 80 88q-1 57 -50 141z" />
<glyph unicode="&#xb9;" horiz-adv-x="655" d="M92 664v153h170v428l-168 -84v162l215 111h129v-617h152v-153h-498z" />
<glyph unicode="&#xba;" horiz-adv-x="782" d="M391 1460q166 0 244 -92t78 -301q0 -389 -322 -389q-324 0 -323 391q0 203 80.5 297t242.5 94zM391 1321q-76 0 -110.5 -56.5t-34.5 -195.5q0 -137 34.5 -193.5t110.5 -56.5q74 0 107.5 55.5t33.5 192.5q0 141 -33.5 197.5t-107.5 56.5z" />
<glyph unicode="&#xbb;" horiz-adv-x="1275" d="M823 137h-231l369 475l-369 475h231l385 -475zM299 137h-231l368 475l-368 475h231l385 -475z" />
<glyph unicode="&#xbc;" horiz-adv-x="1542" d="M885 164v115l297 491h211v-463h88v-143h-88v-164h-168v164h-340zM1225 575l-166 -268h166v268zM74 664v153h170v428l-168 -84v162l215 111h129v-617h151v-153h-497zM1135 1434h184l-911 -1434h-183z" />
<glyph unicode="&#xbd;" horiz-adv-x="1542" d="M74 664v153h170v428l-168 -84v162l215 111h129v-617h151v-153h-497zM1454 561q0 -119 -104 -235l-158 -174h278v-152h-509v115l262 299q66 76 65 133q0 104 -94 104q-88 0 -104 -116l-148 32q10 94 75.5 162t180.5 68q123 0 189.5 -60.5t66.5 -175.5zM1135 1434h184 l-911 -1434h-183z" />
<glyph unicode="&#xbe;" horiz-adv-x="1542" d="M885 164v115l297 491h211v-463h88v-143h-88v-164h-168v164h-340zM1225 575l-166 -268h166v268zM557 1239q0 -121 -102 -166q125 -39 125 -184q0 -109 -73 -168t-194 -59q-176 0 -268 114l78 113q76 -88 180 -88q109 0 109 96q0 98 -119 98h-88v129h90q49 0 74.5 28 t25.5 71q0 96 -96 96q-98 0 -113 -117l-143 33q10 96 75.5 160.5t182.5 64.5q123 0 189.5 -58.5t66.5 -162.5zM1135 1434h184l-911 -1434h-183z" />
<glyph unicode="&#xbf;" horiz-adv-x="978" d="M414 705h215q0 -123 -22.5 -202t-56.5 -125t-114 -132q-49 -51 -69.5 -76t-39 -68t-18.5 -92q0 -76 43 -127t129 -51q195 0 211 221l211 -43q-8 -164 -113.5 -273.5t-314.5 -109.5q-197 0 -298 107.5t-101 257.5q0 82 28.5 152.5t62.5 111.5t101 113q10 12 33 34.5 t30 30.5l23 27q16 18 20.5 27.5t14.5 29t12 34.5t6.5 39.5t5.5 51.5t1 62zM639 850h-236v237h236v-237z" />
<glyph unicode="&#xc0;" horiz-adv-x="1114" d="M899 0l-98 338h-502l-98 -338h-217l440 1434h270l439 -1434h-234zM549 1196l-193 -659h385zM227 1868h228l200 -324h-188z" />
<glyph unicode="&#xc1;" horiz-adv-x="1114" d="M899 0l-98 338h-502l-98 -338h-217l440 1434h270l439 -1434h-234zM549 1196l-193 -659h385zM664 1868h227l-238 -324h-190z" />
<glyph unicode="&#xc2;" horiz-adv-x="1114" d="M899 0l-98 338h-502l-98 -338h-217l440 1434h270l439 -1434h-234zM549 1196l-193 -659h385zM666 1544l-117 185l-117 -185h-178l195 324h200l195 -324h-178z" />
<glyph unicode="&#xc3;" horiz-adv-x="1114" d="M899 0l-98 338h-502l-98 -338h-217l440 1434h270l439 -1434h-234zM549 1196l-193 -659h385zM369 1579l-142 49q18 80 67.5 134.5t125.5 54.5q47 0 125 -30t104 -30q61 0 78 72l143 -51q-51 -188 -198 -189q-41 0 -125 31t-113 31q-6 0 -12 -1t-11 -4.5l-9.5 -6.5t-8.5 -8 t-6 -8t-5 -11l-4 -10.5t-5 -11.5t-4 -11z" />
<glyph unicode="&#xc4;" horiz-adv-x="1114" d="M899 0l-98 338h-502l-98 -338h-217l440 1434h270l439 -1434h-234zM549 1196l-193 -659h385zM295 1810h182v-211h-182v211zM621 1810h182v-211h-182v211z" />
<glyph unicode="&#xc5;" horiz-adv-x="1114" d="M899 0l-98 338h-502l-98 -338h-217l440 1434h270l439 -1434h-234zM549 1196l-193 -659h385zM752 1704q0 -78 -57.5 -130t-145.5 -52t-145.5 52t-57.5 130t57.5 130t145.5 52t145.5 -52t57.5 -130zM623 1704q0 74 -74 74t-74 -74t74 -74t74 74z" />
<glyph unicode="&#xc6;" horiz-adv-x="1685" d="M700 1434h852v-205h-553v-395h529v-207h-529v-422h582v-205h-803v338h-459l-184 -338h-244zM778 1182l-350 -645h350v645z" />
<glyph unicode="&#xc7;" horiz-adv-x="1142" d="M1057 1030l-213 -26q-10 117 -58.5 184t-167.5 67q-166 0 -232.5 -119.5t-66.5 -414.5q0 -299 89.5 -421t269.5 -122q166 0 332 98l45 -190q-156 -94 -322 -109q39 -78 39 -149q0 -98 -63.5 -158.5t-163.5 -60.5q-74 0 -137.5 30.5t-96.5 81.5l97 105q43 -55 102 -55 q78 0 78 88q0 57 -35 121q-463 57 -463 741q0 389 130 564t403 175q209 0 319.5 -116.5t114.5 -313.5z" />
<glyph unicode="&#xc8;" horiz-adv-x="1083" d="M178 1434h774v-205h-553v-395h529v-207h-529v-422h582v-205h-803v1434zM244 1868h227l201 -324h-189z" />
<glyph unicode="&#xc9;" horiz-adv-x="1083" d="M178 1434h774v-205h-553v-395h529v-207h-529v-422h582v-205h-803v1434zM668 1868h227l-238 -324h-190z" />
<glyph unicode="&#xca;" horiz-adv-x="1083" d="M178 1434h774v-205h-553v-395h529v-207h-529v-422h582v-205h-803v1434zM688 1544l-117 185l-116 -185h-179l195 324h201l194 -324h-178z" />
<glyph unicode="&#xcb;" horiz-adv-x="1083" d="M178 1434h774v-205h-553v-395h529v-207h-529v-422h582v-205h-803v1434zM317 1810h183v-211h-183v211zM643 1810h182v-211h-182v211z" />
<glyph unicode="&#xcc;" horiz-adv-x="577" d="M178 1434h221v-1434h-221v1434zM-43 1868h227l201 -324h-188z" />
<glyph unicode="&#xcd;" horiz-adv-x="577" d="M178 1434h221v-1434h-221v1434zM391 1868h227l-237 -324h-191z" />
<glyph unicode="&#xce;" horiz-adv-x="577" d="M178 1434h221v-1434h-221v1434zM406 1544l-117 185l-117 -185h-178l194 324h201l195 -324h-178z" />
<glyph unicode="&#xcf;" horiz-adv-x="577" d="M178 1434h221v-1434h-221v1434zM35 1810h182v-211h-182v211zM360 1810h183v-211h-183v211z" />
<glyph unicode="&#xd0;" horiz-adv-x="1302" d="M178 1434h459q287 0 431 -169t144 -530q0 -735 -579 -735h-455v631h-153v198h153v605zM399 1229v-400h310v-198h-310v-426h224q178 0 269 116.5t91 413.5q0 272 -89 383t-271 111h-224z" />
<glyph unicode="&#xd1;" horiz-adv-x="1400" d="M178 1434h215l629 -1026v1026h217v-1434h-213l-631 1024v-1024h-217v1434zM520 1579l-141 49q18 80 67.5 134.5t124.5 54.5q47 0 125 -30t105 -30q61 0 78 72l143 -51q-51 -188 -199 -189q-41 0 -125 31t-112 31q-6 0 -12.5 -1t-11.5 -4.5l-9 -6.5t-8 -8t-6 -8t-5.5 -11 t-4.5 -10.5t-5 -11.5t-4 -11z" />
<glyph unicode="&#xd2;" horiz-adv-x="1273" d="M639 1460q256 0 400.5 -177t144.5 -566t-147.5 -566.5t-403.5 -177.5q-250 0 -396.5 177.5t-146.5 562.5q0 389 147.5 568t401.5 179zM635 1255q-154 0 -237 -122.5t-83 -417.5q0 -291 83 -414t237 -123q158 0 236.5 123t78.5 418t-78.5 415.5t-236.5 120.5zM307 1868 h228l200 -324h-188z" />
<glyph unicode="&#xd3;" horiz-adv-x="1273" d="M639 1460q256 0 400.5 -177t144.5 -566t-147.5 -566.5t-403.5 -177.5q-250 0 -396.5 177.5t-146.5 562.5q0 389 147.5 568t401.5 179zM635 1255q-154 0 -237 -122.5t-83 -417.5q0 -291 83 -414t237 -123q158 0 236.5 123t78.5 418t-78.5 415.5t-236.5 120.5zM733 1868 h228l-238 -324h-191z" />
<glyph unicode="&#xd4;" horiz-adv-x="1273" d="M639 1460q256 0 400.5 -177t144.5 -566t-147.5 -566.5t-403.5 -177.5q-250 0 -396.5 177.5t-146.5 562.5q0 389 147.5 568t401.5 179zM635 1255q-154 0 -237 -122.5t-83 -417.5q0 -291 83 -414t237 -123q158 0 236.5 123t78.5 418t-78.5 415.5t-236.5 120.5zM754 1544 l-117 185l-117 -185h-178l195 324h200l195 -324h-178z" />
<glyph unicode="&#xd5;" horiz-adv-x="1273" d="M639 1460q256 0 400.5 -177t144.5 -566t-147.5 -566.5t-403.5 -177.5q-250 0 -396.5 177.5t-146.5 562.5q0 389 147.5 568t401.5 179zM635 1255q-154 0 -237 -122.5t-83 -417.5q0 -291 83 -414t237 -123q158 0 236.5 123t78.5 418t-78.5 415.5t-236.5 120.5zM457 1579 l-142 49q18 80 67.5 134.5t125.5 54.5q47 0 125 -30t104 -30q61 0 78 72l143 -51q-51 -188 -198 -189q-39 0 -125 31t-113 31q-6 0 -12 -1t-11 -4.5l-9.5 -6.5t-8.5 -8t-6 -8t-5 -11l-4 -10.5t-5 -11.5t-4 -11z" />
<glyph unicode="&#xd6;" horiz-adv-x="1273" d="M639 1460q256 0 400.5 -177t144.5 -566t-147.5 -566.5t-403.5 -177.5q-250 0 -396.5 177.5t-146.5 562.5q0 389 147.5 568t401.5 179zM635 1255q-154 0 -237 -122.5t-83 -417.5q0 -291 83 -414t237 -123q158 0 236.5 123t78.5 418t-78.5 415.5t-236.5 120.5zM383 1810 h182v-211h-182v211zM709 1810h182v-211h-182v211z" />
<glyph unicode="&#xd7;" d="M104 979l140 139l299 -301l299 301l137 -139l-299 -299l299 -299l-137 -137l-299 299l-299 -299l-138 137l300 299z" />
<glyph unicode="&#xd8;" horiz-adv-x="1273" d="M639 1460q199 0 330 -106l92 145l104 -65l-110 -174q129 -186 129 -543q0 -389 -147.5 -566.5t-403.5 -177.5q-203 0 -332 109l-92 -145l-103 63l111 174q-127 188 -127 539q0 389 147.5 568t401.5 179zM635 1255q-154 0 -237 -122.5t-83 -417.5q0 -201 41 -324l492 774 q-76 90 -213 90zM950 719q0 199 -37 319l-491 -770q74 -90 213 -90q158 0 236.5 123t78.5 418z" />
<glyph unicode="&#xd9;" horiz-adv-x="1349" d="M162 1434h221v-949q0 -307 293 -307q152 0 221.5 76t69.5 231v949h221v-955q0 -242 -125 -374t-387 -132q-264 0 -389 132.5t-125 373.5v955zM340 1868h227l201 -324h-188z" />
<glyph unicode="&#xda;" horiz-adv-x="1349" d="M162 1434h221v-949q0 -307 293 -307q152 0 221.5 76t69.5 231v949h221v-955q0 -242 -125 -374t-387 -132q-264 0 -389 132.5t-125 373.5v955zM772 1868h227l-237 -324h-191z" />
<glyph unicode="&#xdb;" horiz-adv-x="1349" d="M162 1434h221v-949q0 -307 293 -307q152 0 221.5 76t69.5 231v949h221v-955q0 -242 -125 -374t-387 -132q-264 0 -389 132.5t-125 373.5v955zM791 1544l-117 185l-117 -185h-178l194 324h201l195 -324h-178z" />
<glyph unicode="&#xdc;" horiz-adv-x="1349" d="M162 1434h221v-949q0 -307 293 -307q152 0 221.5 76t69.5 231v949h221v-955q0 -242 -125 -374t-387 -132q-264 0 -389 132.5t-125 373.5v955zM420 1810h182v-211h-182v211zM745 1810h183v-211h-183v211z" />
<glyph unicode="&#xdd;" horiz-adv-x="1116" d="M565 805l301 629h236l-432 -877v-557h-221v557l-433 877h244zM664 1890h227l-238 -323h-190z" />
<glyph unicode="&#xde;" horiz-adv-x="1155" d="M178 1434h221v-217h164q264 0 382 -110t118 -359q0 -248 -136 -366t-366 -118q-86 0 -162 17v-281h-221v1434zM399 1020v-541q57 -14 144 -14q145 0 221 61.5t76 208.5q0 158 -64.5 221.5t-212.5 63.5h-164z" />
<glyph unicode="&#xdf;" horiz-adv-x="1146" d="M381 0h-223v1159q0 190 116.5 295t303.5 105q190 0 306.5 -90.5t116.5 -254.5q0 -68 -25.5 -131t-55 -104t-55 -90t-25.5 -94q0 -47 29.5 -88t72.5 -77t86 -77t72.5 -107.5t29.5 -150.5q0 -139 -90 -230.5t-241 -91.5q-207 0 -330 140l92 153q92 -106 217 -106 q131 0 131 133q0 49 -29.5 90t-71.5 76t-83 73.5t-70.5 99t-29.5 136.5q0 82 74.5 205t74.5 215q0 76 -48 122t-138 46q-98 0 -152.5 -54.5t-54.5 -156.5v-1145z" />
<glyph unicode="&#xe0;" horiz-adv-x="1050" d="M657 281v211q-150 4 -250 -49.5t-100 -153.5q0 -129 123 -129q116 0 227 121zM657 659v125q0 143 -159 144q-76 0 -126 -44t-50 -124l-197 20q4 160 114.5 247t272.5 87q170 0 269.5 -82t99.5 -227v-567q0 -74 59 -74q51 0 107 43l14 -162q-68 -72 -189 -72 q-70 0 -123 35t-59 117q-121 -152 -313 -152q-131 0 -211 76t-80 219q0 197 161.5 295t409.5 96zM190 1536h228l200 -324h-188z" />
<glyph unicode="&#xe1;" horiz-adv-x="1050" d="M657 281v211q-150 4 -250 -49.5t-100 -153.5q0 -129 123 -129q116 0 227 121zM657 659v125q0 143 -159 144q-76 0 -126 -44t-50 -124l-197 20q4 160 114.5 247t272.5 87q170 0 269.5 -82t99.5 -227v-567q0 -74 59 -74q51 0 107 43l14 -162q-68 -72 -189 -72 q-70 0 -123 35t-59 117q-121 -152 -313 -152q-131 0 -211 76t-80 219q0 197 161.5 295t409.5 96zM625 1536h227l-238 -324h-190z" />
<glyph unicode="&#xe2;" horiz-adv-x="1050" d="M657 281v211q-150 4 -250 -49.5t-100 -153.5q0 -129 123 -129q116 0 227 121zM657 659v125q0 143 -159 144q-76 0 -126 -44t-50 -124l-197 20q4 160 114.5 247t272.5 87q170 0 269.5 -82t99.5 -227v-567q0 -74 59 -74q51 0 107 43l14 -162q-68 -72 -189 -72 q-70 0 -123 35t-59 117q-121 -152 -313 -152q-131 0 -211 76t-80 219q0 197 161.5 295t409.5 96zM643 1212l-117 185l-116 -185h-179l195 324h201l194 -324h-178z" />
<glyph unicode="&#xe3;" horiz-adv-x="1050" d="M657 281v211q-150 4 -250 -49.5t-100 -153.5q0 -129 123 -129q116 0 227 121zM657 659v125q0 143 -159 144q-76 0 -126 -44t-50 -124l-197 20q4 160 114.5 247t272.5 87q170 0 269.5 -82t99.5 -227v-567q0 -74 59 -74q51 0 107 43l14 -162q-68 -72 -189 -72 q-70 0 -123 35t-59 117q-121 -152 -313 -152q-131 0 -211 76t-80 219q0 197 161.5 295t409.5 96zM346 1249l-141 49q18 80 67.5 134.5t124.5 54.5q47 0 125 -30t105 -30q61 0 78 72l143 -51q-51 -188 -199 -188q-39 0 -125 30.5t-112 30.5q-6 0 -12.5 -1t-11.5 -4t-9 -6 t-8 -8.5t-6.5 -8.5t-5.5 -11t-4 -10t-5 -11.5t-4 -11.5z" />
<glyph unicode="&#xe4;" horiz-adv-x="1050" d="M657 281v211q-150 4 -250 -49.5t-100 -153.5q0 -129 123 -129q116 0 227 121zM657 659v125q0 143 -159 144q-76 0 -126 -44t-50 -124l-197 20q4 160 114.5 247t272.5 87q170 0 269.5 -82t99.5 -227v-567q0 -74 59 -74q51 0 107 43l14 -162q-68 -72 -189 -72 q-70 0 -123 35t-59 117q-121 -152 -313 -152q-131 0 -211 76t-80 219q0 197 161.5 295t409.5 96zM272 1481h183v-211h-183v211zM598 1481h182v-211h-182v211z" />
<glyph unicode="&#xe5;" horiz-adv-x="1050" d="M657 281v211q-150 4 -250 -49.5t-100 -153.5q0 -129 123 -129q116 0 227 121zM657 659v125q0 143 -159 144q-76 0 -126 -44t-50 -124l-197 20q4 160 114.5 247t272.5 87q170 0 269.5 -82t99.5 -227v-567q0 -74 59 -74q51 0 107 43l14 -162q-68 -72 -189 -72 q-70 0 -123 35t-59 117q-121 -152 -313 -152q-131 0 -211 76t-80 219q0 197 161.5 295t409.5 96zM729 1374q0 -78 -57.5 -130t-145.5 -52t-145 52t-57 130t57 130t145 52t145.5 -52t57.5 -130zM600 1374q0 74 -73.5 74t-73.5 -74t73.5 -74t73.5 74z" />
<glyph unicode="&#xe6;" horiz-adv-x="1552" d="M1466 657v-174h-600q6 -178 75 -253.5t192 -75.5q137 0 284 112l35 -174q-92 -57 -173 -88t-189 -31q-250 0 -355 166q-133 -166 -352 -166q-135 0 -216 73t-81 220q0 139 85 230.5t208 127t278 35.5v123q0 145 -159 146q-76 0 -126 -43t-53 -125l-194 20 q2 160 113.5 247t273.5 87q193 0 270 -115q94 115 293 115q201 0 296 -121t95 -336zM434 160q137 0 244 141q-20 88 -23 191q-164 0 -256 -53.5t-92 -153.5q0 -125 127 -125zM868 657h383q0 139 -43 205t-139 66q-98 0 -145.5 -64t-55.5 -207z" />
<glyph unicode="&#xe7;" horiz-adv-x="972" d="M891 741q-127 -12 -201 -20q-6 90 -47 148.5t-127 58.5q-106 0 -151.5 -81t-45.5 -304q0 -219 61.5 -301t192.5 -82q133 0 275 98l43 -166q-127 -88 -262 -110q41 -70 41 -154q0 -100 -62.5 -159.5t-165.5 -59.5q-74 0 -136 30.5t-95 81.5l94 105q43 -55 103 -55 q80 0 79 88q0 51 -36 121q-365 47 -365 565q0 287 107.5 428t330.5 141q186 0 274.5 -101.5t92.5 -271.5z" />
<glyph unicode="&#xe8;" horiz-adv-x="1005" d="M920 483h-601q8 -178 75 -250.5t192 -72.5q145 0 284 106l35 -174q-92 -57 -173 -88t-191 -31q-213 0 -334 138.5t-121 431.5q0 571 440 571q393 0 394 -457v-174zM322 657h383q0 139 -43.5 205t-139.5 66q-100 0 -146 -64t-54 -207zM199 1536h227l201 -324h-189z" />
<glyph unicode="&#xe9;" horiz-adv-x="1005" d="M920 483h-601q8 -178 75 -250.5t192 -72.5q145 0 284 106l35 -174q-92 -57 -173 -88t-191 -31q-213 0 -334 138.5t-121 431.5q0 571 440 571q393 0 394 -457v-174zM322 657h383q0 139 -43.5 205t-139.5 66q-100 0 -146 -64t-54 -207zM621 1536h227l-238 -324h-190z" />
<glyph unicode="&#xea;" horiz-adv-x="1005" d="M920 483h-601q8 -178 75 -250.5t192 -72.5q145 0 284 106l35 -174q-92 -57 -173 -88t-191 -31q-213 0 -334 138.5t-121 431.5q0 571 440 571q393 0 394 -457v-174zM322 657h383q0 139 -43.5 205t-139.5 66q-100 0 -146 -64t-54 -207zM641 1212l-117 185l-116 -185h-179 l195 324h201l194 -324h-178z" />
<glyph unicode="&#xeb;" horiz-adv-x="1005" d="M920 483h-601q8 -178 75 -250.5t192 -72.5q145 0 284 106l35 -174q-92 -57 -173 -88t-191 -31q-213 0 -334 138.5t-121 431.5q0 571 440 571q393 0 394 -457v-174zM322 657h383q0 139 -43.5 205t-139.5 66q-100 0 -146 -64t-54 -207zM272 1481h183v-211h-183v211z M598 1481h182v-211h-182v211z" />
<glyph unicode="&#xec;" horiz-adv-x="542" d="M-57 1536h227l201 -324h-189zM160 1087h223v-1087h-223v1087z" />
<glyph unicode="&#xed;" horiz-adv-x="542" d="M377 1536h227l-237 -324h-191zM160 1087h223v-1087h-223v1087z" />
<glyph unicode="&#xee;" horiz-adv-x="542" d="M160 1087h223v-1087h-223v1087zM387 1212l-117 185l-116 -185h-179l195 324h201l194 -324h-178z" />
<glyph unicode="&#xef;" horiz-adv-x="542" d="M16 1481h183v-211h-183v211zM342 1481h182v-211h-182v211zM160 1087h223v-1087h-223v1087z" />
<glyph unicode="&#xf0;" horiz-adv-x="1071" d="M985 553q0 -580 -450 -580q-449 0 -449 570q0 295 112.5 433t338.5 138q82 0 137 -35q-41 94 -90 168l-332 -49v141l250 37q-43 57 -105 119l201 41q72 -72 113 -131l237 37v-139l-160 -25q197 -336 197 -725zM536.5 928q-114.5 0 -168 -84t-53.5 -301q0 -213 53.5 -298 t168 -85t167 84t52.5 295q0 219 -52.5 304t-167 85z" />
<glyph unicode="&#xf1;" horiz-adv-x="1155" d="M360 1087v-98q170 125 338 125q152 0 236 -86t84 -260v-768h-223v723q0 100 -38 140t-132 40q-119 0 -242 -80v-823h-223v1087h200zM408 1249l-142 49q18 80 67.5 134.5t125.5 54.5q47 0 125 -30t104 -30q61 0 78 72l143 -51q-51 -188 -198 -188q-39 0 -125 30.5 t-113 30.5q-6 0 -12 -1t-11.5 -4t-9.5 -6t-8 -8.5t-6 -8.5t-5 -11t-4 -10t-5 -11.5t-4 -11.5z" />
<glyph unicode="&#xf2;" horiz-adv-x="1071" d="M537 1114q231 0 339.5 -135t108.5 -440q0 -565 -448 -566q-221 0 -336 136.5t-115 433.5q0 295 114 433t337 138zM536.5 928q-114.5 0 -168 -84t-53.5 -301q0 -213 53.5 -298t168 -85t167 84t52.5 295q0 219 -52.5 304t-167 85zM205 1536h227l201 -324h-189z" />
<glyph unicode="&#xf3;" horiz-adv-x="1071" d="M537 1114q231 0 339.5 -135t108.5 -440q0 -565 -448 -566q-221 0 -336 136.5t-115 433.5q0 295 114 433t337 138zM536.5 928q-114.5 0 -168 -84t-53.5 -301q0 -213 53.5 -298t168 -85t167 84t52.5 295q0 219 -52.5 304t-167 85zM631 1536h227l-237 -324h-191z" />
<glyph unicode="&#xf4;" horiz-adv-x="1071" d="M537 1114q231 0 339.5 -135t108.5 -440q0 -565 -448 -566q-221 0 -336 136.5t-115 433.5q0 295 114 433t337 138zM536.5 928q-114.5 0 -168 -84t-53.5 -301q0 -213 53.5 -298t168 -85t167 84t52.5 295q0 219 -52.5 304t-167 85zM651 1212l-116 185l-117 -185h-178 l194 324h201l194 -324h-178z" />
<glyph unicode="&#xf5;" horiz-adv-x="1071" d="M537 1114q231 0 339.5 -135t108.5 -440q0 -565 -448 -566q-221 0 -336 136.5t-115 433.5q0 295 114 433t337 138zM536.5 928q-114.5 0 -168 -84t-53.5 -301q0 -213 53.5 -298t168 -85t167 84t52.5 295q0 219 -52.5 304t-167 85zM354 1249l-141 49q18 80 67.5 134.5 t125.5 54.5q47 0 124.5 -30t104.5 -30q61 0 78 72l143 -51q-51 -188 -199 -188q-39 0 -125 30.5t-112 30.5q-6 0 -12.5 -1t-11.5 -4t-9 -6t-8 -8.5t-6 -8.5t-5 -11t-4.5 -10t-5.5 -11.5t-4 -11.5z" />
<glyph unicode="&#xf6;" horiz-adv-x="1071" d="M537 1114q231 0 339.5 -135t108.5 -440q0 -565 -448 -566q-221 0 -336 136.5t-115 433.5q0 295 114 433t337 138zM536.5 928q-114.5 0 -168 -84t-53.5 -301q0 -213 53.5 -298t168 -85t167 84t52.5 295q0 219 -52.5 304t-167 85zM281 1481h182v-211h-182v211zM606 1481 h182v-211h-182v211z" />
<glyph unicode="&#xf7;" d="M434 440h219v-213h-219v213zM961 778v-194h-836v194h836zM434 1130h219v-212h-219v212z" />
<glyph unicode="&#xf8;" horiz-adv-x="1071" d="M537 1114q190 0 288 -84l88 119l95 -62l-107 -143q84 -139 84 -405q0 -565 -448 -566q-184 0 -291 93l-94 -129l-89 63l109 150q-86 139 -86 393q0 295 114 433t337 138zM537 928q-115 0 -168.5 -84t-53.5 -301q0 -117 15 -193l364 506q-46 72 -157 72zM741 733 l-368 -495q49 -78 163.5 -78t167 84t52.5 295q-1 108 -15 194z" />
<glyph unicode="&#xf9;" horiz-adv-x="1083" d="M133 1087h223v-745q0 -182 184.5 -182t184.5 182v745h223v-739q0 -184 -111.5 -279.5t-296 -95.5t-296 95.5t-111.5 279.5v739zM213 1536h227l201 -324h-188z" />
<glyph unicode="&#xfa;" horiz-adv-x="1083" d="M133 1087h223v-745q0 -182 184.5 -182t184.5 182v745h223v-739q0 -184 -111.5 -279.5t-296 -95.5t-296 95.5t-111.5 279.5v739zM639 1536h227l-237 -324h-191z" />
<glyph unicode="&#xfb;" horiz-adv-x="1083" d="M133 1087h223v-745q0 -182 184.5 -182t184.5 182v745h223v-739q0 -184 -111.5 -279.5t-296 -95.5t-296 95.5t-111.5 279.5v739zM657 1212l-116 185l-117 -185h-178l194 324h201l195 -324h-179z" />
<glyph unicode="&#xfc;" horiz-adv-x="1083" d="M133 1087h223v-745q0 -182 184.5 -182t184.5 182v745h223v-739q0 -184 -111.5 -279.5t-296 -95.5t-296 95.5t-111.5 279.5v739zM287 1481h182v-211h-182v211zM612 1481h183v-211h-183v211z" />
<glyph unicode="&#xfd;" horiz-adv-x="995" d="M985 1087l-383 -1042q-86 -240 -189.5 -361.5t-283.5 -121.5q-117 0 -235 57l59 180q86 -43 164 -43q43 0 76.5 15.5t56 33t50.5 64.5t42 77.5t45 104.5l-385 1036h240l258 -765l266 765h219zM592 1536h227l-237 -324h-191z" />
<glyph unicode="&#xfe;" horiz-adv-x="1130" d="M598 -27q-102 0 -215 52v-447l-223 -49v1966l223 41v-528q143 106 297 106q362 0 362 -559q0 -301 -120.5 -441.5t-323.5 -140.5zM383 838v-617q96 -61 192 -61q231 0 232 395q0 358 -205 358q-98 1 -219 -75z" />
<glyph unicode="&#xff;" horiz-adv-x="995" d="M985 1087l-383 -1042q-86 -240 -189.5 -361.5t-283.5 -121.5q-117 0 -235 57l59 180q86 -43 164 -43q43 0 76.5 15.5t56 33t50.5 64.5t42 77.5t45 104.5l-385 1036h240l258 -765l266 765h219zM246 1481h182v-211h-182v211zM571 1481h183v-211h-183v211z" />
<glyph unicode="&#x152;" horiz-adv-x="1880" d="M991 1434h758v-205h-553v-400h528v-198h-528v-426h582v-205h-787v158q-102 -184 -358 -185q-250 0 -396.5 177.5t-146.5 562.5q0 389 147.5 568t401.5 179q252 0 352 -182v156zM635 1255q-154 0 -237 -122.5t-83 -417.5q0 -291 83 -414t237 -123q158 0 236.5 123 t78.5 418t-78.5 415.5t-236.5 120.5z" />
<glyph unicode="&#x153;" horiz-adv-x="1669" d="M537 1114q248 0 329 -176q88 176 324 176q393 0 393 -455v-176h-600q8 -178 74.5 -250.5t189.5 -72.5q141 0 287 106l33 -172q-182 -121 -363 -121q-244 0 -338 191q-88 -190 -329 -191q-221 0 -336 136.5t-115 433.5q0 295 114 433t337 138zM536.5 934 q-114.5 0 -168 -87t-53.5 -304q0 -215 53.5 -301t168 -86t167 86t52.5 297q0 221 -52.5 308t-167 87zM985 657h383q0 139 -43 205t-141.5 66t-144.5 -64t-54 -207z" />
<glyph unicode="&#x178;" horiz-adv-x="1116" d="M565 805l301 629h236l-432 -877v-557h-221v557l-433 877h244zM311 1819h183v-211h-183v211zM637 1819h182v-211h-182v211z" />
<glyph unicode="&#x2c6;" horiz-adv-x="1024" d="M629 1212l-117 185l-117 -185h-178l195 324h200l195 -324h-178z" />
<glyph unicode="&#x2dc;" horiz-adv-x="1024" d="M338 1249l-141 49q18 80 67 134.5t125 54.5q47 0 125 -30t104 -30q61 0 78 72l144 -51q-51 -188 -199 -188q-39 0 -125 30.5t-113 30.5q-6 0 -12 -1t-11 -4t-9 -6t-8.5 -8.5t-6.5 -8.5t-5 -11t-4 -10t-5 -11.5t-4 -11.5z" />
<glyph unicode="&#x2000;" horiz-adv-x="944" />
<glyph unicode="&#x2001;" horiz-adv-x="1890" />
<glyph unicode="&#x2002;" horiz-adv-x="944" />
<glyph unicode="&#x2003;" horiz-adv-x="1890" />
<glyph unicode="&#x2004;" horiz-adv-x="628" />
<glyph unicode="&#x2005;" horiz-adv-x="471" />
<glyph unicode="&#x2006;" horiz-adv-x="313" />
<glyph unicode="&#x2007;" horiz-adv-x="313" />
<glyph unicode="&#x2008;" horiz-adv-x="235" />
<glyph unicode="&#x2009;" horiz-adv-x="376" />
<glyph unicode="&#x200a;" horiz-adv-x="104" />
<glyph unicode="&#x2010;" horiz-adv-x="854" d="M696 778v-194h-538v194h538z" />
<glyph unicode="&#x2011;" horiz-adv-x="854" d="M696 778v-194h-538v194h538z" />
<glyph unicode="&#x2012;" horiz-adv-x="854" d="M696 778v-194h-538v194h538z" />
<glyph unicode="&#x2013;" horiz-adv-x="1140" d="M983 778v-194h-825v194h825z" />
<glyph unicode="&#x2014;" horiz-adv-x="1916" d="M1759 778v-194h-1601v194h1601z" />
<glyph unicode="&#x2018;" horiz-adv-x="481" d="M299 948h-221l147 486h178z" />
<glyph unicode="&#x2019;" horiz-adv-x="481" d="M182 1434h221l-147 -486h-178z" />
<glyph unicode="&#x201a;" horiz-adv-x="483" d="M182 135h221l-147 -485h-178z" />
<glyph unicode="&#x201c;" horiz-adv-x="876" d="M285 948h-226l205 486h180zM700 948h-225l148 486h178z" />
<glyph unicode="&#x201d;" horiz-adv-x="876" d="M592 1434h225l-205 -486h-178zM176 1434h227l-147 -486h-180z" />
<glyph unicode="&#x201e;" horiz-adv-x="876" d="M592 137h225l-205 -485h-178zM176 137h227l-147 -485h-180z" />
<glyph unicode="&#x2022;" horiz-adv-x="784" d="M135 680q0 109 75 183.5t181.5 74.5t182 -76t75.5 -182.5t-75.5 -180t-182 -73.5t-181.5 74t-75 180z" />
<glyph unicode="&#x2026;" horiz-adv-x="1503" d="M123 238h235v-238h-235v238zM635 238h235v-238h-235v238zM1145 238h235v-238h-235v238z" />
<glyph unicode="&#x202f;" horiz-adv-x="376" />
<glyph unicode="&#x2039;" horiz-adv-x="751" d="M684 137h-231l-385 475l385 475h231l-369 -475z" />
<glyph unicode="&#x203a;" horiz-adv-x="751" d="M299 137h-231l368 475l-368 475h231l385 -475z" />
<glyph unicode="&#x205f;" horiz-adv-x="471" />
<glyph unicode="&#x20ac;" d="M14 764v158h136q27 289 141.5 413.5t347.5 124.5q201 0 306.5 -109.5t119.5 -289.5l-217 -31q-10 49 -18.5 78t-31 69t-62.5 59t-99 19q-127 0 -185.5 -76.5t-74.5 -256.5h489l-26 -158h-469v-57q0 -49 2 -78h442l-29 -154h-395q25 -158 96.5 -227.5t200.5 -69.5 q104 0 174 23.5t154 72.5l47 -188q-188 -113 -395 -113q-223 0 -347 118t-163 384h-144v154h129q-2 29 -2 67v68h-127z" />
<glyph unicode="&#x2122;" horiz-adv-x="1695" d="M47 1434h594v-148h-215v-579h-168v579h-211v148zM1225 764h-168l-146 407l-55 -464h-170l94 727h191l170 -453l170 453h190l94 -727h-170l-55 464z" />
<glyph unicode="&#xe000;" d="M0 1085h1085v-1085h-1085v1085z" />
<glyph unicode="&#xfb01;" horiz-adv-x="1198" d="M35 1087h151v74q0 190 104.5 282.5t284.5 92.5q115 0 207 -35l-39 -180q-70 27 -153 27q-180 0 -180 -181v-80h628v-1087h-223v907h-405v-1073q0 -129 -78 -198.5t-197 -69.5q-115 0 -215 55l35 178q78 -35 129 -35q102 0 102 113v1030h-151v180zM815 1475h223v-242h-223 v242z" />
<glyph unicode="&#xfb02;" horiz-adv-x="1261" d="M817 1495l223 41v-1286q0 -82 76 -82q57 0 133 43l23 -172q-123 -66 -228 -66q-227 0 -227 277v1245zM410 907v-1073q0 -129 -78 -198.5t-197 -69.5q-115 0 -215 55l35 178q78 -35 129 -35q102 0 102 113v1030h-151v180h151v74q0 190 104.5 282.5t284.5 92.5 q115 0 207 -35l-39 -180q-70 27 -153 27q-180 0 -180 -181v-80h268l-27 -180h-241z" />
<glyph unicode="&#xfb03;" horiz-adv-x="1830" d="M1042 907v-1073q0 -129 -77.5 -198.5t-196.5 -69.5q-113 0 -215 55l35 178q78 -35 129 -35q102 0 102 113v1030h-409v-1073q0 -129 -78 -198.5t-197 -69.5q-115 0 -215 55l35 178q78 -35 129 -35q102 0 102 113v1030h-151v180h151v74q0 190 104.5 282.5t284.5 92.5 q115 0 207 -35l-39 -180q-70 27 -153 27q-180 0 -180 -181v-80h409v74q0 190 104.5 282.5t284.5 92.5q115 0 207 -35l-39 -180q-70 27 -153 27q-180 0 -181 -181v-80h629v-1087h-223v907h-406zM1448 1475h223v-242h-223v242z" />
<glyph unicode="&#xfb04;" horiz-adv-x="1894" d="M1450 1495l223 41v-1286q0 -82 76 -82q57 0 133 43l23 -172q-123 -66 -228 -66q-227 0 -227 277v1245zM1042 907v-1073q0 -129 -77.5 -198.5t-196.5 -69.5q-113 0 -215 55l35 178q78 -35 129 -35q102 0 102 113v1030h-409v-1073q0 -129 -78 -198.5t-197 -69.5 q-115 0 -215 55l35 178q78 -35 129 -35q102 0 102 113v1030h-151v180h151v74q0 190 104.5 282.5t284.5 92.5q115 0 207 -35l-39 -180q-70 27 -153 27q-180 0 -180 -181v-80h409v74q0 190 104.5 282.5t284.5 92.5q115 0 207 -35l-39 -180q-70 27 -153 27q-180 0 -181 -181 v-80h269l-27 -180h-242z" />
</font>
</defs>
</svg>
