<?xml version="1.0" standalone="no"?>
<!DOCTYPE svg PUBLIC "-//W3C//DTD SVG 1.1//EN" "http://www.w3.org/Graphics/SVG/1.1/DTD/svg11.dtd" >
<svg xmlns="http://www.w3.org/2000/svg">
<metadata>
This is a custom SVG webfont generated by Font Squirrel.
Copyright   : Copyright c 2008 BNP Paribas
Designer    : Christophe Badani
Foundry     : Christophe Badani et Stphane Gabrielli
Foundry URL : wwwseenkcom
</metadata>
<defs>
<font id="webfontqxmKxkOw" horiz-adv-x="1085" >
<font-face units-per-em="2048" ascent="1546" descent="-502" />
<missing-glyph horiz-adv-x="524" />
<glyph unicode=" "  horiz-adv-x="524" />
<glyph unicode="&#x09;" horiz-adv-x="524" />
<glyph unicode="&#xa0;" horiz-adv-x="524" />
<glyph unicode="!" horiz-adv-x="634" d="M137 1434h359l-27 -977h-305zM150 328h333v-328h-333v328z" />
<glyph unicode="&#x22;" horiz-adv-x="940" d="M551 1434h283v-486h-283v486zM104 1434h283v-486h-283v486z" />
<glyph unicode="#" horiz-adv-x="1288" d="M86 838l45 252h197l59 346h270l-59 -346h223l60 346h270l-59 -346h196l-45 -252h-196l-43 -246h194l-43 -250h-197l-59 -342h-270l59 342h-223l-59 -342h-271l60 342h-195l43 250h197l43 246h-197zM553 838l-43 -246h223l43 246h-223z" />
<glyph unicode="$" d="M1008 918l-312 -41q-14 180 -149 180q-125 0 -125 -105q0 -51 61.5 -89t148.5 -68.5t174 -70.5t148.5 -112.5t61.5 -175.5q0 -166 -92.5 -264t-255.5 -127v-225h-246v219q-223 31 -399 207l165 239q156 -166 326 -166q127 0 127 87q0 33 -42 60.5t-104.5 48t-136 55 t-136 76.5t-104.5 118t-42 174q0 164 92 265.5t254 127.5v205h246v-211q90 -18 156.5 -60t103.5 -101.5t55.5 -118.5t24.5 -127z" />
<glyph unicode="%" horiz-adv-x="1626" d="M1143 1434h252l-914 -1434h-250zM451 1087.5q0 169.5 -90.5 169.5t-90.5 -169.5t90.5 -169.5t90.5 169.5zM35 1090q0 184 84 279t239 95q328 0 328 -374q0 -186 -85 -282.5t-243 -96.5q-156 0 -239.5 95.5t-83.5 283.5zM1356 346q0 172 -90 172t-90 -170t90 -170t90 168z M940 348.5q0 186.5 84 281.5t240 95q160 0 243.5 -95t83.5 -282q0 -184 -85 -280.5t-242 -96.5q-156 0 -240 95.5t-84 282z" />
<glyph unicode="&#x26;" horiz-adv-x="1198" d="M1153 694v-28q0 -209 -80 -340l336 -326h-397l-115 106q-141 -135 -377 -135q-264 0 -390 118t-126 310q0 252 244 373q-127 145 -127 307q0 170 113.5 276.5t310.5 106.5q223 0 329.5 -108.5t106.5 -268.5q0 -231 -270 -374l155 -162q20 55 21 115v30h266zM442 569 q-100 -70 -100 -161q0 -76 53.5 -118t132.5 -42q96 0 158 63zM518 903q82 41 116 82t34 96q0 125 -125 125q-37 0 -73 -27.5t-36 -88.5q0 -55 19.5 -94.5t64.5 -92.5z" />
<glyph unicode="'" horiz-adv-x="493" d="M104 1434h283v-486h-283v486z" />
<glyph unicode="(" horiz-adv-x="702" d="M45 520q0 324 104.5 586t251.5 430h326q-162 -168 -275.5 -441.5t-113.5 -572.5t113.5 -572.5t275.5 -441.5h-326q-147 168 -251.5 430.5t-104.5 581.5z" />
<glyph unicode=")" horiz-adv-x="702" d="M657 520q0 -319 -104 -581.5t-252 -430.5h-326q162 168 276 441.5t114 572.5t-114 572.5t-276 441.5h326q147 -168 251.5 -430t104.5 -586z" />
<glyph unicode="*" horiz-adv-x="919" d="M655 1053l217 -113l-102 -178l-217 141l6 -223h-201l9 223l-217 -139l-103 174l213 117l-213 119l103 174l217 -138l-9 224h201l-4 -224l215 136l100 -172z" />
<glyph unicode="+" d="M403 1126h277v-307h301v-276h-301v-307h-277v307h-299v276h299v307z" />
<glyph unicode="," horiz-adv-x="493" d="M113 328h352l-223 -598h-271z" />
<glyph unicode="-" horiz-adv-x="829" d="M709 819v-276h-588v276h588z" />
<glyph unicode="." horiz-adv-x="493" d="M80 328h334v-328h-334v328z" />
<glyph unicode="/" horiz-adv-x="815" d="M526 1434h283l-522 -1434h-281z" />
<glyph unicode="0" d="M547 1462q248 0 377 -176t129 -567q0 -748 -518 -748q-506 0 -506 742q0 381 137 565t381 184zM541 1163q-168 0 -168 -448q0 -238 41 -341.5t127 -103.5q88 0 129 103.5t41 345.5q0 238 -41 341t-129 103z" />
<glyph unicode="1" d="M121 0v307h309v752l-309 -156v330l399 201h236v-1127h291v-307h-926z" />
<glyph unicode="2" d="M356 991l-325 41q10 186 130 308t349 122q227 0 352 -113.5t125 -330.5q0 -119 -56.5 -224.5t-168.5 -228.5l-234 -252h490v-313h-944v270l444 498q117 129 117 238q0 156 -127 155q-150 0 -152 -170z" />
<glyph unicode="3" d="M510 1462q225 0 355 -108.5t130 -300.5q0 -217 -190 -301q219 -66 219 -342q0 -215 -137 -327t-361 -112q-299 0 -493 195l141 258q147 -154 330 -154q82 0 130 35t48 107q0 82 -40 118.5t-128 36.5h-188v285h159q76 0 116 43t40 121q0 147 -135 147q-147 0 -150 -172 l-325 41q10 186 130 308t349 122z" />
<glyph unicode="4" d="M23 285v290l458 859h437v-865h147v-284h-147v-285h-318v285h-577zM600 1094l-281 -525h281v525z" />
<glyph unicode="5" d="M119 672v762h829v-308h-520v-235q41 4 64 4q508 0 507 -455q0 -221 -130 -345t-359 -124q-281 0 -469 189l141 258q76 -76 139.5 -112t149.5 -36q82 0 133 44t51 120q0 172 -204 172q-80 0 -164 -28z" />
<glyph unicode="6" d="M401 569q4 -147 42 -223t130 -76q70 0 108 49.5t38 135.5q0 158 -146 157q-102 0 -172 -43zM406 846q98 49 233 49q170 0 294 -104.5t124 -321.5q0 -240 -135.5 -369t-352.5 -129q-242 0 -378 178.5t-136 563.5q0 381 140.5 565t386.5 184q205 0 322.5 -108.5 t133.5 -315.5l-315 -26q-25 152 -150 151q-167 0 -167 -317z" />
<glyph unicode="7" d="M66 1434h958v-250l-541 -1184h-383l539 1126h-573v308z" />
<glyph unicode="8" d="M543 602q-178 0 -178 -172q0 -82 47 -126t129 -44q84 0 132 44t48 126q0 172 -178 172zM542.5 -29q-227.5 0 -372.5 121t-145 320q0 246 198 333q-160 100 -160 297q0 203 127 311.5t352.5 108.5t352.5 -108.5t127 -311.5q0 -197 -160 -297q199 -88 199 -333 q0 -199 -145.5 -320t-373 -121zM542.5 1171q-147.5 0 -147.5 -161q0 -70 39 -116t108.5 -46t108.5 46t39 116q0 161 -147.5 161z" />
<glyph unicode="9" d="M496 -29q-274 0 -469 191l141 260q141 -152 309 -152q106 0 149.5 77t43.5 222q-86 -35 -187 -34q-205 0 -328.5 109.5t-123.5 328.5q0 225 133 357t356 132q262 0 385 -174t123 -571q0 -369 -146 -557.5t-386 -188.5zM524 821q86 0 158 39q-4 170 -40 236.5t-120 66.5 q-72 0 -109.5 -48t-37.5 -128q0 -78 38.5 -122t110.5 -44z" />
<glyph unicode=":" horiz-adv-x="493" d="M80 328h334v-328h-334v328zM80 1098h334v-328h-334v328z" />
<glyph unicode=";" horiz-adv-x="493" d="M78 1098h334v-328h-334v328zM113 328h352l-221 -598h-273z" />
<glyph unicode="&#x3c;" d="M981 1096v-279l-612 -141l612 -144v-278l-877 246v350z" />
<glyph unicode="=" d="M981 1026v-276h-877v276h877zM981 590v-277h-877v277h877z" />
<glyph unicode="&#x3e;" d="M104 817v279l877 -246v-350l-877 -246v278l613 144z" />
<glyph unicode="?" horiz-adv-x="970" d="M618 457h-313q2 170 39 243.5t164 190.5q90 82 90 168q0 43 -29.5 72.5t-85.5 29.5q-63 0 -99 -43t-38 -104l-156 30q-104 20 -155 29q8 178 124.5 283.5t342.5 105.5q203 0 318.5 -107.5t115.5 -275.5q0 -111 -44 -186.5t-134 -165.5l-31 -31q-20 -20 -28.5 -27 t-22.5 -23.5t-18.5 -25t-13.5 -23.5t-12 -28l-7 -29q-4 -17 -5.5 -37.5t-1.5 -45.5zM295 328h334v-328h-334v328z" />
<glyph unicode="@" horiz-adv-x="1581" d="M883 432v303q-41 23 -97 23q-121 0 -120 -191q0 -201 102 -200q70 -1 115 65zM1262 61l57 -172q-217 -90 -457 -90q-346 0 -576.5 200t-230.5 562q0 332 204 532.5t536 200.5q330 0 534.5 -189.5t204.5 -494.5q0 -229 -96.5 -358t-263.5 -129q-170 0 -220 117 q-98 -98 -219 -99q-135 0 -232 98.5t-97 327.5q0 121 36.5 207t96 129t120 61.5t123.5 18.5q184 0 355 -109v-425q0 -92 80 -93q115 0 114 254q0 233 -148.5 369.5t-387.5 136.5q-242 0 -395.5 -148.5t-153.5 -406.5q0 -276 176 -427.5t446 -151.5q201 -1 394 79z" />
<glyph unicode="A" horiz-adv-x="1167" d="M854 0l-72 264h-442l-72 -264h-293l416 1434h387l414 -1434h-338zM559 1096l-149 -559h301z" />
<glyph unicode="B" horiz-adv-x="1198" d="M467 588v-305h131q96 0 142 34.5t46 114.5q0 86 -44 121t-144 35h-131zM467 1149v-291h129q82 0 123 35t41 117q0 90 -42 114.5t-132 24.5h-119zM141 1434h455q248 0 375 -82t127 -283q0 -119 -55.5 -209t-155.5 -129q254 -57 254 -319q0 -217 -132 -314.5t-405 -97.5 h-463v1434z" />
<glyph unicode="C" horiz-adv-x="1161" d="M1116 979l-315 -27q-6 211 -168 211q-131 0 -186.5 -100t-55.5 -336q0 -258 83 -357.5t235 -99.5q166 0 352 103l35 -281q-213 -121 -434 -121q-604 0 -605 756q0 381 144.5 558t433.5 177q227 0 353 -120.5t128 -362.5z" />
<glyph unicode="D" horiz-adv-x="1316" d="M141 1434h533q586 0 586 -695q0 -385 -152 -562t-442 -177h-525v1434zM467 1141v-848h188q141 0 206 89t65 351q0 242 -64.5 325t-206.5 83h-188z" />
<glyph unicode="E" horiz-adv-x="1075" d="M141 1434h826v-293h-500v-285h475v-276h-475v-287h528v-293h-854v1434z" />
<glyph unicode="F" horiz-adv-x="1052" d="M141 1434h852v-293h-526v-332h440v-287h-440v-522h-326v1434z" />
<glyph unicode="G" horiz-adv-x="1323" d="M891 952q-8 211 -209 211q-133 0 -203.5 -99t-70.5 -333q0 -264 64.5 -362.5t205.5 -98.5q111 0 215 78v166h-223v277h551v-791h-295v86q-115 -115 -312 -115q-113 0 -207 37t-175.5 119t-128 234.5t-46.5 361.5q0 739 635 739q506 0 510 -483z" />
<glyph unicode="H" horiz-adv-x="1386" d="M141 1434h326v-566h455v566h323v-1434h-323v557h-455v-557h-326v1434z" />
<glyph unicode="I" horiz-adv-x="608" d="M141 1434h326v-1434h-326v1434z" />
<glyph unicode="J" horiz-adv-x="647" d="M197 1434h325v-1108q0 -166 -89 -260.5t-234 -94.5q-129 0 -226 49l43 277q49 -27 101 -27q80 0 80 95v1069z" />
<glyph unicode="K" horiz-adv-x="1226" d="M141 1434h326v-592l424 592h348l-410 -570l437 -864h-379l-277 571l-143 -198v-373h-326v1434z" />
<glyph unicode="L" horiz-adv-x="950" d="M141 1434h326v-1141h461v-293h-787v1434z" />
<glyph unicode="M" horiz-adv-x="1738" d="M213 1434h371l286 -865l283 865h371l129 -1434h-328l-65 862l-246 -747h-293l-244 747l-65 -862h-328z" />
<glyph unicode="N" horiz-adv-x="1423" d="M141 1434h332l490 -869v869h319v-1434h-332l-491 850v-850h-318v1434z" />
<glyph unicode="O" horiz-adv-x="1275" d="M637 1462q266 0 424 -178t158 -569q0 -389 -159 -566.5t-425 -177.5q-262 0 -420 177.5t-158 566.5t158 568t422 179zM637 1163q-121 0 -187.5 -98t-66.5 -348q0 -248 67.5 -347.5t186.5 -99.5t178 97.5t59 349.5t-59 349t-178 97z" />
<glyph unicode="P" horiz-adv-x="1161" d="M467 1157v-424q41 -8 84 -8q111 0 164 45t53 166q0 129 -45 175t-158 46h-98zM141 1434h424q289 0 407 -101.5t118 -374.5q0 -510 -502 -509q-70 0 -121 10v-459h-326v1434z" />
<glyph unicode="Q" horiz-adv-x="1275" d="M637 1462q266 0 424 -178t158 -569q0 -549 -334 -697l205 -366h-365l-156 321q-236 23 -374 201t-138 541q0 389 158 568t422 179zM637 1163q-121 0 -187.5 -98t-66.5 -348q0 -248 67.5 -347.5t186.5 -99.5t178 97.5t59 349.5t-59 349t-178 97z" />
<glyph unicode="R" horiz-adv-x="1191" d="M1161 0h-358l-213 500q-63 0 -125 6v-506h-324v1434h439q258 0 398 -97.5t140 -345.5q0 -305 -213 -413zM465 1149v-354q55 -8 108 -9q205 0 205 189q0 98 -46 136t-154 38h-113z" />
<glyph unicode="S" horiz-adv-x="1110" d="M1030 1012l-317 -43q-6 96 -42 145t-124 49q-66 0 -105 -29.5t-39 -84.5q0 -63 64.5 -116.5t157 -96.5t183.5 -94.5t155.5 -139.5t64.5 -205q0 -203 -127 -314.5t-362 -111.5q-287 0 -492 201l141 258q154 -160 355 -160q152 0 151 101q0 47 -46 89t-115.5 71.5 t-149.5 73.5t-149.5 94.5t-115.5 136.5t-46 196q0 199 134 314.5t343 115.5q450 1 481 -450z" />
<glyph unicode="T" horiz-adv-x="1116" d="M35 1434h1046v-293h-360v-1141h-326v1141h-360v293z" />
<glyph unicode="U" horiz-adv-x="1347" d="M129 1434h326v-930q0 -233 219 -234q113 0 166 56.5t53 177.5v930h326v-926q0 -250 -133.5 -393.5t-411.5 -143.5q-274 0 -409.5 143.5t-135.5 393.5v926z" />
<glyph unicode="V" horiz-adv-x="1228" d="M10 1434h359l270 -1035l268 1035h312l-400 -1434h-381z" />
<glyph unicode="W" horiz-adv-x="1861" d="M762 1434h336l237 -971l168 971h346l-288 -1434h-398l-233 934l-234 -934h-397l-291 1434h348l168 -971z" />
<glyph unicode="X" horiz-adv-x="1191" d="M-4 1434h375l237 -443l236 443h346l-406 -703l422 -731h-379l-245 444l-248 -444h-346l405 709z" />
<glyph unicode="Y" horiz-adv-x="1138" d="M573 858l238 576h350l-428 -932v-502h-325v502l-431 932h361z" />
<glyph unicode="Z" horiz-adv-x="1146" d="M76 1434h1005v-217l-594 -924h596v-293h-1030v215l594 926h-571v293z" />
<glyph unicode="[" horiz-adv-x="655" d="M141 1536h477v-248h-188v-1513h188v-246h-477v2007z" />
<glyph unicode="\" horiz-adv-x="815" d="M0 1434h283l520 -1434h-281z" />
<glyph unicode="]" horiz-adv-x="655" d="M35 1536h477v-2007h-477v246h188v1513h-188v248z" />
<glyph unicode="^" horiz-adv-x="1089" d="M1053 719h-299l-207 373l-209 -373h-301l383 715h250z" />
<glyph unicode="_" horiz-adv-x="1130" d="M1116 -29v-276h-1102v276h1102z" />
<glyph unicode="`" horiz-adv-x="1024" d="M180 1536h320l184 -324h-262z" />
<glyph unicode="a" horiz-adv-x="1058" d="M602 295v176q-102 -2 -169.5 -35t-67.5 -100q0 -98 100 -98q63 0 137 57zM602 674v74q0 115 -106 114q-115 0 -115 -125l-289 25q8 176 125 270t297 94q207 0 312.5 -93t105.5 -251v-473q0 -66 55 -65q47 0 115 41l14 -226q-90 -90 -242 -90q-72 0 -136 40t-74 118 q-119 -158 -326 -158q-127 0 -206 79t-79 233q0 190 144.5 288.5t404.5 104.5z" />
<glyph unicode="b" horiz-adv-x="1144" d="M455 825v-542q66 -43 137 -43q76 0 114.5 69.5t38.5 257.5q0 172 -37.5 233.5t-113.5 61.5q-51 0 -139 -37zM125 1495l330 41v-492q152 78 276 78q78 0 137.5 -24.5t110.5 -84t78.5 -172t27.5 -274.5q0 -592 -516 -592q-258 0 -444 160v1360z" />
<glyph unicode="c" horiz-adv-x="987" d="M940 709l-144 -13q-97 -8 -147 -14q-4 180 -112 180q-76 0 -106 -62.5t-30 -252.5q0 -174 50.5 -238.5t150.5 -64.5q184 0 303 84l31 -242q-211 -115 -401 -115q-236 0 -356 137.5t-120 444.5q0 313 115 443t367 130q395 1 399 -417z" />
<glyph unicode="d" horiz-adv-x="1175" d="M688 336v493q-88 33 -137 33q-74 0 -112 -59.5t-38 -237.5q0 -141 40 -218t102 -77q69 0 145 66zM958 -29q-80 0 -139 41t-69 121q-154 -162 -320 -162q-156 0 -263.5 144.5t-107.5 427.5q0 287 107.5 435t292.5 148q119 0 229 -53v422l328 41v-1227q0 -66 55 -65 q47 0 115 41l14 -226q-88 -88 -242 -88z" />
<glyph unicode="e" horiz-adv-x="1021" d="M952 455h-549q8 -123 61.5 -175.5t149.5 -52.5q141 0 295 103l29 -244q-74 -39 -119 -59.5t-121.5 -38t-162.5 -17.5q-223 0 -349.5 138.5t-126.5 431.5q0 586 476 585q418 0 417 -479v-192zM403 657h242q0 113 -25.5 159t-93 46t-93.5 -48t-30 -157z" />
<glyph unicode="f" horiz-adv-x="675" d="M25 1096h135v71q0 209 120.5 310.5t323.5 101.5q152 0 268 -41l-55 -260q-100 35 -180 35q-66 0 -107 -34t-41 -99v-84h261l-35 -254h-226v-938q0 -170 -89 -254t-236 -84q-119 0 -240 55l33 258q76 -27 113 -26q90 0 90 100v889h-135v254z" />
<glyph unicode="g" horiz-adv-x="1015" d="M666 -199q0 29 -16.5 48.5t-51.5 29.5t-63.5 15.5t-84 10.5t-81.5 9q-88 -39 -88 -111q0 -100 186 -100q82 0 140.5 26.5t58.5 71.5zM506 1126q74 0 166 -30h358v-265l-129 17q23 -59 23 -141q0 -188 -116 -306t-304 -118q-43 0 -82 10q-53 -33 -53 -68q0 -27 64.5 -38 t156.5 -20t184 -31.5t156.5 -90.5t64.5 -176q0 -188 -149.5 -290.5t-384.5 -102.5q-238 0 -358.5 78.5t-120.5 209.5q0 152 165 226q-90 63 -90 174q0 127 158 225q-135 113 -135 320q0 190 115.5 303.5t310.5 113.5zM504 893q-63 0 -95 -41t-32 -143q0 -190 127 -191 q123 0 123 189q0 106 -31 146t-92 40z" />
<glyph unicode="h" horiz-adv-x="1169" d="M125 1495l330 41v-502q137 92 290 92q319 0 320 -346v-780h-330v678q0 123 -135 123q-63 0 -145 -33v-768h-330v1495z" />
<glyph unicode="i" horiz-adv-x="579" d="M125 1096h330v-1096h-330v1096zM125 1516h330v-289h-330v289z" />
<glyph unicode="j" horiz-adv-x="579" d="M455 1096v-1215q0 -160 -92.5 -237.5t-233.5 -77.5q-117 0 -240 53l31 260q68 -27 115 -26q90 0 90 100v1143h330zM125 1516h330v-289h-330v289z" />
<glyph unicode="k" horiz-adv-x="1060" d="M455 317v-317h-330v1495l330 41v-823l290 383h338l-305 -443l346 -653h-374l-215 416z" />
<glyph unicode="l" horiz-adv-x="620" d="M121 1495l330 41v-1184q0 -82 77 -82q49 0 101 25l8 -266q-102 -57 -234 -58q-283 0 -282 353v1171z" />
<glyph unicode="m" horiz-adv-x="1751" d="M387 1096v-119q158 150 348.5 149.5t263.5 -125.5q162 125 330 125q315 0 316 -348v-778h-330v678q0 123 -125 123q-74 0 -143 -33q4 -37 4 -55v-713h-332v608q0 41 -1 63.5t-7 51.5t-19.5 43t-38 24.5t-59.5 10.5q-66 0 -139 -33v-768h-330v1096h262z" />
<glyph unicode="n" horiz-adv-x="1171" d="M387 1096v-119q158 150 358 149q319 0 320 -348v-778h-330v678q0 123 -135 123q-59 0 -145 -33v-768h-330v1096h262z" />
<glyph unicode="o" horiz-adv-x="1112" d="M557 1126q248 0 371 -140t123 -441q0 -289 -128 -431.5t-366 -142.5q-496 0 -496 576q0 579 496 579zM557 862q-84 0 -122 -69.5t-38 -245.5q0 -174 39 -247t121 -73t120 72t38 246q0 178 -37 247.5t-121 69.5z" />
<glyph unicode="p" horiz-adv-x="1163" d="M633 -29q-92 0 -178 31v-416l-330 -57v1567h262v-119q150 150 344 149q176 0 273.5 -122.5t97.5 -436.5q0 -596 -469 -596zM455 801v-529q68 -33 135 -32q78 0 121 70.5t43 256.5q0 166 -40 216.5t-120 50.5q-61 0 -139 -33z" />
<glyph unicode="q" horiz-adv-x="1118" d="M688 -471v528q-125 -86 -237 -86q-174 0 -283 133.5t-109 438.5q0 285 114 434t300 149q57 0 114.5 -19.5t88.5 -38.5t80 -54v82h258v-1510zM688 305v486q-76 45 -131 45q-156 0 -156 -299q0 -295 136 -295q77 0 151 63z" />
<glyph unicode="r" horiz-adv-x="892" d="M125 1096h262v-133q135 164 301 163q59 0 102.5 -24.5t65 -58t33.5 -90t15 -101.5t3 -111l-286 -18q-4 86 -58 86q-57 0 -108 -66v-743h-330v1096z" />
<glyph unicode="s" horiz-adv-x="915" d="M860 786l-260 -49q-10 139 -121 140q-92 0 -92 -78q0 -41 48 -77t118 -66.5t139.5 -70.5t117.5 -109.5t48 -160.5q0 -152 -104.5 -248t-300.5 -96q-238 0 -416 148l94 233q162 -125 307 -125q96 0 97 72q0 37 -72 80t-157 82t-156.5 123t-71.5 194q0 152 104.5 250 t290.5 98q184 0 279.5 -96.5t107.5 -243.5z" />
<glyph unicode="t" horiz-adv-x="770" d="M166 1274l319 92v-270h265l-37 -256h-228v-473q0 -96 90 -97q68 0 154 45l57 -237q-57 -35 -93 -53.5t-102.5 -37t-139.5 -18.5q-131 0 -213 75t-82 214v582h-148v256h158v178z" />
<glyph unicode="u" horiz-adv-x="1097" d="M561 -29q-193 0 -320.5 106.5t-127.5 295.5v723h329v-738q0 -131 117 -131t117 131v738h330v-723q0 -188 -127.5 -295t-317.5 -107z" />
<glyph unicode="v" horiz-adv-x="1026" d="M-10 1096h350l192 -752l177 752h325l-332 -1096h-372z" />
<glyph unicode="w" horiz-adv-x="1599" d="M641 1096h360l162 -707l119 707h326l-287 -1096h-358l-158 721l-166 -721h-350l-299 1096h350l133 -707z" />
<glyph unicode="x" horiz-adv-x="1013" d="M-2 1096h348l166 -332l176 332h342l-332 -535l314 -561h-359l-170 326l-178 -326h-323l315 545z" />
<glyph unicode="y" horiz-adv-x="1026" d="M1034 1096l-348 -1035q-88 -264 -207 -384.5t-321 -120.5q-137 0 -269 59l78 264q74 -43 170 -43q88 0 129 44t96 179l-391 1037h346l203 -664l195 664h319z" />
<glyph unicode="z" horiz-adv-x="964" d="M68 1098h839v-211l-440 -629h446v-258h-854v199l439 639h-430v260z" />
<glyph unicode="{" horiz-adv-x="739" d="M27 666q82 0 124 25.5t42 90.5v449q0 332 323 332q129 0 217 -41l-49 -238q-57 25 -113 25q-88 0 -88 -88v-478q0 -72 -38.5 -130t-108.5 -81q70 -20 108.5 -78.5t38.5 -129.5v-480q0 -86 88 -86q57 0 113 25l49 -240q-98 -41 -203 -41q-143 0 -240 79t-97 237v467 q0 66 -42 89t-124 23v269z" />
<glyph unicode="|" horiz-adv-x="577" d="M141 1536h295v-2007h-295v2007z" />
<glyph unicode="}" horiz-adv-x="739" d="M713 666v-269q-82 0 -124 -23.5t-42 -88.5v-467q0 -158 -97.5 -237t-240.5 -79q-104 0 -203 41l49 240q55 -25 113 -25q88 0 88 86v480q0 72 39 130t108 78q-70 23 -108.5 81.5t-38.5 129.5v478q0 88 -88 88q-55 0 -113 -25l-49 238q88 41 217 41q324 0 324 -332v-449 q0 -66 42 -91t124 -25z" />
<glyph unicode="~" d="M285 498l-236 82q84 274 320 274q72 0 191.5 -36t144.5 -36q66 0 92 90l235 -79q-84 -274 -327 -275q-55 0 -169 35t-159 35q-69 0 -92 -90z" />
<glyph unicode="&#xa1;" horiz-adv-x="634" d="M496 -338h-359l27 977h305zM483 768h-333v328h333v-328z" />
<glyph unicode="&#xa2;" d="M985 848l-293 -27q-4 180 -114 180q-80 0 -115 -64.5t-35 -250.5q0 -170 56.5 -234.5t154.5 -64.5q76 0 166 28.5t147 67.5l31 -258q-170 -96 -311 -110v-295h-244v305q-340 78 -340 567q0 260 84 392.5t256 166.5v285h244v-279q313 -38 313 -409z" />
<glyph unicode="&#xa3;" d="M1061 1049l-293 -50q0 78 -36 121t-101 43q-139 0 -139 -147q0 -78 14 -201h409v-233h-389l9 -119q0 -109 -74 -184h575v-279h-983v225q166 82 166 217q0 41 -12 140h-193v233h174q-12 170 -12 209q0 190 106.5 314t340.5 124q225 0 331.5 -114.5t106.5 -298.5z" />
<glyph unicode="&#xa4;" d="M946 682q0 -106 -47 -193l170 -172l-160 -159l-168 170q-86 -51 -198.5 -51.5t-198.5 51.5l-168 -170l-160 159l172 170q-49 84 -49 195q0 113 49 197l-172 170l160 157l168 -168q90 51 198.5 51.5t198.5 -51.5l168 168l160 -157l-170 -170q47 -86 47 -197zM700 681.5 q0 63.5 -47 112t-110.5 48.5t-110.5 -48.5t-47 -112t47 -111.5t110.5 -48t110.5 48t47 111.5z" />
<glyph unicode="&#xa5;" d="M545 932l219 502h342l-303 -619h215v-233h-313v-582h-324v582h-326v233h226l-299 619h348z" />
<glyph unicode="&#xa6;" horiz-adv-x="577" d="M141 1536h295v-803h-295v803zM141 332h295v-803h-295v803z" />
<glyph unicode="&#xa7;" horiz-adv-x="1112" d="M1051 1065l-312 -39q-8 170 -137 170q-51 0 -84 -25.5t-33 -76.5q0 -53 59.5 -100.5t144.5 -88.5t170 -88t144.5 -124t59.5 -173q0 -166 -100 -254q18 -47 18 -82q0 -193 -127 -292t-348 -99q-254 0 -445 184l129 252q160 -166 312 -166q51 0 86 24t35 67 q0 41 -58.5 80.5t-141.5 80.5t-166 91.5t-141.5 137.5t-58.5 195q0 156 101 244q-18 43 -19 94q0 180 124 282.5t323 102.5q123 0 215 -35.5t142 -96t76 -126t32 -139.5zM340 825q-23 -27 -23 -77q0 -55 62.5 -100.5t190.5 -109t204 -116.5q16 29 17 67q0 55 -66 97.5 t-185.5 104.5t-199.5 134z" />
<glyph unicode="&#xa8;" horiz-adv-x="1024" d="M209 1507h248v-264h-248v264zM567 1507h248v-264h-248v264z" />
<glyph unicode="&#xa9;" horiz-adv-x="1546" d="M1090 864q-135 -25 -201 -35q-10 131 -107 132q-74 0 -109.5 -54.5t-35.5 -191.5q0 -127 51 -188.5t139 -61.5q98 0 209 74l56 -170q-135 -98 -297 -99q-174 0 -279.5 113t-105.5 332q0 449 376 448q139 0 220.5 -89t83.5 -210zM63 717q0 309 207 527t502 218t502 -218 t207 -527t-207 -527.5t-502 -218.5t-502 218.5t-207 527.5zM197 717q0 -252 167.5 -429t407.5 -177q238 0 407 177t169 429q0 250 -169 427t-407 177q-240 0 -407.5 -177t-167.5 -427z" />
<glyph unicode="&#xaa;" horiz-adv-x="847" d="M473 905v111q-164 -4 -164 -84q0 -61 70 -62q47 0 94 35zM473 1157v51q0 76 -76 76q-78 0 -78 -88l-217 18q6 121 92.5 184.5t221.5 63.5q154 0 230.5 -62.5t76.5 -170.5v-314q0 -41 37 -41q33 0 84 31l12 -160q-66 -61 -180 -61q-51 0 -97.5 26.5t-58.5 75.5 q-100 -102 -233 -102q-94 0 -153.5 53.5t-59.5 159.5q0 135 111.5 197.5t287.5 62.5z" />
<glyph unicode="&#xab;" horiz-adv-x="1284" d="M1262 127h-322l-352 483l352 488h322l-320 -488zM696 127h-321l-352 483l352 488h321l-319 -488z" />
<glyph unicode="&#xac;" d="M104 819h877v-577h-276v301h-601v276z" />
<glyph unicode="&#xad;" horiz-adv-x="829" d="M709 819v-276h-588v276h588z" />
<glyph unicode="&#xae;" horiz-adv-x="1079" d="M768 1042q0 -117 -80 -159l109 -217h-166l-88 182h-41v-182h-164v544h197q233 0 233 -168zM502 1087v-110q8 -2 30 -2q66 0 66 61q0 51 -63 51h-33zM1040 940q0 -223 -144 -372.5t-357 -149.5t-357.5 149.5t-144.5 372.5t144.5 372.5t357.5 149.5t357 -149.5t144 -372.5z M918 940q0 172 -108 285.5t-271.5 113.5t-271 -113.5t-107.5 -285.5t107.5 -285.5t271 -113.5t271.5 113.5t108 285.5z" />
<glyph unicode="&#xaf;" horiz-adv-x="1024" d="M797 1264h-592v221h592v-221z" />
<glyph unicode="&#xb0;" horiz-adv-x="655" d="M53 1188q0 115 80 194.5t192.5 79.5t193.5 -79.5t81 -194.5q0 -113 -80 -193t-194 -80q-113 0 -193 79t-80 194zM227 1188q0 -41 30 -69.5t69 -28.5q41 0 70.5 28.5t29.5 69.5t-29.5 70.5t-70.5 29.5t-70 -29.5t-29 -70.5z" />
<glyph unicode="&#xb1;" d="M981 274v-274h-877v274h877zM403 1126h277v-241h301v-277h-301v-248h-277v248h-299v277h299v241z" />
<glyph unicode="&#xb2;" horiz-adv-x="655" d="M586 1231q0 -125 -111 -240l-121 -125h248v-202h-559v155l262 289q53 57 53 96q0 68 -65 68q-63 0 -74 -80l-199 45q18 100 90 162.5t195 62.5q131 0 206 -60t75 -171z" />
<glyph unicode="&#xb3;" horiz-adv-x="655" d="M594 1237q0 -49 -27.5 -92t-79.5 -66q127 -35 127 -184q0 -117 -79.5 -176.5t-210.5 -59.5q-190 0 -293 103l96 160q72 -78 170 -78q78 0 78 63q0 66 -78 66h-86v166h88q31 0 49.5 19.5t18.5 47.5q0 66 -65.5 66t-76.5 -80l-198 47q18 100 88.5 161.5t195.5 61.5 q133 0 208 -59.5t75 -165.5z" />
<glyph unicode="&#xb4;" horiz-adv-x="1024" d="M492 1536h321l-242 -324h-264z" />
<glyph unicode="&#xb5;" horiz-adv-x="1128" d="M1036 352q0 -176 -91 -278.5t-253 -102.5t-241 74v-459l-330 -57v1569h330v-709q0 -143 129 -143q127 0 127 143v709h329v-746z" />
<glyph unicode="&#x3bc;" horiz-adv-x="1128" d="M1036 352q0 -176 -91 -278.5t-253 -102.5t-241 74v-459l-330 -57v1569h330v-709q0 -143 129 -143q127 0 127 143v709h329v-746z" />
<glyph unicode="&#xb6;" horiz-adv-x="1478" d="M1335 1434v-1643h-239v1364h-199v-1364h-240v666q-35 -8 -104 -8q-504 0 -504 509q0 248 124 362t402 114h760zM657 729v426h-82q-113 0 -157.5 -45t-44.5 -174q0 -121 52 -166t165 -45q34 0 67 4z" />
<glyph unicode="&#xb7;" horiz-adv-x="493" d="M80 846h334v-328h-334v328z" />
<glyph unicode="&#xb8;" horiz-adv-x="1024" d="M408 0h258q55 -68 55 -174.5t-77 -176t-195 -69.5q-94 0 -174 38t-119 101l129 138q45 -55 102 -56q70 0 70 74q0 55 -49 125z" />
<glyph unicode="&#xb9;" horiz-adv-x="655" d="M74 664v204h159v314l-159 -78v213l231 117h176v-566h144v-204h-551z" />
<glyph unicode="&#xba;" horiz-adv-x="847" d="M422 1462q182 0 274 -95t92 -298q0 -389 -366 -389q-365 0 -365 391t365 391zM422 1286q-111 0 -111 -215q0 -115 28 -163t83 -48q57 0 85 47t28 162q0 117 -28 167t-85 50z" />
<glyph unicode="&#xbb;" horiz-adv-x="1284" d="M909 127h-321l319 483l-319 488h321l353 -488zM344 127h-321l319 483l-319 488h321l352 -488z" />
<glyph unicode="&#xbc;" horiz-adv-x="1650" d="M942 133v164l258 471h318v-451h75v-184h-75v-133h-232v133h-344zM1286 541l-127 -224h127v224zM1159 1434h252l-913 -1434h-250zM59 664v204h160v314l-160 -78v213l232 117h176v-566h143v-204h-551z" />
<glyph unicode="&#xbd;" horiz-adv-x="1650" d="M1159 1434h252l-913 -1434h-250zM59 664v204h160v314l-160 -78v213l232 117h176v-566h143v-204h-551zM1559 567q0 -119 -111 -239l-121 -125h248v-203h-559v156l262 288q53 57 53 97q0 68 -65 67q-63 0 -74 -80l-199 45q18 100 90 163t195 63q131 0 206 -60.5t75 -171.5z " />
<glyph unicode="&#xbe;" horiz-adv-x="1650" d="M942 133v164l258 471h318v-451h75v-184h-75v-133h-232v133h-344zM1286 541l-127 -224h127v224zM1159 1434h252l-913 -1434h-250zM590 1237q0 -49 -27.5 -92t-79.5 -66q127 -35 127 -184q0 -117 -79.5 -176.5t-211.5 -59.5q-190 0 -292 103l96 160q72 -78 170 -78 q78 0 78 63q0 66 -78 66h-86v166h88q31 0 49 19.5t18 47.5q0 66 -65.5 66t-75.5 -80l-198 47q18 100 88.5 161.5t195.5 61.5q133 0 208 -59.5t75 -165.5z" />
<glyph unicode="&#xbf;" horiz-adv-x="970" d="M352 639h314q-2 -170 -39 -243.5t-164 -190.5q-90 -82 -90 -168q0 -43 29.5 -73t84.5 -30q63 0 99.5 43t38.5 105q51 -8 155 -29l156 -30q-8 -178 -125 -284t-342 -106q-203 0 -318.5 107.5t-115.5 275.5q0 111 44 187t134 166l31 30q20 20 28.5 27.5t22.5 24t18 24.5 t13.5 23.5t12.5 27.5l7 30q4 17 5 37.5t1 45.5zM676 768h-334v328h334v-328z" />
<glyph unicode="&#xc0;" horiz-adv-x="1167" d="M854 0l-72 264h-442l-72 -264h-293l416 1434h387l414 -1434h-338zM559 1096l-149 -559h301zM205 1868h319l185 -324h-263z" />
<glyph unicode="&#xc1;" horiz-adv-x="1167" d="M854 0l-72 264h-442l-72 -264h-293l416 1434h387l414 -1434h-338zM559 1096l-149 -559h301zM635 1868h321l-241 -324h-264z" />
<glyph unicode="&#xc2;" horiz-adv-x="1167" d="M854 0l-72 264h-442l-72 -264h-293l416 1434h387l414 -1434h-338zM559 1096l-149 -559h301zM440 1868h283l211 -324h-252l-100 146l-101 -146h-252z" />
<glyph unicode="&#xc3;" horiz-adv-x="1167" d="M854 0l-72 264h-442l-72 -264h-293l416 1434h387l414 -1434h-338zM559 1096l-149 -559h301zM424 1554l-193 70q45 217 209 217q47 0 128 -30.5t102 -30.5q29 0 41 15t24 63l195 -72q-61 -225 -232 -225q-37 0 -112.5 31.5t-100.5 31.5q-27 0 -37 -14.5t-24 -55.5z" />
<glyph unicode="&#xc4;" horiz-adv-x="1167" d="M854 0l-72 264h-442l-72 -264h-293l416 1434h387l414 -1434h-338zM559 1096l-149 -559h301zM276 1837h248v-264h-248v264zM635 1837h248v-264h-248v264z" />
<glyph unicode="&#xc5;" horiz-adv-x="1167" d="M854 0l-72 264h-442l-72 -264h-293l416 1434h387l414 -1434h-338zM559 1096l-149 -559h301zM811 1704q0 -86 -64.5 -142.5t-167 -56.5t-167 56.5t-64.5 142.5t64.5 142.5t167 56.5t167 -56.5t64.5 -142.5zM647 1703.5q0 65.5 -67 65.5q-70 0 -70 -65.5t70 -65.5 q67 0 67 65.5z" />
<glyph unicode="&#xc6;" horiz-adv-x="1714" d="M674 1434h932v-293h-500v-283h475v-278h-475v-287h528v-293h-854v264h-395l-129 -264h-338zM780 1073l-262 -536h262v536z" />
<glyph unicode="&#xc7;" horiz-adv-x="1161" d="M1116 979l-315 -27q-6 211 -168 211q-131 0 -186.5 -100t-55.5 -336q0 -258 83 -357.5t235 -99.5q166 0 352 103l35 -281q-156 -90 -299 -110q43 -63 43 -156q0 -106 -77 -176t-196 -70q-94 0 -174 38t-119 101l129 138q45 -55 103 -56q70 0 69 74q0 49 -36 107 q-481 70 -482 745q0 381 144.5 558t433.5 177q227 0 353 -120.5t128 -362.5z" />
<glyph unicode="&#xc8;" horiz-adv-x="1075" d="M141 1434h826v-293h-500v-285h475v-276h-475v-287h528v-293h-854v1434zM205 1868h319l185 -324h-263z" />
<glyph unicode="&#xc9;" horiz-adv-x="1075" d="M141 1434h826v-293h-500v-285h475v-276h-475v-287h528v-293h-854v1434zM590 1868h321l-241 -324h-264z" />
<glyph unicode="&#xca;" horiz-adv-x="1075" d="M141 1434h826v-293h-500v-285h475v-276h-475v-287h528v-293h-854v1434zM412 1868h282l211 -324h-252l-100 146l-100 -146h-252z" />
<glyph unicode="&#xcb;" horiz-adv-x="1075" d="M141 1434h826v-293h-500v-285h475v-276h-475v-287h528v-293h-854v1434zM250 1837h248v-264h-248v264zM608 1837h248v-264h-248v264z" />
<glyph unicode="&#xcc;" horiz-adv-x="608" d="M141 1434h326v-1434h-326v1434zM-66 1868h320l184 -324h-262z" />
<glyph unicode="&#xcd;" horiz-adv-x="608" d="M141 1434h326v-1434h-326v1434zM354 1868h322l-242 -324h-264z" />
<glyph unicode="&#xce;" horiz-adv-x="608" d="M141 1434h326v-1434h-326v1434zM164 1868h282l211 -324h-251l-101 146l-100 -146h-252z" />
<glyph unicode="&#xcf;" horiz-adv-x="608" d="M141 1434h326v-1434h-326v1434zM0 1837h248v-264h-248v264zM358 1837h248v-264h-248v264z" />
<glyph unicode="&#xd0;" horiz-adv-x="1316" d="M141 1434h531q293 0 440.5 -170t147.5 -527q0 -383 -152 -560t-442 -177h-525v582h-137v274h137v578zM467 1141v-285h252v-274h-252v-289h188q94 0 148.5 30.5t88.5 130t34 279.5q0 240 -64.5 324t-206.5 84h-188z" />
<glyph unicode="&#xd1;" horiz-adv-x="1423" d="M141 1434h332l490 -869v869h319v-1434h-332l-491 850v-850h-318v1434zM539 1552l-193 70q45 217 209 217q47 0 128 -30.5t101 -30.5q29 0 41.5 15t24.5 62l194 -71q-61 -225 -231 -225q-37 0 -112.5 31.5t-100.5 31.5q-27 0 -37 -14.5t-24 -55.5z" />
<glyph unicode="&#xd2;" horiz-adv-x="1275" d="M637 1462q266 0 424 -178t158 -569q0 -389 -159 -566.5t-425 -177.5q-262 0 -420 177.5t-158 566.5t158 568t422 179zM637 1163q-121 0 -187.5 -98t-66.5 -348q0 -248 67.5 -347.5t186.5 -99.5t178 97.5t59 349.5t-59 349t-178 97zM270 1868h320l184 -324h-262z" />
<glyph unicode="&#xd3;" horiz-adv-x="1275" d="M637 1462q266 0 424 -178t158 -569q0 -389 -159 -566.5t-425 -177.5q-262 0 -420 177.5t-158 566.5t158 568t422 179zM637 1163q-121 0 -187.5 -98t-66.5 -348q0 -248 67.5 -347.5t186.5 -99.5t178 97.5t59 349.5t-59 349t-178 97zM680 1868h321l-241 -324h-264z" />
<glyph unicode="&#xd4;" horiz-adv-x="1275" d="M637 1462q266 0 424 -178t158 -569q0 -389 -159 -566.5t-425 -177.5q-262 0 -420 177.5t-158 566.5t158 568t422 179zM637 1163q-121 0 -187.5 -98t-66.5 -348q0 -248 67.5 -347.5t186.5 -99.5t178 97.5t59 349.5t-59 349t-178 97zM498 1868h282l211 -324h-252l-100 146 l-100 -146h-252z" />
<glyph unicode="&#xd5;" horiz-adv-x="1275" d="M637 1462q266 0 424 -178t158 -569q0 -389 -159 -566.5t-425 -177.5q-262 0 -420 177.5t-158 566.5t158 568t422 179zM637 1163q-121 0 -187.5 -98t-66.5 -348q0 -248 67.5 -347.5t186.5 -99.5t178 97.5t59 349.5t-59 349t-178 97zM481 1552l-192 70q45 217 209 217 q47 0 128 -30.5t101 -30.5q29 0 41 15t25 62l194 -71q-61 -225 -231 -225q-37 0 -113 31.5t-100 31.5q-27 0 -37.5 -14.5t-24.5 -55.5z" />
<glyph unicode="&#xd6;" horiz-adv-x="1275" d="M637 1462q266 0 424 -178t158 -569q0 -389 -159 -566.5t-425 -177.5q-262 0 -420 177.5t-158 566.5t158 568t422 179zM637 1163q-121 0 -187.5 -98t-66.5 -348q0 -248 67.5 -347.5t186.5 -99.5t178 97.5t59 349.5t-59 349t-178 97zM334 1837h248v-264h-248v264zM692 1837 h248v-264h-248v264z" />
<glyph unicode="&#xd7;" d="M543 483l-285 -284l-197 196l285 285l-285 285l197 196l285 -284l284 284l197 -196l-285 -285l285 -285l-197 -196z" />
<glyph unicode="&#xd8;" horiz-adv-x="1275" d="M1053 1507l125 -73l-107 -166q147 -195 148 -553q0 -389 -159 -566.5t-425 -177.5q-197 0 -330 92l-92 -141q-29 20 -121 78l107 170q-141 182 -142 543q0 391 158 570t422 179q195 0 328 -92zM860 928l-383 -594q57 -63 158 -64q119 0 179 97.5t60 349.5q0 133 -14 211z M793 1098q-53 66 -158 65q-119 0 -185.5 -99t-66.5 -349q0 -125 23 -223z" />
<glyph unicode="&#xd9;" horiz-adv-x="1347" d="M129 1434h326v-930q0 -233 219 -234q113 0 166 56.5t53 177.5v930h326v-926q0 -250 -133.5 -393.5t-411.5 -143.5q-274 0 -409.5 143.5t-135.5 393.5v926zM307 1868h320l184 -324h-262z" />
<glyph unicode="&#xda;" horiz-adv-x="1347" d="M129 1434h326v-930q0 -233 219 -234q113 0 166 56.5t53 177.5v930h326v-926q0 -250 -133.5 -393.5t-411.5 -143.5q-274 0 -409.5 143.5t-135.5 393.5v926zM719 1868h321l-241 -324h-264z" />
<glyph unicode="&#xdb;" horiz-adv-x="1347" d="M129 1434h326v-930q0 -233 219 -234q113 0 166 56.5t53 177.5v930h326v-926q0 -250 -133.5 -393.5t-411.5 -143.5q-274 0 -409.5 143.5t-135.5 393.5v926zM532 1868h283l211 -324h-252l-100 146l-101 -146h-251z" />
<glyph unicode="&#xdc;" horiz-adv-x="1347" d="M129 1434h326v-930q0 -233 219 -234q113 0 166 56.5t53 177.5v930h326v-926q0 -250 -133.5 -393.5t-411.5 -143.5q-274 0 -409.5 143.5t-135.5 393.5v926zM371 1837h247v-264h-247v264zM729 1837h248v-264h-248v264z" />
<glyph unicode="&#xdd;" horiz-adv-x="1138" d="M573 858l238 576h350l-428 -932v-502h-325v502l-431 932h361zM616 1890h322l-242 -323h-264z" />
<glyph unicode="&#xde;" horiz-adv-x="1161" d="M141 1434h326v-195h98q289 0 407 -101.5t118 -373.5q0 -510 -502 -510q-70 0 -121 10v-264h-326v1434zM467 963v-424q41 -8 84 -9q111 0 164 45.5t53 165.5q0 129 -45 175.5t-158 46.5h-98z" />
<glyph unicode="&#xdf;" horiz-adv-x="1185" d="M1069 1223q0 -76 -23.5 -140.5t-51 -101.5t-51 -82t-23.5 -88q0 -37 27.5 -73t66.5 -71.5t76.5 -77.5t65.5 -110.5t28 -152.5q0 -156 -92.5 -255.5t-264.5 -99.5q-197 0 -311 103l111 233q68 -61 137 -61q92 0 92 88q0 33 -25.5 63.5t-62.5 61t-74 67.5t-62.5 99.5 t-25.5 142.5q0 90 69.5 210t69.5 183q0 53 -37.5 88t-101.5 35q-70 0 -112.5 -42t-42.5 -114v-1128h-330v1155q0 211 132 319.5t341 108.5q211 0 343 -91t132 -269z" />
<glyph unicode="&#xe0;" horiz-adv-x="1058" d="M602 295v176q-102 -2 -169.5 -35t-67.5 -100q0 -98 100 -98q63 0 137 57zM602 674v74q0 115 -106 114q-115 0 -115 -125l-289 25q8 176 125 270t297 94q207 0 312.5 -93t105.5 -251v-473q0 -66 55 -65q47 0 115 41l14 -226q-90 -90 -242 -90q-72 0 -136 40t-74 118 q-119 -158 -326 -158q-127 0 -206 79t-79 233q0 190 144.5 288.5t404.5 104.5zM137 1536h320l184 -324h-262z" />
<glyph unicode="&#xe1;" horiz-adv-x="1058" d="M602 295v176q-102 -2 -169.5 -35t-67.5 -100q0 -98 100 -98q63 0 137 57zM602 674v74q0 115 -106 114q-115 0 -115 -125l-289 25q8 176 125 270t297 94q207 0 312.5 -93t105.5 -251v-473q0 -66 55 -65q47 0 115 41l14 -226q-90 -90 -242 -90q-72 0 -136 40t-74 118 q-119 -158 -326 -158q-127 0 -206 79t-79 233q0 190 144.5 288.5t404.5 104.5zM573 1536h322l-242 -324h-264z" />
<glyph unicode="&#xe2;" horiz-adv-x="1058" d="M602 295v176q-102 -2 -169.5 -35t-67.5 -100q0 -98 100 -98q63 0 137 57zM602 674v74q0 115 -106 114q-115 0 -115 -125l-289 25q8 176 125 270t297 94q207 0 312.5 -93t105.5 -251v-473q0 -66 55 -65q47 0 115 41l14 -226q-90 -90 -242 -90q-72 0 -136 40t-74 118 q-119 -158 -326 -158q-127 0 -206 79t-79 233q0 190 144.5 288.5t404.5 104.5zM371 1536h282l211 -324h-252l-100 146l-100 -146h-252z" />
<glyph unicode="&#xe3;" horiz-adv-x="1058" d="M602 295v176q-102 -2 -169.5 -35t-67.5 -100q0 -98 100 -98q63 0 137 57zM602 674v74q0 115 -106 114q-115 0 -115 -125l-289 25q8 176 125 270t297 94q207 0 312.5 -93t105.5 -251v-473q0 -66 55 -65q47 0 115 41l14 -226q-90 -90 -242 -90q-72 0 -136 40t-74 118 q-119 -158 -326 -158q-127 0 -206 79t-79 233q0 190 144.5 288.5t404.5 104.5zM356 1223l-192 69q45 217 209 217q47 0 128 -30.5t101 -30.5q29 0 41 15.5t25 62.5l194 -72q-61 -225 -231 -225q-37 0 -113 31.5t-100 31.5q-27 0 -37.5 -14t-24.5 -55z" />
<glyph unicode="&#xe4;" horiz-adv-x="1058" d="M602 295v176q-102 -2 -169.5 -35t-67.5 -100q0 -98 100 -98q63 0 137 57zM602 674v74q0 115 -106 114q-115 0 -115 -125l-289 25q8 176 125 270t297 94q207 0 312.5 -93t105.5 -251v-473q0 -66 55 -65q47 0 115 41l14 -226q-90 -90 -242 -90q-72 0 -136 40t-74 118 q-119 -158 -326 -158q-127 0 -206 79t-79 233q0 190 144.5 288.5t404.5 104.5zM209 1507h248v-264h-248v264zM567 1507h248v-264h-248v264z" />
<glyph unicode="&#xe5;" horiz-adv-x="1058" d="M602 295v176q-102 -2 -169.5 -35t-67.5 -100q0 -98 100 -98q63 0 137 57zM602 674v74q0 115 -106 114q-115 0 -115 -125l-289 25q8 176 125 270t297 94q207 0 312.5 -93t105.5 -251v-473q0 -66 55 -65q47 0 115 41l14 -226q-90 -90 -242 -90q-72 0 -136 40t-74 118 q-119 -158 -326 -158q-127 0 -206 79t-79 233q0 190 144.5 288.5t404.5 104.5zM743 1374q0 -86 -64.5 -142t-166.5 -56t-166.5 56t-64.5 142t64.5 142.5t166.5 56.5t166.5 -56.5t64.5 -142.5zM580 1374.5q0 65.5 -68 65.5q-70 0 -70 -65.5t70 -65.5q68 0 68 65.5z" />
<glyph unicode="&#xe6;" horiz-adv-x="1515" d="M1446 455h-549q16 -225 205 -226q156 0 301 101l27 -244q-72 -39 -118 -59.5t-122 -38t-162 -17.5q-236 0 -334 146q-125 -145 -319 -146q-143 0 -232.5 74t-89.5 236q0 190 144.5 288.5t404.5 104.5v74q0 115 -108 114q-113 0 -113 -127l-289 27q8 176 125 270t297 94 q176 0 256 -79q86 80 258 79q418 0 418 -479v-192zM600 471q-102 -2 -168.5 -36t-66.5 -101q0 -45 26.5 -70.5t73.5 -25.5q80 0 153 73q-16 74 -18 160zM897 657h242q0 113 -26 159t-95 46q-66 0 -91.5 -48t-29.5 -157z" />
<glyph unicode="&#xe7;" horiz-adv-x="987" d="M940 709l-291 -25q-4 178 -112 178q-76 0 -106 -62.5t-30 -250.5q0 -172 49.5 -238.5t147.5 -66.5q78 0 165 23.5t144 60.5l31 -240q-150 -84 -254 -104q43 -68 43 -158q0 -106 -76 -176t-194 -70q-94 0 -174 38t-119 101l127 138q45 -55 102 -56q72 0 72 74 q0 41 -37 105q-369 53 -369 573q0 315 115 444t367 129q399 1 399 -417z" />
<glyph unicode="&#xe8;" horiz-adv-x="1021" d="M952 455h-549q8 -123 61.5 -175.5t149.5 -52.5q141 0 295 103l29 -244q-74 -39 -119 -59.5t-121.5 -38t-162.5 -17.5q-223 0 -349.5 138.5t-126.5 431.5q0 586 476 585q418 0 417 -479v-192zM403 657h242q0 113 -25.5 159t-93 46t-93.5 -48t-30 -157zM172 1536h320 l184 -324h-262z" />
<glyph unicode="&#xe9;" horiz-adv-x="1021" d="M952 455h-549q8 -123 61.5 -175.5t149.5 -52.5q141 0 295 103l29 -244q-74 -39 -119 -59.5t-121.5 -38t-162.5 -17.5q-223 0 -349.5 138.5t-126.5 431.5q0 586 476 585q418 0 417 -479v-192zM403 657h242q0 113 -25.5 159t-93 46t-93.5 -48t-30 -157zM569 1536h322 l-242 -324h-264z" />
<glyph unicode="&#xea;" horiz-adv-x="1021" d="M952 455h-549q8 -123 61.5 -175.5t149.5 -52.5q141 0 295 103l29 -244q-74 -39 -119 -59.5t-121.5 -38t-162.5 -17.5q-223 0 -349.5 138.5t-126.5 431.5q0 586 476 585q418 0 417 -479v-192zM403 657h242q0 113 -25.5 159t-93 46t-93.5 -48t-30 -157zM379 1536h283 l210 -324h-251l-101 146l-100 -146h-252z" />
<glyph unicode="&#xeb;" horiz-adv-x="1021" d="M952 455h-549q8 -123 61.5 -175.5t149.5 -52.5q141 0 295 103l29 -244q-74 -39 -119 -59.5t-121.5 -38t-162.5 -17.5q-223 0 -349.5 138.5t-126.5 431.5q0 586 476 585q418 0 417 -479v-192zM403 657h242q0 113 -25.5 159t-93 46t-93.5 -48t-30 -157zM217 1507h248v-264 h-248v264zM575 1507h248v-264h-248v264z" />
<glyph unicode="&#xec;" horiz-adv-x="579" d="M-76 1536h320l184 -324h-262zM125 1096h330v-1096h-330v1096z" />
<glyph unicode="&#xed;" horiz-adv-x="579" d="M340 1536h322l-242 -324h-264zM125 1096h330v-1096h-330v1096z" />
<glyph unicode="&#xee;" horiz-adv-x="579" d="M125 1096h330v-1096h-330v1096zM150 1536h282l211 -324h-252l-100 146l-101 -146h-251z" />
<glyph unicode="&#xef;" horiz-adv-x="579" d="M-12 1507h248v-264h-248v264zM346 1507h248v-264h-248v264zM125 1096h330v-1096h-330v1096z" />
<glyph unicode="&#xf0;" horiz-adv-x="1110" d="M1049 575q0 -301 -129 -452.5t-367 -151.5q-494 0 -494 576q0 580 494 579q45 0 92 -18q-27 59 -70 127l-346 -43v137l271 33q-53 78 -133 166q213 4 319 8q68 -80 105 -137q82 12 241 33v-138q-55 -6 -166 -22q183 -335 183 -697zM553 870q-82 0 -120 -73.5t-38 -249.5 t38 -249t120 -73t121 73t39 247q0 178 -39 251.5t-121 73.5z" />
<glyph unicode="&#xf1;" horiz-adv-x="1171" d="M387 1096v-119q158 150 358 149q319 0 320 -348v-778h-330v678q0 123 -135 123q-59 0 -145 -33v-768h-330v1096h262zM438 1223l-192 69q45 217 209 217q47 0 128 -30.5t101 -30.5q29 0 41 15.5t25 62.5l194 -72q-61 -225 -231 -225q-37 0 -113 31.5t-100 31.5 q-27 0 -37.5 -14t-24.5 -55z" />
<glyph unicode="&#xf2;" horiz-adv-x="1112" d="M557 1126q248 0 371 -140t123 -441q0 -289 -128 -431.5t-366 -142.5q-496 0 -496 576q0 579 496 579zM557 862q-84 0 -122 -69.5t-38 -245.5q0 -174 39 -247t121 -73t120 72t38 246q0 178 -37 247.5t-121 69.5zM190 1536h320l184 -324h-262z" />
<glyph unicode="&#xf3;" horiz-adv-x="1112" d="M557 1126q248 0 371 -140t123 -441q0 -289 -128 -431.5t-366 -142.5q-496 0 -496 576q0 579 496 579zM557 862q-84 0 -122 -69.5t-38 -245.5q0 -174 39 -247t121 -73t120 72t38 246q0 178 -37 247.5t-121 69.5zM592 1536h321l-241 -324h-264z" />
<glyph unicode="&#xf4;" horiz-adv-x="1112" d="M557 1126q248 0 371 -140t123 -441q0 -289 -128 -431.5t-366 -142.5q-496 0 -496 576q0 579 496 579zM557 862q-84 0 -122 -69.5t-38 -245.5q0 -174 39 -247t121 -73t120 72t38 246q0 178 -37 247.5t-121 69.5zM416 1536h282l211 -324h-252l-100 146l-100 -146h-252z" />
<glyph unicode="&#xf5;" horiz-adv-x="1112" d="M557 1126q248 0 371 -140t123 -441q0 -289 -128 -431.5t-366 -142.5q-496 0 -496 576q0 579 496 579zM557 862q-84 0 -122 -69.5t-38 -245.5q0 -174 39 -247t121 -73t120 72t38 246q0 178 -37 247.5t-121 69.5zM401 1223l-192 69q45 217 209 217q47 0 128 -30.5 t101 -30.5q29 0 41 15.5t25 62.5l194 -72q-61 -225 -231 -225q-37 0 -113 31.5t-100 31.5q-27 0 -37.5 -14t-24.5 -55z" />
<glyph unicode="&#xf6;" horiz-adv-x="1112" d="M557 1126q248 0 371 -140t123 -441q0 -289 -128 -431.5t-366 -142.5q-496 0 -496 576q0 579 496 579zM557 862q-84 0 -122 -69.5t-38 -245.5q0 -174 39 -247t121 -73t120 72t38 246q0 178 -37 247.5t-121 69.5zM254 1507h248v-264h-248v264zM612 1507h248v-264h-248v264z " />
<glyph unicode="&#xf7;" d="M393 473h301v-278h-301v278zM981 819v-276h-877v276h877zM393 1161h301v-278h-301v278z" />
<glyph unicode="&#xf8;" horiz-adv-x="1112" d="M557 1126q190 0 305 -82l92 123l107 -69l-111 -144q100 -137 101 -409q0 -289 -128 -431.5t-366 -142.5q-190 0 -307 84l-98 -129l-99 74l111 143q-102 139 -103 404q0 579 496 579zM557 862q-84 0 -122 -69.5t-38 -245.5q0 -80 6 -98l271 352q-33 61 -117 61zM715 545 q0 59 -6 102l-271 -352q37 -68 119 -68t120 72t38 246z" />
<glyph unicode="&#xf9;" horiz-adv-x="1097" d="M561 -29q-193 0 -320.5 106.5t-127.5 295.5v723h329v-738q0 -131 117 -131t117 131v738h330v-723q0 -188 -127.5 -295t-317.5 -107zM182 1536h320l184 -324h-262z" />
<glyph unicode="&#xfa;" horiz-adv-x="1097" d="M561 -29q-193 0 -320.5 106.5t-127.5 295.5v723h329v-738q0 -131 117 -131t117 131v738h330v-723q0 -188 -127.5 -295t-317.5 -107zM592 1536h321l-241 -324h-264z" />
<glyph unicode="&#xfb;" horiz-adv-x="1097" d="M561 -29q-193 0 -320.5 106.5t-127.5 295.5v723h329v-738q0 -131 117 -131t117 131v738h330v-723q0 -188 -127.5 -295t-317.5 -107zM408 1536h282l211 -324h-252l-100 146l-100 -146h-252z" />
<glyph unicode="&#xfc;" horiz-adv-x="1097" d="M561 -29q-193 0 -320.5 106.5t-127.5 295.5v723h329v-738q0 -131 117 -131t117 131v738h330v-723q0 -188 -127.5 -295t-317.5 -107zM246 1507h248v-264h-248v264zM604 1507h248v-264h-248v264z" />
<glyph unicode="&#xfd;" horiz-adv-x="1026" d="M1034 1096l-348 -1035q-88 -264 -207 -384.5t-321 -120.5q-137 0 -269 59l78 264q74 -43 170 -43q88 0 129 44t96 179l-391 1037h346l203 -664l195 664h319zM567 1536h322l-242 -324h-264z" />
<glyph unicode="&#xfe;" horiz-adv-x="1163" d="M633 -29q-92 0 -178 31v-416l-330 -57v1966l330 41v-512q129 102 276 102q176 0 273.5 -122.5t97.5 -436.5q0 -596 -469 -596zM455 801v-529q68 -33 135 -32q78 0 121 70.5t43 256.5q0 166 -40 216.5t-120 50.5q-61 0 -139 -33z" />
<glyph unicode="&#xff;" horiz-adv-x="1026" d="M1034 1096l-348 -1035q-88 -264 -207 -384.5t-321 -120.5q-137 0 -269 59l78 264q74 -43 170 -43q88 0 129 44t96 179l-391 1037h346l203 -664l195 664h319zM217 1507h248v-264h-248v264zM575 1507h248v-264h-248v264z" />
<glyph unicode="&#x152;" horiz-adv-x="1855" d="M637 1462q233 0 319 -145v117h791v-293h-500v-285h475v-276h-475v-287h529v-293h-820v119q-43 -70 -129 -109t-192 -39q-262 0 -420 177.5t-158 566.5t158 568t422 179zM637 1163q-121 0 -187.5 -98t-66.5 -348q0 -248 67.5 -347.5t186.5 -99.5t178 97.5t59 349.5 t-59 349t-178 97z" />
<glyph unicode="&#x153;" horiz-adv-x="1665" d="M555 1124q229 0 317 -135q90 137 306 137q420 0 419 -477v-174h-550q6 -133 59 -190.5t151 -57.5q141 0 295 103l29 -242q-106 -59 -192 -88t-211 -29q-217 0 -306 142q-94 -141 -317 -142q-496 0 -496 576q0 577 496 577zM555 870q-82 0 -121 -72.5t-39 -250.5 q0 -174 39 -247t121 -73t120 72t38 246q0 180 -38 252.5t-120 72.5zM1049 657h239q0 113 -25.5 159t-93 46t-93 -48t-27.5 -157z" />
<glyph unicode="&#x178;" horiz-adv-x="1138" d="M573 858l238 576h350l-428 -932v-502h-325v502l-431 932h361zM270 1839h248v-264h-248v264zM629 1839h248v-264h-248v264z" />
<glyph unicode="&#x2c6;" horiz-adv-x="1024" d="M371 1536h282l211 -324h-252l-100 146l-100 -146h-252z" />
<glyph unicode="&#x2dc;" horiz-adv-x="1024" d="M356 1223l-192 69q45 217 209 217q47 0 128 -30.5t101 -30.5q29 0 41 15.5t25 62.5l194 -72q-61 -225 -231 -225q-37 0 -113 31.5t-100 31.5q-27 0 -37.5 -14t-24.5 -55z" />
<glyph unicode="&#x2000;" horiz-adv-x="950" />
<glyph unicode="&#x2001;" horiz-adv-x="1902" />
<glyph unicode="&#x2002;" horiz-adv-x="950" />
<glyph unicode="&#x2003;" horiz-adv-x="1902" />
<glyph unicode="&#x2004;" horiz-adv-x="632" />
<glyph unicode="&#x2005;" horiz-adv-x="475" />
<glyph unicode="&#x2006;" horiz-adv-x="315" />
<glyph unicode="&#x2007;" horiz-adv-x="315" />
<glyph unicode="&#x2008;" horiz-adv-x="237" />
<glyph unicode="&#x2009;" horiz-adv-x="378" />
<glyph unicode="&#x200a;" horiz-adv-x="104" />
<glyph unicode="&#x2010;" horiz-adv-x="829" d="M709 819v-276h-588v276h588z" />
<glyph unicode="&#x2011;" horiz-adv-x="829" d="M709 819v-276h-588v276h588z" />
<glyph unicode="&#x2012;" horiz-adv-x="829" d="M709 819v-276h-588v276h588z" />
<glyph unicode="&#x2013;" horiz-adv-x="1116" d="M995 819v-276h-874v276h874z" />
<glyph unicode="&#x2014;" horiz-adv-x="1892" d="M1772 819v-276h-1651v276h1651z" />
<glyph unicode="&#x2018;" horiz-adv-x="493" d="M362 948h-319l156 486h252z" />
<glyph unicode="&#x2019;" horiz-adv-x="493" d="M131 1434h320l-156 -486h-252z" />
<glyph unicode="&#x201a;" horiz-adv-x="493" d="M131 160h320l-156 -486h-252z" />
<glyph unicode="&#x201c;" horiz-adv-x="940" d="M328 948h-322l227 486h254zM815 948h-321l155 486h252z" />
<glyph unicode="&#x201d;" horiz-adv-x="940" d="M612 1434h322l-229 -486h-252zM125 1434h321l-155 -486h-252z" />
<glyph unicode="&#x201e;" horiz-adv-x="940" d="M612 160h322l-229 -486h-252zM125 160h321l-155 -486h-252z" />
<glyph unicode="&#x2022;" horiz-adv-x="786" d="M86 682q0 127 89 217t218 90q127 0 217 -90t90 -217t-90 -217t-217 -90q-129 0 -218 90t-89 217z" />
<glyph unicode="&#x2026;" horiz-adv-x="1609" d="M80 328h334v-328h-334v328zM637 328h334v-328h-334v328zM1196 328h334v-328h-334v328z" />
<glyph unicode="&#x202f;" horiz-adv-x="378" />
<glyph unicode="&#x2039;" horiz-adv-x="718" d="M696 127h-321l-352 483l352 488h321l-319 -488z" />
<glyph unicode="&#x203a;" horiz-adv-x="718" d="M344 127h-321l319 483l-319 488h321l352 -488z" />
<glyph unicode="&#x205f;" horiz-adv-x="475" />
<glyph unicode="&#x20ac;" d="M4 741v172h121q29 293 142.5 421t355.5 128q211 0 327.5 -107.5t134.5 -314.5l-319 -34q-12 51 -22.5 77.5t-40 52t-76.5 25.5q-84 0 -121 -60.5t-49 -187.5h403l-33 -172h-376v-43q0 -14 4 -55h354l-31 -172h-299q18 -109 70.5 -155t150.5 -46q152 0 330 101l37 -281 q-70 -39 -117 -60.5t-128 -40t-173 -18.5q-229 0 -350 118t-164 382h-131v172h115q-2 20 -2 53v45h-113z" />
<glyph unicode="&#x2122;" horiz-adv-x="1767" d="M23 1434h645v-193h-209v-534h-232v534h-204v193zM692 707l94 727h287l129 -412l127 412h291l88 -727h-240l-45 423l-116 -366h-215l-117 366l-43 -423h-240z" />
<glyph unicode="&#xe000;" horiz-adv-x="1095" d="M0 1095h1095v-1095h-1095v1095z" />
<glyph unicode="&#xfb01;" horiz-adv-x="1228" d="M160 -47v889h-135v254h135v71q0 209 120.5 310.5t321.5 101.5q70 0 127 -10l-22 -266q-37 10 -70 10q-147 0 -148 -133v-84h615v-1096h-330v842h-285v-936q0 -172 -87 -256t-236 -84q-123 0 -240 55l31 258q68 -27 113 -26q90 0 90 100zM774 1516h330v-289h-330v289z" />
<glyph unicode="&#xfb02;" horiz-adv-x="1269" d="M160 1096v71q0 209 120.5 310.5t321.5 101.5q70 0 127 -10l-22 -266q-37 10 -70 10q-147 0 -148 -133v-84h203l-20 -254h-183v-920q0 -354 -344 -354q-117 0 -219 53l31 258q68 -27 113 -26q90 0 90 100v889h-135v254h135zM770 1495l330 41v-1184q0 -82 78 -82 q47 0 100 25l8 -266q-102 -57 -233 -58q-283 0 -283 353v1171z" />
<glyph unicode="&#xfb03;" horiz-adv-x="1841" d="M160 1096v71q0 209 120.5 310.5t321.5 101.5q70 0 127 -10l-22 -266q-37 10 -70 10q-147 0 -148 -133v-84h285v71q0 209 119 311.5t317 102.5q72 0 133 -12l-24 -266q-37 10 -68 10q-147 0 -147 -133v-84h612v-1096h-330v842h-282v-936q0 -170 -88 -255t-238 -85 q-94 0 -203 41l33 264q47 -18 78 -18q88 0 88 100v889h-285v-936q0 -172 -87 -256t-236 -84q-123 0 -240 55l31 258q68 -27 113 -26q90 0 90 100v889h-135v254h135zM1386 1516h330v-289h-330v289z" />
<glyph unicode="&#xfb04;" horiz-adv-x="1882" d="M160 1096v71q0 209 120.5 310.5t321.5 101.5q70 0 127 -10l-22 -266q-37 10 -70 10q-147 0 -148 -133v-84h285v71q0 209 119 311.5t317 102.5q63 0 133 -12l-24 -266q-37 10 -68 10q-66 0 -106.5 -34t-40.5 -99v-84h203l-21 -254h-182v-916q0 -358 -344 -358 q-90 0 -185 39l33 264q47 -18 78 -18q88 0 88 100v889h-285v-938q0 -170 -88 -254t-235 -84q-129 0 -240 55l31 258q68 -27 113 -26q90 0 90 100v889h-135v254h135zM1382 1495l330 41v-1184q0 -82 78 -82q49 0 100 25l8 -266q-102 -57 -233 -58q-283 0 -283 353v1171z" />
</font>
</defs>
</svg>
