<?xml version="1.0" standalone="no"?>
<!DOCTYPE svg PUBLIC "-//W3C//DTD SVG 1.1//EN" "http://www.w3.org/Graphics/SVG/1.1/DTD/svg11.dtd" >
<svg xmlns="http://www.w3.org/2000/svg" xmlns:xlink="http://www.w3.org/1999/xlink" version="1.1">
<metadata>
Created by FontForge 20150318 at Thu May 28 11:48:18 2015
 By uniteet7
Copyright (c) 2009 by Christophe Badani et Stphane Gabrielli. All rights reserved.
</metadata>
<defs>
<font id="BNPPTitleSans" horiz-adv-x="1681" >
  <font-face 
    font-family="BNPP Title Sans"
    font-weight="400"
    font-stretch="normal"
    units-per-em="2048"
    panose-1="2 0 0 0 0 0 0 0 0 0"
    ascent="1546"
    descent="-502"
    x-height="1217"
    cap-height="1434"
    bbox="-174 -494 4479 1890"
    underline-thickness="102"
    underline-position="-102"
    unicode-range="U+0020-FB04"
  />
<missing-glyph horiz-adv-x="1748" 
d="M297 1436h1155v-1436h-1155v1436zM416 1327v-1218h915v1218h-915z" />
    <glyph glyph-name=".notdef" horiz-adv-x="1748" 
d="M297 1436h1155v-1436h-1155v1436zM416 1327v-1218h915v1218h-915z" />
    <glyph glyph-name=".null" horiz-adv-x="0" 
 />
    <glyph glyph-name="nonmarkingreturn" horiz-adv-x="682" 
 />
    <glyph glyph-name="space" unicode=" " horiz-adv-x="741" 
 />
    <glyph glyph-name="exclam" unicode="!" horiz-adv-x="841" 
d="M295 1434h250l-25 -1049h-201zM297 238h244v-238h-244v238z" />
    <glyph glyph-name="quotedbl" unicode="&#x22;" horiz-adv-x="1200" 
d="M778 1434h189v-486h-189v486zM233 1434h187v-486h-187v486z" />
    <glyph glyph-name="numbersign" unicode="#" horiz-adv-x="1933" 
d="M164 889l31 178h352l63 367h193l-64 -367h582l63 367h193l-64 -367h349l-33 -178h-346l-62 -348h346l-30 -176h-348l-64 -365h-192l63 365h-582l-63 -365h-193l64 365h-350l30 176h353l61 348h-352zM709 889l-62 -348h582l61 348h-581z" />
    <glyph glyph-name="dollar" unicode="$" 
d="M791 -180v219q-395 23 -633 203l96 170q98 -80 277.5 -129.5t363.5 -49.5q412 0 412 154q0 86 -111 129t-268.5 61.5t-316 46t-269.5 108.5t-111 220q0 166 149.5 260.5t405.5 114.5v209h191v-211q518 -31 559 -397l-217 -19q-12 70 -48 115t-134.5 78t-262.5 33
q-408 0 -407 -177q0 -55 60.5 -89.5t156.5 -52t214 -32t234.5 -37t213 -59.5t157 -108.5t60.5 -173.5q0 -334 -582 -373v-213h-190z" />
    <glyph glyph-name="percent" unicode="%" horiz-adv-x="2189" 
d="M1667 1434h238l-1387 -1434h-233zM526 891q231 0 231.5 209t-231.5 209q-233 0 -233 -209t233 -209zM526 739q-182 0 -298.5 93.5t-116.5 267.5t116.5 267t298.5 93q180 0 297 -93t117 -267t-117 -267.5t-297 -93.5zM1665 125q231 0 231 209t-231 209q-233 0 -233 -209
t233 -209zM1665 -27q-182 0 -299 93.5t-117 267.5t117 267t299 93q180 0 297 -93t117 -267t-117 -267.5t-297 -93.5z" />
    <glyph glyph-name="ampersand" unicode="&#x26;" horiz-adv-x="1867" 
d="M1511 680h224q-6 -203 -111 -365l451 -297v-18h-326l-262 170q-229 -197 -672 -197q-336 0 -526.5 108.5t-190.5 303.5q0 154 118 249t316 138q-137 76 -197.5 148.5t-60.5 183.5q0 162 153 259t429 97q279 0 430.5 -96t151.5 -256q0 -80 -38 -147.5t-105.5 -113.5
t-139.5 -78t-158 -54l441 -283q61 88 73 248zM737 647q-199 -45 -299 -100t-100 -152q0 -219 489 -219q322 0 465 115zM797 840q209 53 305 114.5t96 147.5q0 80 -89 123t-249 43q-350 0 -350 -166q0 -51 37 -94t85 -74t165 -94z" />
    <glyph glyph-name="quotesingle" unicode="'" horiz-adv-x="655" 
d="M233 1434h187v-486h-187v486z" />
    <glyph glyph-name="parenleft" unicode="(" horiz-adv-x="962" 
d="M942 1536q-131 -115 -226 -219.5t-176 -229t-123 -267t-42 -298t42 -298t121.5 -267.5t176 -230.5t227.5 -218.5h-252q-524 444 -524 1012q0 178 46 337t129 285t164 216t185 178h252z" />
    <glyph glyph-name="parenright" unicode=")" horiz-adv-x="962" 
d="M20 1536h252q104 -88 185.5 -178t164.5 -216t129 -285t46 -337q0 -567 -525 -1012h-252q131 113 227.5 218.5t176.5 230.5t122 267.5t42 298t-42 298t-123 267t-176.5 229t-226.5 219.5z" />
    <glyph glyph-name="asterisk" unicode="*" horiz-adv-x="1337" 
d="M563 1434h211l-51 -281l350 195l72 -170l-367 -119l367 -117l-72 -170l-348 195l49 -287h-211l49 285l-350 -195l-72 170l367 119l-367 117l72 170l350 -195z" />
    <glyph glyph-name="plus" unicode="+" 
d="M735 1217h207v-439h533v-194h-533v-439h-207v439h-528v194h528v439z" />
    <glyph glyph-name="comma" unicode="," horiz-adv-x="655" 
d="M242 238h266l-318 -508h-213z" />
    <glyph glyph-name="hyphen" unicode="-" horiz-adv-x="1316" 
d="M1055 778v-194h-793v194h793z" />
    <glyph glyph-name="period" unicode="." horiz-adv-x="655" 
d="M205 238h244v-238h-244v238z" />
    <glyph glyph-name="slash" unicode="/" horiz-adv-x="1255" 
d="M967 1434h207l-887 -1434h-205z" />
    <glyph glyph-name="zero" unicode="0" horiz-adv-x="1800" 
d="M901 1460q338 0 544 -187.5t206 -559.5q0 -371 -206 -555.5t-544 -184.5t-544.5 184.5t-206.5 555.5q0 373 206.5 560t544.5 187zM901 176q512 0 512 539q0 543 -512 542q-514 0 -514 -542q0 -539 514 -539z" />
    <glyph glyph-name="one" unicode="1" horiz-adv-x="1036" 
d="M739 0h-223v1219l-420 -125v204l439 136h204v-1434z" />
    <glyph glyph-name="two" unicode="2" horiz-adv-x="1701" 
d="M406 1026l-232 21q16 174 180 293.5t486 119.5q319 0 493 -112.5t174 -325.5q0 -141 -88 -246.5t-266 -212.5l-616 -360h995v-203h-1368v188l840 531q145 92 201.5 157.5t56.5 145.5q0 236 -422 235q-389 0 -434 -231z" />
    <glyph glyph-name="three" unicode="3" horiz-adv-x="1730" 
d="M840 1460q326 0 508 -103.5t182 -295.5q0 -242 -281 -324q137 -29 227.5 -113.5t90.5 -230.5q0 -205 -192.5 -312.5t-530.5 -107.5q-449 0 -715 179l74 194q262 -170 637 -170q479 0 479 221q0 119 -109.5 168t-361.5 49h-219v205h213q213 0 325.5 58.5t112.5 162.5
q0 217 -434 217q-414 0 -463 -227l-229 21q16 168 186 288.5t500 120.5z" />
    <glyph glyph-name="four" unicode="4" horiz-adv-x="1730" 
d="M92 330v209l963 895h301v-902h282v-202h-282v-330h-219v330h-1045zM1137 1241l-768 -709h768v709z" />
    <glyph glyph-name="five" unicode="5" 
d="M248 721v713h1202v-217h-985v-359q172 23 326 23q160 0 287.5 -23.5t231 -74t161 -139.5t57.5 -210q0 -219 -184.5 -340t-516.5 -121q-412 0 -667 164l80 187q233 -147 583 -148q463 0 463 252t-516 252q-170 0 -395 -37z" />
    <glyph glyph-name="six" unicode="6" horiz-adv-x="1728" 
d="M393 588q47 -412 504 -412q217 0 336 67.5t119 190.5q0 248 -449 248q-289 0 -510 -94zM393 791q248 94 539 94q184 0 326.5 -43t234.5 -143.5t92 -249.5q0 -231 -188.5 -353.5t-507.5 -122.5q-338 0 -538.5 182.5t-200.5 555.5q0 379 202.5 564t562.5 185
q299 0 459 -112.5t185 -294.5l-220 -15q-12 43 -33.5 76t-66.5 69t-131 55t-205 19q-250 0 -375 -116.5t-135 -349.5z" />
    <glyph glyph-name="seven" unicode="7" horiz-adv-x="1591" 
d="M96 1434h1399v-179l-981 -1255h-285l985 1221h-1118v213z" />
    <glyph glyph-name="eight" unicode="8" horiz-adv-x="1802" 
d="M901 627q-264 0 -390 -54.5t-126 -169.5q0 -113 142.5 -170t371.5 -57q233 0 375.5 57.5t142.5 169.5q0 115 -126 169.5t-390 54.5zM899 -27q-346 0 -547.5 112t-201.5 312q0 268 307 342q-244 74 -244 316q0 195 180 300t508 105q326 0 507 -105.5t181 -299.5
q0 -242 -243 -316q307 -72 307 -342q0 -201 -202 -312.5t-552 -111.5zM901 819q215 0 334 56.5t119 160.5q0 221 -452.5 221t-452.5 -221q0 -104 117.5 -160.5t334.5 -56.5z" />
    <glyph glyph-name="nine" unicode="9" horiz-adv-x="1728" 
d="M791 -29q-381 0 -656 174l76 197q252 -166 588 -166q524 0 536 467q-231 -88 -508 -88q-197 0 -342 39t-240 139.5t-95 255.5q0 221 188 346t516 125q346 0 535.5 -188.5t189.5 -554.5q0 -375 -204.5 -560.5t-583.5 -185.5zM1333 842q-23 207 -140.5 311t-348.5 104
q-221 0 -338 -67.5t-117 -190.5q0 -246 453 -245q262 0 491 88z" />
    <glyph glyph-name="colon" unicode=":" horiz-adv-x="655" 
d="M205 238h244v-238h-244v238zM205 1217h244v-238h-244v238z" />
    <glyph glyph-name="semicolon" unicode=";" horiz-adv-x="651" 
d="M242 238h266l-318 -508h-213zM205 1217h244v-238h-244v238z" />
    <glyph glyph-name="less" unicode="&#x3c;" 
d="M1475 1217v-195l-1078 -340l1078 -342v-193l-1268 402v264z" />
    <glyph glyph-name="equal" unicode="=" 
d="M1475 1061v-195h-1268v195h1268zM1475 496v-195h-1268v195h1268z" />
    <glyph glyph-name="greater" unicode="&#x3e;" 
d="M207 1022v195l1268 -404v-264l-1268 -402v193l1077 342z" />
    <glyph glyph-name="question" unicode="?" horiz-adv-x="1445" 
d="M780 383h-227q2 172 71.5 270.5t239.5 190.5l106 57q26 14 68.5 46t56 60.5t13.5 65.5q0 84 -89 134t-280 50q-213 0 -308 -63.5t-109 -149.5l-226 25q12 168 174 279.5t478 111.5q287 0 445.5 -103.5t158.5 -271.5q0 -139 -74 -215.5t-246 -171.5q-152 -84 -202 -141
t-50 -174zM545 238h246v-238h-246v238z" />
    <glyph glyph-name="at" unicode="@" horiz-adv-x="2428" 
d="M1110 1143h217l307 -533q43 -72 99.5 -106.5t152.5 -34.5q113 0 173.5 74.5t60.5 210.5q0 262 -245 415.5t-706 153.5q-428 0 -645 -165t-217 -451q0 -594 875 -594q360 0 624 86l31 -136q-281 -90 -659 -90q-231 0 -412.5 40t-323 124t-217 228.5t-75.5 343.5
q0 342 273 546.5t753 204.5q512 0 807.5 -193.5t295.5 -510.5q0 -207 -108.5 -322t-312.5 -115q-154 0 -240 52.5t-154 148.5h-518l-106 -174h-219zM1212 977l-180 -307h350z" />
    <glyph glyph-name="A" unicode="A" horiz-adv-x="1798" 
d="M1546 0l-186 338h-942l-182 -338h-236l770 1434h258l770 -1434h-252zM887 1225l-365 -688h731z" />
    <glyph glyph-name="B" unicode="B" horiz-adv-x="1816" 
d="M520 621v-416h424q264 0 373.5 44t109.5 157q0 119 -104 167t-379 48h-424zM520 1229v-406h422q426 0 426 213q0 113 -99.5 153t-342.5 40h-406zM297 1434h637q344 0 509 -90.5t165 -294.5q0 -250 -295 -316q154 -20 256 -104t102 -234q0 -213 -173 -304t-550 -91h-651
v1434z" />
    <glyph glyph-name="C" unicode="C" horiz-adv-x="1781" 
d="M1653 1024l-219 -14q-41 248 -465 247q-295 0 -440.5 -130t-145.5 -406q0 -287 155.5 -416t479.5 -129q326 0 573 105l37 -195q-250 -113 -612 -113q-866 0 -866 746q0 371 219 556t608 185q322 0 494 -116.5t182 -319.5z" />
    <glyph glyph-name="D" unicode="D" horiz-adv-x="2050" 
d="M520 1229v-1024h463q342 0 513 118.5t171 395t-170 393.5t-514 117h-463zM297 1434h707q434 0 664 -179.5t230 -536t-230 -537.5t-664 -181h-707v1434z" />
    <glyph glyph-name="E" unicode="E" horiz-adv-x="1697" 
d="M297 1434h1184v-205h-961v-395h920v-207h-920v-422h1010v-205h-1233v1434z" />
    <glyph glyph-name="F" unicode="F" horiz-adv-x="1607" 
d="M297 1434h1186v-205h-963v-428h823v-205h-823v-596h-223v1434z" />
    <glyph glyph-name="G" unicode="G" horiz-adv-x="2086" 
d="M1831 1026l-219 -16q-68 248 -539 247q-344 0 -517 -123.5t-173 -404.5q0 -305 167 -429t511 -124q289 0 563 111v282h-543v197h766v-766h-198l-11 90q-279 -117 -610 -117q-879 0 -878 754q0 377 244.5 555t692.5 178q346 0 535 -122t209 -312z" />
    <glyph glyph-name="H" unicode="H" horiz-adv-x="2187" 
d="M297 1434h223v-600h1149v600h221v-1434h-221v621h-1149v-621h-223v1434z" />
    <glyph glyph-name="I" unicode="I" horiz-adv-x="819" 
d="M297 1434h223v-1434h-223v1434z" />
    <glyph glyph-name="J" unicode="J" horiz-adv-x="937" 
d="M434 1434h221v-1112q0 -170 -98 -259.5t-285 -89.5q-160 0 -262 50l31 192q100 -39 209 -39q94 0 139 35t45 117v1106z" />
    <glyph glyph-name="K" unicode="K" horiz-adv-x="1859" 
d="M297 1434h223v-785l989 785h306l-746 -592l791 -842h-293l-666 700l-381 -294v-406h-223v1434z" />
    <glyph glyph-name="L" unicode="L" horiz-adv-x="1439" 
d="M297 1434h223v-1229h889v-205h-1112v1434z" />
    <glyph glyph-name="M" unicode="M" horiz-adv-x="2740" 
d="M1479 115h-215l-676 1071l-176 -1186h-224l224 1434h264l694 -1096l696 1096h263l223 -1434h-223l-177 1186z" />
    <glyph glyph-name="N" unicode="N" horiz-adv-x="2244" 
d="M297 1434h221l1215 -1153v1153h215v-1434h-215l-1219 1153v-1153h-217v1434z" />
    <glyph glyph-name="O" unicode="O" horiz-adv-x="2019" 
d="M1009.5 1257q-290.5 0 -458.5 -133t-168 -409.5t168 -407.5t458.5 -131t458.5 131t168 407.5t-168 409.5t-458.5 133zM1008 1460q391 0 626.5 -190.5t235.5 -555t-235.5 -553t-626.5 -188.5q-387 0 -622.5 189.5t-235.5 552.5q0 365 235.5 555t622.5 190z" />
    <glyph glyph-name="P" unicode="P" horiz-adv-x="1814" 
d="M520 1237v-541q166 -16 377 -16q262 0 399.5 58.5t137.5 213.5q0 158 -124 221.5t-409 63.5h-381zM297 1434h606q385 0 574.5 -110t189.5 -363q0 -477 -772 -478q-182 0 -375 19v-502h-223v1434z" />
    <glyph glyph-name="Q" unicode="Q" horiz-adv-x="2021" 
d="M1008 1460q391 0 626.5 -190.5t235.5 -556.5q0 -291 -151.5 -470.5t-422.5 -238.5l295 -352h-293l-251 323q-199 0 -361 42t-282.5 130.5t-187 231.5t-66.5 334q0 367 235.5 557t622.5 190zM1009.5 176q290.5 0 458.5 131t168 407.5t-168 409.5t-458.5 133t-458.5 -133
t-168 -409.5t168 -407.5t458.5 -131z" />
    <glyph glyph-name="R" unicode="R" horiz-adv-x="1839" 
d="M1712 0h-274l-398 539q-131 -4 -170 -4q-180 0 -350 8v-543h-223v1434h602q387 0 576.5 -96.5t189.5 -342.5q0 -322 -387 -405zM520 1229v-475q174 -10 361 -11q276 0 413.5 57.5t137.5 186.5q0 143 -122 192.5t-415 49.5h-375z" />
    <glyph glyph-name="S" unicode="S" horiz-adv-x="1703" 
d="M1511 1038l-221 -18q-41 238 -450 237q-195 0 -308.5 -51t-113.5 -155q0 -82 83 -130.5t206.5 -64.5t269 -44t269.5 -64.5t207 -129t83 -233.5q0 -195 -185.5 -303.5t-502.5 -108.5q-440 0 -698 177l75 188q270 -162 631 -162q205 0 321.5 51.5t116.5 149.5
q0 78 -61.5 126t-159.5 70.5t-218 39t-238.5 41t-217 65.5t-160 123t-61.5 202q0 199 185.5 307.5t484.5 108.5q332 0 489.5 -120t173.5 -302z" />
    <glyph glyph-name="T" unicode="T" horiz-adv-x="1759" 
d="M96 1434h1567v-205h-674v-1229h-221v1229h-672v205z" />
    <glyph glyph-name="U" unicode="U" horiz-adv-x="2070" 
d="M262 1434h221v-854q0 -186 136.5 -295t418.5 -109q281 0 416 107.5t135 296.5v854h219v-852q0 -274 -196.5 -441.5t-573.5 -167.5q-383 0 -579.5 166t-196.5 443v852z" />
    <glyph glyph-name="V" unicode="V" horiz-adv-x="1859" 
d="M43 1434h242l657 -1221l637 1221h236l-752 -1434h-244z" />
    <glyph glyph-name="W" unicode="W" horiz-adv-x="2914" 
d="M1327 1434h260l551 -1219l488 1219h229l-571 -1434h-275l-553 1214l-551 -1214h-274l-572 1434h228l487 -1219z" />
    <glyph glyph-name="X" unicode="X" horiz-adv-x="1849" 
d="M55 1434h299l566 -574l598 574h292l-720 -701l741 -733h-309l-609 590l-602 -590h-293l740 729z" />
    <glyph glyph-name="Y" unicode="Y" horiz-adv-x="1734" 
d="M872 743l594 691h265l-752 -877v-557h-221v557l-754 877h262z" />
    <glyph glyph-name="Z" unicode="Z" horiz-adv-x="1744" 
d="M166 1434h1405v-183l-1122 -1048h1142v-203h-1462v182l1124 1047h-1087v205z" />
    <glyph glyph-name="bracketleft" unicode="[" horiz-adv-x="937" 
d="M297 1536h545v-180h-342v-1647h342v-180h-545v2007z" />
    <glyph glyph-name="backslash" unicode="\" horiz-adv-x="1255" 
d="M82 1434h207l885 -1434h-205z" />
    <glyph glyph-name="bracketright" unicode="]" horiz-adv-x="937" 
d="M178 1536h545v-2007h-545v180h342v1647h-342v180z" />
    <glyph glyph-name="asciicircum" unicode="^" horiz-adv-x="1683" 
d="M1587 719h-244l-505 541l-498 -541h-242l645 715h191z" />
    <glyph glyph-name="underscore" unicode="_" horiz-adv-x="1726" 
d="M1657 -27v-194h-1589v194h1589z" />
    <glyph glyph-name="grave" unicode="`" horiz-adv-x="1576" 
d="M348 1642h283l297 -323h-209z" />
    <glyph glyph-name="a" unicode="a" horiz-adv-x="1708" 
d="M1458 0l-180 291h-864l-174 -291h-240l731 1217h242l735 -1217h-250zM844 1016l-328 -551h660z" />
    <glyph glyph-name="b" unicode="b" horiz-adv-x="1759" 
d="M522 524v-338h389q244 0 345.5 35t101.5 125q0 96 -97.5 137t-349.5 41h-389zM522 1030v-330h387q391 0 391 177q0 90 -92 121.5t-313 31.5h-373zM297 1217h606q326 0 481.5 -76t155.5 -252q0 -205 -242 -266q129 -16 216.5 -90t87.5 -195q0 -184 -164 -261t-523 -77
h-618v1217z" />
    <glyph glyph-name="c" unicode="c" horiz-adv-x="1691" 
d="M1563 860l-220 -12q-18 90 -108 144.5t-309 54.5q-274 0 -408.5 -102.5t-134.5 -332.5q0 -240 140.5 -344t439.5 -104q319 0 550 90l37 -182q-256 -98 -589 -99q-406 0 -608.5 154t-202.5 483q0 313 207.5 471t576.5 158q303 0 461 -101.5t168 -277.5z" />
    <glyph glyph-name="d" unicode="d" horiz-adv-x="1966" 
d="M297 0v1217h672q412 0 630 -153t218 -454q0 -303 -218.5 -456.5t-629.5 -153.5h-672zM522 1030v-844h426q317 0 476 98.5t159 326t-158.5 323.5t-476.5 96h-426z" />
    <glyph glyph-name="e" unicode="e" horiz-adv-x="1638" 
d="M297 1217h1128v-187h-903v-321h864v-179h-864v-344h948v-186h-1173v1217z" />
    <glyph glyph-name="f" unicode="f" horiz-adv-x="1564" 
d="M297 1217h1128v-187h-903v-346h774v-182h-774v-502h-225v1217z" />
    <glyph glyph-name="g" unicode="g" horiz-adv-x="1996" 
d="M1739 860l-219 -12q-61 199 -506 199q-319 0 -475 -96.5t-156 -327.5q0 -252 155.5 -356.5t473.5 -104.5q283 0 520 86v229h-510v180h735v-657h-203l-12 72q-246 -96 -561 -97q-389 0 -610 155t-221 493q0 317 228 466.5t640 149.5q324 0 514.5 -109.5t206.5 -269.5z" />
    <glyph glyph-name="h" unicode="h" horiz-adv-x="2105" 
d="M297 1217h225v-506h1063v506h223v-1217h-223v524h-1063v-524h-225v1217z" />
    <glyph glyph-name="i" unicode="i" horiz-adv-x="819" 
d="M297 1217h225v-1217h-225v1217z" />
    <glyph glyph-name="j" unicode="j" horiz-adv-x="913" 
d="M408 1217h223v-936q0 -147 -95.5 -226.5t-263.5 -79.5q-158 0 -262 45l35 177q98 -35 203 -35q160 0 160 123v932z" />
    <glyph glyph-name="k" unicode="k" horiz-adv-x="1792" 
d="M297 1217h225v-639l918 639h311l-709 -504l750 -713h-297l-629 586l-344 -242v-344h-225v1217z" />
    <glyph glyph-name="l" unicode="l" horiz-adv-x="1388" 
d="M297 1217h225v-1031h828v-186h-1053v1217z" />
    <glyph glyph-name="m" unicode="m" horiz-adv-x="2598" 
d="M1399 98h-201l-623 881l-161 -979h-226l207 1217h254l649 -910l650 910h254l208 -1217h-225l-162 979z" />
    <glyph glyph-name="n" unicode="n" horiz-adv-x="2158" 
d="M1862 0h-222l-1126 952v-952h-217v1217h213l1130 -953v953h222v-1217z" />
    <glyph glyph-name="o" unicode="o" horiz-adv-x="1927" 
d="M1542 608.5q0 227.5 -154.5 333t-422.5 105.5q-270 0 -425 -105.5t-155 -333t154.5 -336t425.5 -108.5q268 0 422.5 108.5t154.5 336zM150 606q0 309 223 471t592 162q365 0 588 -162t223 -469q0 -309 -223.5 -472t-587.5 -163q-367 0 -591 163t-224 470z" />
    <glyph glyph-name="p" unicode="p" horiz-adv-x="1744" 
d="M522 1030v-434q158 -14 346 -14q115 0 200 10t154.5 33.5t104.5 68.5t35 111q0 127 -112.5 176t-377.5 49h-350zM297 1217h577q365 0 544 -93.5t179 -310.5q0 -410 -731 -410q-170 0 -344 13v-416h-225v1217z" />
    <glyph glyph-name="q" unicode="q" horiz-adv-x="1927" 
d="M1776 606q0 -244 -143.5 -396.5t-393.5 -203.5l281 -299h-291l-232 266q-385 0 -616 160t-231 473q0 309 223 471t592 162q365 0 588 -162t223 -471zM1542 608.5q0 227.5 -154.5 333t-422.5 105.5q-270 0 -425 -105.5t-155 -333t154.5 -336t425.5 -108.5
q268 0 422.5 108.5t154.5 336z" />
    <glyph glyph-name="r" unicode="r" horiz-adv-x="1773" 
d="M1651 0h-287l-373 457q-135 -6 -227 -6q-41 0 -242 8v-459h-225v1217h573q367 0 546 -82t179 -293q0 -266 -356 -344zM522 1030v-387h-2q131 -6 338 -6q260 0 381 45t121 152q0 117 -112.5 156.5t-381.5 39.5h-344z" />
    <glyph glyph-name="s" unicode="s" horiz-adv-x="1634" 
d="M1450 870l-213 -12q-10 57 -46 96t-130 66t-246 27q-391 0 -391 -160q0 -57 57.5 -92t149.5 -51.5t203.5 -29t223 -34t204 -58t149.5 -110.5t57 -180q0 -166 -164.5 -262.5t-476.5 -96.5q-420 0 -665 160l76 170q100 -61 258.5 -100t332.5 -39q401 0 402 160
q0 76 -78 118.5t-193.5 54t-251 32t-251 48t-193.5 105.5t-78 201q0 170 177.5 263t459.5 93q311 0 464 -103.5t163 -265.5z" />
    <glyph glyph-name="t" unicode="t" horiz-adv-x="1638" 
d="M96 1217h1446v-187h-612v-1030h-223v1030h-611v187z" />
    <glyph glyph-name="u" unicode="u" horiz-adv-x="2000" 
d="M266 1217h226v-723q0 -154 124.5 -241t387.5 -87q260 0 384.5 86t124.5 242v723h222v-723q0 -238 -188.5 -378.5t-542.5 -140.5q-358 0 -548 140.5t-190 378.5v723z" />
    <glyph glyph-name="v" unicode="v" horiz-adv-x="1769" 
d="M43 1217h248l608 -1014l596 1014h236l-717 -1217h-232z" />
    <glyph glyph-name="w" unicode="w" horiz-adv-x="2756" 
d="M1255 1217h246l510 -1006l447 1006h239l-545 -1217h-258l-516 1014l-516 -1014h-258l-545 1217h240l446 -1006z" />
    <glyph glyph-name="x" unicode="x" horiz-adv-x="1777" 
d="M59 1217h287l539 -474l553 474h301l-686 -599l706 -618h-299l-575 489l-561 -489h-299l702 618z" />
    <glyph glyph-name="y" unicode="y" horiz-adv-x="1662" 
d="M842 651l547 566h270l-715 -742v-475h-225v475l-715 742h277z" />
    <glyph glyph-name="z" unicode="z" horiz-adv-x="1669" 
d="M162 1217h1339v-164l-1038 -867h1063v-186h-1397v164l1038 866h-1005v187z" />
    <glyph glyph-name="braceleft" unicode="{" horiz-adv-x="1056" 
d="M104 436v189q131 6 204 43t73 127v422q0 178 122 261t308 83q96 0 197 -23l-11 -174q-109 23 -174 22q-242 0 -241 -176v-419q0 -197 -191 -261q190 -61 191 -260v-415q0 -174 241 -174q76 0 174 20l11 -172q-100 -23 -197 -23q-186 0 -308 82t-122 260v420
q-1 160 -277 168z" />
    <glyph glyph-name="bar" unicode="|" horiz-adv-x="788" 
d="M297 1536h195v-2007h-195v2007z" />
    <glyph glyph-name="braceright" unicode="}" horiz-adv-x="1056" 
d="M1034 625v-189q-276 -8 -276 -168v-420q0 -178 -122 -260t-308 -82q-96 0 -197 23l10 172q98 -20 174 -20q242 0 242 174v415q0 199 191 260q-190 63 -191 261v419q0 176 -242 176q-66 0 -174 -22l-10 174q100 23 197 23q186 0 308 -83t122 -261v-422q0 -90 72.5 -127
t203.5 -43z" />
    <glyph glyph-name="asciitilde" unicode="~" 
d="M1155 539q-92 0 -312 46t-304 46q-98 0 -144.5 -24.5t-75.5 -80.5l-174 76q90 213 379 213q96 0 316.5 -47t300.5 -47q100 0 144 24.5t75 81.5l174 -77q-88 -211 -379 -211z" />
    <glyph glyph-name="uni00A0" unicode="&#xa0;" horiz-adv-x="741" 
 />
    <glyph glyph-name="exclamdown" unicode="&#xa1;" horiz-adv-x="841" 
d="M543 -219h-250l24 1048h201zM539 977h-244v237h244v-237z" />
    <glyph glyph-name="cent" unicode="&#xa2;" 
d="M752 -180v307q-563 80 -564 561q0 254 150.5 395.5t413.5 161.5v291h190v-285q268 -16 399.5 -116.5t135.5 -253.5l-213 -13q-14 188 -383 189q-219 0 -338 -82t-119 -289q0 -371 506 -371q281 0 493 97l50 -191q-250 -98 -531 -106v-295h-190z" />
    <glyph glyph-name="sterling" unicode="&#xa3;" 
d="M1595 1061l-206 -21q-12 47 -33 81t-64 68t-124 51t-195 17q-399 0 -400 -268q0 -98 21 -203h733v-170h-711l19 -153v-23q0 -168 -150 -243h1065v-197h-1446v172q162 53 228.5 109.5t66.5 162.5v23q0 8 -16 149h-340v170h317q-23 154 -22 205q0 203 157.5 336t475.5 133
q305 0 456.5 -112.5t167.5 -286.5z" />
    <glyph glyph-name="currency" unicode="&#xa4;" 
d="M837.5 1079q231.5 0 358.5 -78l313 191l86 -143l-270 -160q84 -88 84 -207q0 -121 -84 -209l272 -156l-88 -141l-313 186q-123 -78 -358.5 -77.5t-356.5 77.5l-315 -186l-86 141l270 156q-84 88 -84 209q0 119 84 207l-270 160l86 141l315 -189q125 78 356.5 78z
M837.5 463q180.5 0 274.5 56t94 162.5t-94 162t-274.5 55.5t-274.5 -55.5t-94 -162t94 -162.5t274.5 -56z" />
    <glyph glyph-name="yen" unicode="&#xa5;" 
d="M0 1434h281l563 -607l559 607h276l-610 -648h475v-170h-594v-616h-223v616h-602v170h483z" />
    <glyph glyph-name="brokenbar" unicode="&#xa6;" horiz-adv-x="788" 
d="M297 1536h195v-803h-195v803zM297 332h195v-803h-195v803z" />
    <glyph glyph-name="section" unicode="&#xa7;" horiz-adv-x="1771" 
d="M1337 1063q-18 88 -123.5 150.5t-320.5 62.5q-358 0 -358 -176q0 -72 111.5 -121t269 -84t316.5 -77t270.5 -123t111.5 -195q0 -156 -154 -240q14 -29 15 -78q0 -184 -175.5 -279.5t-463.5 -95.5q-403 0 -670 177l70 180q92 -68 266 -118t338 -50q387 0 387 164
q0 49 -79 89t-198 65.5t-257 64.5t-257 82t-197.5 122t-78.5 183q0 156 151 252q-12 37 -12 74q0 174 173 271t427 97q309 0 466 -114.5t175 -264.5zM1319 381q82 45 82 113q0 63 -133 117.5t-299 87t-329 81.5t-206 103q-70 -45 -69 -113q0 -70 94 -118t222 -73.5
t316.5 -77.5t321.5 -120z" />
    <glyph glyph-name="dieresis" unicode="&#xa8;" horiz-adv-x="1576" 
d="M418 1587h229v-211h-229v211zM928 1587h231v-211h-231v211z" />
    <glyph glyph-name="copyright" unicode="&#xa9;" horiz-adv-x="2310" 
d="M1618 893l-180 -16q-16 41 -37 67.5t-81 50t-157 23.5q-156 0 -246 -73t-90 -228q0 -295 383 -295q184 0 353 67l36 -151q-182 -78 -397 -78q-260 0 -415.5 112.5t-155.5 342.5q0 223 146.5 342t387.5 119q201 0 318 -79t135 -204zM1155 100q432 0 648 164t216 453
t-216 452.5t-648 163.5t-648 -163.5t-216 -452.5t216 -453t648 -164zM1155 -27q-483 0 -744 201t-261 543q0 340 261 541.5t744 201.5t744.5 -201.5t261.5 -541.5q0 -342 -261.5 -543t-744.5 -201z" />
    <glyph glyph-name="ordfeminine" unicode="&#xaa;" horiz-adv-x="1165" 
d="M1128 707h-206l-95 149h-485l-88 -149h-205l432 727h207zM584 1276l-164 -285h330z" />
    <glyph glyph-name="guillemotleft" unicode="&#xab;" horiz-adv-x="1679" 
d="M862 137h-246l-481 463v23l481 464h246l-450 -477zM1544 137h-248l-481 463l2 23l481 464h246l-450 -477z" />
    <glyph glyph-name="logicalnot" unicode="&#xac;" 
d="M207 778h1268v-633h-199v439h-1069v194z" />
    <glyph glyph-name="uni00AD" unicode="&#xad;" horiz-adv-x="1316" 
d="M1055 778v-194h-793v194h793z" />
    <glyph glyph-name="registered" unicode="&#xae;" horiz-adv-x="1648" 
d="M551 1245h250q162 0 243.5 -37t81.5 -131q0 -117 -137 -151l158 -226h-160l-133 201q-39 -2 -72 -2q-14 0 -44.5 1t-43.5 1v-201h-143v545zM694 1143v-137q49 -4 105 -5q182 0 182 68q0 45 -38 59.5t-142 14.5h-107zM823 1354q-285 0 -427 -102.5t-142 -287t141.5 -288
t428 -103.5t429 102.5t142.5 289.5q0 184 -142.5 286.5t-429.5 102.5zM823 1460q328 0 508 -133t180 -362q0 -231 -180 -364.5t-508 -133.5q-326 0 -506 134t-180 363.5t180 362.5t506 133z" />
    <glyph glyph-name="macron" unicode="&#xaf;" horiz-adv-x="1576" 
d="M1169 1399h-763v162h763v-162z" />
    <glyph glyph-name="degree" unicode="&#xb0;" horiz-adv-x="950" 
d="M471 1460q158 0 255 -65.5t97 -190.5t-97 -191.5t-255 -66.5t-256 66.5t-98 191.5t98 190.5t256 65.5zM471 1081q199 0 199 123t-199 123q-201 0 -201 -123t201 -123z" />
    <glyph glyph-name="plusminus" unicode="&#xb1;" 
d="M1475 193v-193h-1268v193h1268zM735 1217h207v-363h533v-195h-533v-366h-207v366h-528v195h528v363z" />
    <glyph glyph-name="uni00B2" unicode="&#xb2;" horiz-adv-x="950" 
d="M100 664v137l418 262l25 16l24 17l22 14q15 10 21 16.5t16.5 17.5t14.5 19t7 19.5t3 21.5q0 109 -176 109q-96 0 -146 -35t-61 -80l-162 23q10 100 106.5 169.5t270.5 69.5q168 0 261.5 -65.5t93.5 -182.5q0 -139 -183 -245l-260 -152h451v-151h-746z" />
    <glyph glyph-name="uni00B3" unicode="&#xb3;" horiz-adv-x="950" 
d="M324 1126h141q190 0 190 101q0 94 -188 94q-104 0 -161.5 -32t-65.5 -81l-168 17q12 102 114.5 168.5t282.5 66.5q176 0 272.5 -60.5t96.5 -162.5q0 -129 -138 -170q154 -41 154 -182q0 -113 -109.5 -173.5t-283.5 -60.5q-244 0 -402 115l66 131q145 -102 340 -102
q203 0 203 98t-207 98h-137v135z" />
    <glyph glyph-name="acute" unicode="&#xb4;" horiz-adv-x="1576" 
d="M915 1642h287l-373 -323h-211z" />
    <glyph glyph-name="mu" unicode="&#xb5;" horiz-adv-x="1687" 
d="M229 1217h224v-824q0 -115 103 -176t281.5 -61t282 61.5t103.5 175.5v824h223v-818q0 -201 -163 -313.5t-443 -112.5q-250 0 -387 109v-510l-224 -37v1682z" />
    <glyph glyph-name="mu" unicode="&#x3bc;" horiz-adv-x="1687" 
d="M229 1217h224v-824q0 -115 103 -176t281.5 -61t282 61.5t103.5 175.5v824h223v-818q0 -201 -163 -313.5t-443 -112.5q-250 0 -387 109v-510l-224 -37v1682z" />
    <glyph glyph-name="paragraph" unicode="&#xb6;" horiz-adv-x="2304" 
d="M2003 1434v-1643h-217v1448h-377v-1448h-215v696q-129 -10 -244 -10q-801 0 -800 481q0 475 774 476h1079zM1194 682v557h-270q-287 0 -418 -65.5t-131 -221.5q0 -279 581 -278q95 0 238 8z" />
    <glyph glyph-name="periodcentered" unicode="&#xb7;" horiz-adv-x="655" 
d="M205 801h244v-238h-244v238z" />
    <glyph glyph-name="cedilla" unicode="&#xb8;" horiz-adv-x="1576" 
d="M727 0h201q78 -92 78 -184q0 -98 -80 -154.5t-213 -56.5q-188 0 -305 84l63 137q94 -61 207 -62q127 0 127 82q0 70 -78 154z" />
    <glyph glyph-name="uni00B9" unicode="&#xb9;" horiz-adv-x="759" 
d="M526 664h-176v598l-266 -86v157l305 101h137v-770z" />
    <glyph glyph-name="ordmasculine" unicode="&#xba;" horiz-adv-x="1175" 
d="M588 823q129 0 203.5 59.5t74.5 186.5q0 125 -74.5 185.5t-203.5 60.5t-205 -60.5t-76 -185.5q0 -246 281 -246zM588 676q-213 0 -344 103.5t-131 289.5t132 289.5t343 103.5t343 -103.5t132 -289.5t-131 -289.5t-344 -103.5z" />
    <glyph glyph-name="guillemotright" unicode="&#xbb;" horiz-adv-x="1679" 
d="M1063 137h-246l451 473l-451 477h246l481 -464v-23zM381 137h-246l451 473l-451 477h246l481 -464v-23z" />
    <glyph glyph-name="onequarter" unicode="&#xbc;" horiz-adv-x="2316" 
d="M1634 1434h238l-1387 -1434h-233zM1214 164v137l474 471h221v-465h153v-143h-153v-164h-168v164h-527zM1741 625l-322 -318h322v318zM526 664h-176v598l-266 -86v157l305 101h137v-770z" />
    <glyph glyph-name="onehalf" unicode="&#xbd;" horiz-adv-x="2439" 
d="M1634 1434h238l-1387 -1434h-233zM526 664h-176v598l-266 -86v157l305 101h137v-770zM1427 0v137l418 262l25 17l24 16l22 14q15 10 21.5 16.5t16.5 18t14 19.5t7 19t3 22q0 109 -176 108q-96 0 -146 -34.5t-61 -79.5l-161 22q10 100 106 170t270 70q168 0 261.5 -65.5
t93.5 -182.5q0 -139 -183 -246l-260 -151h451v-152h-746z" />
    <glyph glyph-name="threequarters" unicode="&#xbe;" horiz-adv-x="2271" 
d="M1737 1434h237l-1386 -1434h-234zM1317 164v137l473 471h221v-465h154v-143h-154v-164h-168v164h-526zM1843 625l-321 -318h321v318zM324 1126h141q190 0 190 101q0 94 -188 94q-104 0 -161.5 -32t-65.5 -81l-168 17q12 102 114.5 168.5t282.5 66.5q176 0 272.5 -60.5
t96.5 -162.5q0 -129 -138 -170q154 -41 154 -182q0 -113 -109.5 -173.5t-283.5 -60.5q-244 0 -402 115l66 131q145 -102 340 -102q203 0 203 98t-207 98h-137v135z" />
    <glyph glyph-name="questiondown" unicode="&#xbf;" horiz-adv-x="1402" 
d="M745 831h228q-2 -172 -72 -270t-239 -190l-106 -58q-26 -14 -69 -45.5t-56 -60.5t-13 -66q0 -84 89 -134t279 -50q213 0 308.5 63.5t109.5 149.5l226 -25q-12 -168 -174 -279.5t-478 -111.5q-287 0 -445.5 103.5t-158.5 271.5q0 139 74 216t246 171q152 84 201.5 141
t49.5 174zM981 977h-246v237h246v-237z" />
    <glyph glyph-name="Agrave" unicode="&#xc0;" horiz-adv-x="1798" 
d="M1546 0l-186 338h-942l-182 -338h-236l770 1434h258l770 -1434h-252zM887 1225l-365 -688h731zM412 1868h282l297 -324h-209z" />
    <glyph glyph-name="Aacute" unicode="&#xc1;" horiz-adv-x="1798" 
d="M1546 0l-186 338h-942l-182 -338h-236l770 1434h258l770 -1434h-252zM887 1225l-365 -688h731zM1083 1868h287l-373 -324h-211z" />
    <glyph glyph-name="Acircumflex" unicode="&#xc2;" horiz-adv-x="1798" 
d="M1546 0l-186 338h-942l-182 -338h-236l770 1434h258l770 -1434h-252zM887 1225l-365 -688h731zM891 1743l-225 -199h-220l322 324h246l319 -324h-219z" />
    <glyph glyph-name="Atilde" unicode="&#xc3;" horiz-adv-x="1798" 
d="M1546 0l-186 338h-942l-182 -338h-236l770 1434h258l770 -1434h-252zM887 1225l-365 -688h731zM1102 1587q-80 0 -220.5 39t-187.5 39q-49 0 -73.5 -23.5t-40.5 -70.5l-156 61q23 86 90.5 139.5t167.5 53.5q80 0 219 -40t186 -40q51 0 75 23.5t42 72.5l154 -63
q-23 -86 -89.5 -138.5t-166.5 -52.5z" />
    <glyph glyph-name="Adieresis" unicode="&#xc4;" horiz-adv-x="1798" 
d="M1546 0l-186 338h-942l-182 -338h-236l770 1434h258l770 -1434h-252zM887 1225l-365 -688h731zM520 1810h230v-211h-230v211zM1030 1810h232v-211h-232v211z" />
    <glyph glyph-name="Aring" unicode="&#xc5;" horiz-adv-x="1798" 
d="M1546 0l-186 338h-942l-182 -338h-236l770 1434h258l770 -1434h-252zM887 1225l-365 -688h731zM1055 1704q0 78 -162 78t-162 -78q0 -76 162 -76t162 76zM580 1704q0 186 313 186t313 -186q0 -184 -313 -184t-313 184z" />
    <glyph glyph-name="AE" unicode="&#xc6;" horiz-adv-x="2672" 
d="M1182 1434h1274v-205h-961v-395h920v-207h-920v-422h1010v-205h-1231v338h-846l-324 -338h-278zM1274 1229l-660 -692h660v692z" />
    <glyph glyph-name="Ccedilla" unicode="&#xc7;" horiz-adv-x="1781" 
d="M1653 1024l-219 -14q-41 248 -465 247q-295 0 -440.5 -130t-145.5 -406q0 -287 155.5 -416t479.5 -129q326 0 573 105l37 -195q-217 -100 -541 -111q57 -78 58 -159q0 -98 -80 -154.5t-213 -56.5q-188 0 -305 84l63 137q94 -61 207 -62q127 0 127 82q0 61 -59 134
q-735 51 -735 739q0 371 219 556t608 185q322 0 494 -116.5t182 -319.5z" />
    <glyph glyph-name="Egrave" unicode="&#xc8;" horiz-adv-x="1697" 
d="M297 1434h1184v-205h-961v-395h920v-207h-920v-422h1010v-205h-1233v1434zM459 1868h282l297 -324h-209z" />
    <glyph glyph-name="Eacute" unicode="&#xc9;" horiz-adv-x="1697" 
d="M297 1434h1184v-205h-961v-395h920v-207h-920v-422h1010v-205h-1233v1434zM1049 1868h286l-372 -324h-211z" />
    <glyph glyph-name="Ecircumflex" unicode="&#xca;" horiz-adv-x="1697" 
d="M297 1434h1184v-205h-961v-395h920v-207h-920v-422h1010v-205h-1233v1434zM887 1743l-225 -199h-220l322 324h246l319 -324h-219z" />
    <glyph glyph-name="Edieresis" unicode="&#xcb;" horiz-adv-x="1697" 
d="M297 1434h1184v-205h-961v-395h920v-207h-920v-422h1010v-205h-1233v1434zM516 1810h229v-211h-229v211zM1026 1810h231v-211h-231v211z" />
    <glyph glyph-name="Igrave" unicode="&#xcc;" horiz-adv-x="819" 
d="M297 1434h223v-1434h-223v1434zM-66 1868h283l297 -324h-209z" />
    <glyph glyph-name="Iacute" unicode="&#xcd;" horiz-adv-x="819" 
d="M297 1434h223v-1434h-223v1434zM602 1868h287l-373 -324h-211z" />
    <glyph glyph-name="Icircumflex" unicode="&#xce;" horiz-adv-x="819" 
d="M297 1434h223v-1434h-223v1434zM412 1743l-226 -199h-219l322 324h246l319 -324h-219z" />
    <glyph glyph-name="Idieresis" unicode="&#xcf;" horiz-adv-x="819" 
d="M297 1434h223v-1434h-223v1434zM39 1808h229v-211h-229v211zM549 1808h231v-211h-231v211z" />
    <glyph glyph-name="Eth" unicode="&#xd0;" horiz-adv-x="2123" 
d="M82 629v190h289v615h706q434 0 664.5 -179.5t230.5 -536t-230.5 -537.5t-664.5 -181h-706v629h-289zM594 629v-426h457q342 0 516 119.5t174 396.5q0 274 -173 392t-517 118h-457v-410h565v-190h-565z" />
    <glyph glyph-name="Ntilde" unicode="&#xd1;" horiz-adv-x="2244" 
d="M297 1434h221l1215 -1153v1153h215v-1434h-215l-1219 1153v-1153h-217v1434zM1319 1587q-80 0 -220.5 39t-187.5 39q-49 0 -73.5 -23.5t-40.5 -70.5l-156 61q23 86 90.5 139.5t167.5 53.5q80 0 219 -40t187 -40q51 0 74.5 23.5t41.5 72.5l154 -63q-23 -86 -89.5 -138.5
t-166.5 -52.5z" />
    <glyph glyph-name="Ograve" unicode="&#xd2;" horiz-adv-x="2019" 
d="M1009.5 1257q-290.5 0 -458.5 -133t-168 -409.5t168 -407.5t458.5 -131t458.5 131t168 407.5t-168 409.5t-458.5 133zM1008 1460q391 0 626.5 -190.5t235.5 -555t-235.5 -553t-626.5 -188.5q-387 0 -622.5 189.5t-235.5 552.5q0 365 235.5 555t622.5 190zM543 1868h282
l297 -324h-209z" />
    <glyph glyph-name="Oacute" unicode="&#xd3;" horiz-adv-x="2019" 
d="M1009.5 1257q-290.5 0 -458.5 -133t-168 -409.5t168 -407.5t458.5 -131t458.5 131t168 407.5t-168 409.5t-458.5 133zM1008 1460q391 0 626.5 -190.5t235.5 -555t-235.5 -553t-626.5 -188.5q-387 0 -622.5 189.5t-235.5 552.5q0 365 235.5 555t622.5 190zM1188 1868h287
l-373 -324h-211z" />
    <glyph glyph-name="Ocircumflex" unicode="&#xd4;" horiz-adv-x="2019" 
d="M1009.5 1257q-290.5 0 -458.5 -133t-168 -409.5t168 -407.5t458.5 -131t458.5 131t168 407.5t-168 409.5t-458.5 133zM1008 1460q391 0 626.5 -190.5t235.5 -555t-235.5 -553t-626.5 -188.5q-387 0 -622.5 189.5t-235.5 552.5q0 365 235.5 555t622.5 190zM1010 1743
l-226 -199h-219l322 324h246l319 -324h-219z" />
    <glyph glyph-name="Otilde" unicode="&#xd5;" horiz-adv-x="2019" 
d="M1009.5 1257q-290.5 0 -458.5 -133t-168 -409.5t168 -407.5t458.5 -131t458.5 131t168 407.5t-168 409.5t-458.5 133zM1008 1460q391 0 626.5 -190.5t235.5 -555t-235.5 -553t-626.5 -188.5q-387 0 -622.5 189.5t-235.5 552.5q0 365 235.5 555t622.5 190zM1221 1587
q-80 0 -220.5 39t-187.5 39q-49 0 -73.5 -23.5t-41.5 -70.5l-155 61q23 86 90 139.5t168 53.5q80 0 219 -40t186 -40q51 0 75 23.5t42 72.5l154 -63q-23 -86 -89.5 -138.5t-166.5 -52.5z" />
    <glyph glyph-name="Odieresis" unicode="&#xd6;" horiz-adv-x="2019" 
d="M1009.5 1257q-290.5 0 -458.5 -133t-168 -409.5t168 -407.5t458.5 -131t458.5 131t168 407.5t-168 409.5t-458.5 133zM1008 1460q391 0 626.5 -190.5t235.5 -555t-235.5 -553t-626.5 -188.5q-387 0 -622.5 189.5t-235.5 552.5q0 365 235.5 555t622.5 190zM639 1810h229
v-211h-229v211zM1149 1810h231v-211h-231v211z" />
    <glyph glyph-name="multiply" unicode="&#xd7;" 
d="M231 1069l121 162l488 -400l487 400l121 -162l-459 -369l459 -368l-121 -162l-487 399l-488 -399l-121 162l459 368z" />
    <glyph glyph-name="Oslash" unicode="&#xd8;" horiz-adv-x="2021" 
d="M1008 1460q328 0 546 -135l215 199l109 -107l-201 -186q193 -197 193 -516q0 -365 -235.5 -553.5t-626.5 -188.5q-328 0 -545 131l-211 -196l-107 106l199 185q-195 190 -194 516q0 365 235.5 555t622.5 190zM1010 1257q-291 0 -459 -133t-168 -409q0 -231 123 -365
l887 824q-150 83 -383 83zM1513 1079l-886 -823q147 -80 383 -80q291 0 458.5 131t167.5 408q0 229 -123 364z" />
    <glyph glyph-name="Ugrave" unicode="&#xd9;" horiz-adv-x="2070" 
d="M262 1434h221v-854q0 -186 136.5 -295t418.5 -109q281 0 416 107.5t135 296.5v854h219v-852q0 -274 -196.5 -441.5t-573.5 -167.5q-383 0 -579.5 166t-196.5 443v852zM610 1868h283l297 -324h-209z" />
    <glyph glyph-name="Uacute" unicode="&#xda;" horiz-adv-x="2070" 
d="M262 1434h221v-854q0 -186 136.5 -295t418.5 -109q281 0 416 107.5t135 296.5v854h219v-852q0 -274 -196.5 -441.5t-573.5 -167.5q-383 0 -579.5 166t-196.5 443v852zM1206 1868h287l-373 -324h-211z" />
    <glyph glyph-name="Ucircumflex" unicode="&#xdb;" horiz-adv-x="2070" 
d="M262 1434h221v-854q0 -186 136.5 -295t418.5 -109q281 0 416 107.5t135 296.5v854h219v-852q0 -274 -196.5 -441.5t-573.5 -167.5q-383 0 -579.5 166t-196.5 443v852zM1036 1743l-225 -199h-219l321 324h246l320 -324h-219z" />
    <glyph glyph-name="Udieresis" unicode="&#xdc;" horiz-adv-x="2070" 
d="M262 1434h221v-854q0 -186 136.5 -295t418.5 -109q281 0 416 107.5t135 296.5v854h219v-852q0 -274 -196.5 -441.5t-573.5 -167.5q-383 0 -579.5 166t-196.5 443v852zM666 1810h229v-211h-229v211zM1176 1810h231v-211h-231v211z" />
    <glyph glyph-name="Yacute" unicode="&#xdd;" horiz-adv-x="1734" 
d="M872 743l594 691h265l-752 -877v-557h-221v557l-754 877h262zM1059 1868h287l-373 -324h-211z" />
    <glyph glyph-name="Thorn" unicode="&#xde;" horiz-adv-x="1814" 
d="M297 1434h223v-217h383q385 0 574.5 -110t189.5 -364q0 -477 -772 -477q-182 0 -375 19v-285h-223v1434zM520 1020v-541q166 -16 377 -16q262 0 399.5 58.5t137.5 213.5q0 158 -124 221.5t-409 63.5h-381z" />
    <glyph glyph-name="germandbls" unicode="&#xdf;" horiz-adv-x="3268" 
d="M3084 870l-213 -12q-10 57 -46 96t-130 66t-246 27q-391 0 -391 -160q0 -57 57.5 -92t149.5 -51.5t203.5 -29t223.5 -34t204 -58t149.5 -110.5t57.5 -180q0 -166 -165 -262.5t-476 -96.5q-420 0 -666 160l76 170q100 -61 259 -100t333 -39q401 0 401 160
q0 76 -77.5 118.5t-193.5 54t-251 32t-251 48t-193.5 105.5t-77.5 201q0 170 177 263t460 93q311 0 463.5 -103.5t162.5 -265.5zM1450 870l-213 -12q-10 57 -46 96t-130 66t-246 27q-391 0 -391 -160q0 -57 57.5 -92t149.5 -51.5t203.5 -29t223 -34t204 -58t149.5 -110.5
t57 -180q0 -166 -164.5 -262.5t-476.5 -96.5q-420 0 -665 160l76 170q100 -61 258.5 -100t332.5 -39q401 0 402 160q0 76 -78 118.5t-193.5 54t-251 32t-251 48t-193.5 105.5t-78 201q0 170 177.5 263t459.5 93q311 0 464 -103.5t163 -265.5z" />
    <glyph glyph-name="agrave" unicode="&#xe0;" horiz-adv-x="1708" 
d="M1458 0l-180 291h-864l-174 -291h-240l731 1217h242l735 -1217h-250zM844 1016l-328 -551h660zM373 1642h282l297 -323h-209z" />
    <glyph glyph-name="aacute" unicode="&#xe1;" horiz-adv-x="1708" 
d="M1458 0l-180 291h-864l-174 -291h-240l731 1217h242l735 -1217h-250zM844 1016l-328 -551h660zM1047 1642h286l-372 -323h-211z" />
    <glyph glyph-name="acircumflex" unicode="&#xe2;" horiz-adv-x="1708" 
d="M1458 0l-180 291h-864l-174 -291h-240l731 1217h242l735 -1217h-250zM844 1016l-328 -551h660zM856 1518l-225 -199h-219l321 323h246l319 -323h-219z" />
    <glyph glyph-name="atilde" unicode="&#xe3;" horiz-adv-x="1708" 
d="M1458 0l-180 291h-864l-174 -291h-240l731 1217h242l735 -1217h-250zM844 1016l-328 -551h660zM1067 1358q-80 0 -220 39t-188 39q-49 0 -73.5 -23.5t-40.5 -71.5l-156 62q23 86 90.5 139t167.5 53q80 0 219.5 -39.5t186.5 -39.5q51 0 74.5 23.5t41.5 72.5l154 -64
q-23 -86 -89.5 -138t-166.5 -52z" />
    <glyph glyph-name="adieresis" unicode="&#xe4;" horiz-adv-x="1708" 
d="M1458 0l-180 291h-864l-174 -291h-240l731 1217h242l735 -1217h-250zM844 1016l-328 -551h660zM485 1587h230v-211h-230v211zM995 1587h232v-211h-232v211z" />
    <glyph glyph-name="aring" unicode="&#xe5;" horiz-adv-x="1708" 
d="M1458 0l-180 291h-864l-174 -291h-240l731 1217h242l735 -1217h-250zM844 1016l-328 -551h660zM1018 1485q0 78 -162 78t-162 -78q0 -76 162 -76t162 76zM543 1485q0 186 313 186t313 -186q0 -184 -313 -184t-313 184z" />
    <glyph glyph-name="ae" unicode="&#xe6;" horiz-adv-x="2531" 
d="M1108 1217h1210v-187h-903v-321h864v-179h-864v-344h948v-186h-1173v291h-787l-311 -291h-266zM1190 1032l-608 -567h608v567z" />
    <glyph glyph-name="ccedilla" unicode="&#xe7;" horiz-adv-x="1691" 
d="M1563 860l-220 -12q-18 90 -108 144.5t-309 54.5q-274 0 -408.5 -102.5t-134.5 -332.5q0 -240 140.5 -344t439.5 -104q319 0 550 90l37 -182q-221 -86 -510 -97q59 -78 60 -159q0 -98 -80 -154.5t-213 -56.5q-188 0 -305 84l63 137q94 -61 207 -62q127 0 127 82
q0 59 -59 131q-344 20 -517 174t-173 459q0 313 207.5 471t576.5 158q303 0 461 -101.5t168 -277.5z" />
    <glyph glyph-name="egrave" unicode="&#xe8;" horiz-adv-x="1638" 
d="M297 1217h1128v-187h-903v-321h864v-179h-864v-344h948v-186h-1173v1217zM465 1642h283l296 -323h-208z" />
    <glyph glyph-name="eacute" unicode="&#xe9;" horiz-adv-x="1638" 
d="M297 1217h1128v-187h-903v-321h864v-179h-864v-344h948v-186h-1173v1217zM1012 1642h286l-372 -323h-211z" />
    <glyph glyph-name="ecircumflex" unicode="&#xea;" horiz-adv-x="1638" 
d="M297 1217h1128v-187h-903v-321h864v-179h-864v-344h948v-186h-1173v1217zM862 1518l-225 -199h-219l321 323h246l320 -323h-220z" />
    <glyph glyph-name="edieresis" unicode="&#xeb;" horiz-adv-x="1638" 
d="M297 1217h1128v-187h-903v-321h864v-179h-864v-344h948v-186h-1173v1217zM492 1587h229v-211h-229v211zM1001 1587h232v-211h-232v211z" />
    <glyph glyph-name="igrave" unicode="&#xec;" horiz-adv-x="821" 
d="M-59 1642h282l297 -323h-209zM299 1217h223v-1217h-223v1217z" />
    <glyph glyph-name="iacute" unicode="&#xed;" horiz-adv-x="821" 
d="M604 1642h287l-373 -323h-211zM299 1217h223v-1217h-223v1217z" />
    <glyph glyph-name="icircumflex" unicode="&#xee;" horiz-adv-x="821" 
d="M299 1217h223v-1217h-223v1217zM412 1518l-226 -199h-219l322 323h246l319 -323h-219z" />
    <glyph glyph-name="idieresis" unicode="&#xef;" horiz-adv-x="821" 
d="M41 1587h229v-211h-229v211zM551 1587h231v-211h-231v211zM299 1217h223v-1217h-223v1217z" />
    <glyph glyph-name="eth" unicode="&#xf0;" horiz-adv-x="2029" 
d="M354 1217h672q412 0 630 -153t218 -454q0 -303 -218 -456.5t-630 -153.5h-672v530h-272v170h272v517zM580 1030v-330h510v-170h-510v-344h426q317 0 475.5 98.5t158.5 326t-158.5 323.5t-475.5 96h-426z" />
    <glyph glyph-name="ntilde" unicode="&#xf1;" horiz-adv-x="2160" 
d="M1862 0h-222l-1126 952v-952h-217v1217h213l1130 -953v953h222v-1217zM1288 1358q-80 0 -220 39t-187 39q-49 0 -74 -23.5t-41 -71.5l-156 62q23 86 90.5 139t167.5 53q80 0 219.5 -39.5t186.5 -39.5q51 0 74.5 23.5t42.5 72.5l153 -64q-23 -86 -89.5 -138t-166.5 -52z
" />
    <glyph glyph-name="ograve" unicode="&#xf2;" horiz-adv-x="1927" 
d="M1542 608.5q0 227.5 -154.5 333t-422.5 105.5q-270 0 -425 -105.5t-155 -333t154.5 -336t425.5 -108.5q268 0 422.5 108.5t154.5 336zM150 606q0 309 223 471t592 162q365 0 588 -162t223 -469q0 -309 -223.5 -472t-587.5 -163q-367 0 -591 163t-224 470zM504 1642h282
l297 -323h-209z" />
    <glyph glyph-name="oacute" unicode="&#xf3;" horiz-adv-x="1927" 
d="M1542 608.5q0 227.5 -154.5 333t-422.5 105.5q-270 0 -425 -105.5t-155 -333t154.5 -336t425.5 -108.5q268 0 422.5 108.5t154.5 336zM150 606q0 309 223 471t592 162q365 0 588 -162t223 -469q0 -309 -223.5 -472t-587.5 -163q-367 0 -591 163t-224 470zM1149 1642h287
l-373 -323h-211z" />
    <glyph glyph-name="ocircumflex" unicode="&#xf4;" horiz-adv-x="1927" 
d="M1542 608.5q0 227.5 -154.5 333t-422.5 105.5q-270 0 -425 -105.5t-155 -333t154.5 -336t425.5 -108.5q268 0 422.5 108.5t154.5 336zM150 606q0 309 223 471t592 162q365 0 588 -162t223 -469q0 -309 -223.5 -472t-587.5 -163q-367 0 -591 163t-224 470zM965 1518
l-226 -199h-219l322 323h245l320 -323h-219z" />
    <glyph glyph-name="otilde" unicode="&#xf5;" horiz-adv-x="1927" 
d="M1542 608.5q0 227.5 -154.5 333t-422.5 105.5q-270 0 -425 -105.5t-155 -333t154.5 -336t425.5 -108.5q268 0 422.5 108.5t154.5 336zM150 606q0 309 223 471t592 162q365 0 588 -162t223 -469q0 -309 -223.5 -472t-587.5 -163q-367 0 -591 163t-224 470zM1174 1358
q-80 0 -220.5 39t-187.5 39q-49 0 -73.5 -23.5t-41.5 -71.5l-155 62q23 86 90 139t168 53q80 0 219 -39.5t186 -39.5q51 0 74.5 23.5t42.5 72.5l154 -64q-23 -86 -89.5 -138t-166.5 -52z" />
    <glyph glyph-name="odieresis" unicode="&#xf6;" horiz-adv-x="1927" 
d="M1542 608.5q0 227.5 -154.5 333t-422.5 105.5q-270 0 -425 -105.5t-155 -333t154.5 -336t425.5 -108.5q268 0 422.5 108.5t154.5 336zM150 606q0 309 223 471t592 162q365 0 588 -162t223 -469q0 -309 -223.5 -472t-587.5 -163q-367 0 -591 163t-224 470zM594 1587h229
v-211h-229v211zM1104 1587h231v-211h-231v211z" />
    <glyph glyph-name="divide" unicode="&#xf7;" 
d="M725 358h231v-213h-231v213zM207 778h1268v-194h-1268v194zM725 1217h231v-213h-231v213z" />
    <glyph glyph-name="oslash" unicode="&#xf8;" horiz-adv-x="1927" 
d="M150 606q0 309 223 471t592 162q305 0 512 -115l219 183l90 -99l-193 -166q182 -162 183 -434q0 -309 -223.5 -472t-587.5 -163q-309 0 -514 113l-232 -186l-88 102l201 168q-182 164 -182 436zM1313 983q-127 63 -348 64q-270 0 -425 -105.5t-155 -333.5
q0 -193 115 -301zM1430 907l-814 -680q133 -63 349 -63q268 0 422.5 108.5t154.5 335.5q1 186 -112 299z" />
    <glyph glyph-name="ugrave" unicode="&#xf9;" horiz-adv-x="2000" 
d="M266 1217h226v-723q0 -154 124.5 -241t387.5 -87q260 0 384.5 86t124.5 242v723h222v-723q0 -238 -188.5 -378.5t-542.5 -140.5q-358 0 -548 140.5t-190 378.5v723zM569 1642h283l297 -323h-209z" />
    <glyph glyph-name="uacute" unicode="&#xfa;" horiz-adv-x="2000" 
d="M266 1217h226v-723q0 -154 124.5 -241t387.5 -87q260 0 384.5 86t124.5 242v723h222v-723q0 -238 -188.5 -378.5t-542.5 -140.5q-358 0 -548 140.5t-190 378.5v723zM1159 1642h287l-373 -323h-211z" />
    <glyph glyph-name="ucircumflex" unicode="&#xfb;" horiz-adv-x="2000" 
d="M266 1217h226v-723q0 -154 124.5 -241t387.5 -87q260 0 384.5 86t124.5 242v723h222v-723q0 -238 -188.5 -378.5t-542.5 -140.5q-358 0 -548 140.5t-190 378.5v723zM1001 1518l-225 -199h-219l322 323h245l320 -323h-219z" />
    <glyph glyph-name="udieresis" unicode="&#xfc;" horiz-adv-x="2000" 
d="M266 1217h226v-723q0 -154 124.5 -241t387.5 -87q260 0 384.5 86t124.5 242v723h222v-723q0 -238 -188.5 -378.5t-542.5 -140.5q-358 0 -548 140.5t-190 378.5v723zM631 1587h229v-211h-229v211zM1141 1587h231v-211h-231v211z" />
    <glyph glyph-name="yacute" unicode="&#xfd;" horiz-adv-x="1662" 
d="M842 651l547 566h270l-715 -742v-475h-225v475l-715 742h277zM1012 1642h286l-372 -323h-211z" />
    <glyph glyph-name="thorn" unicode="&#xfe;" horiz-adv-x="1769" 
d="M299 1217h223v-183h352q365 0 544 -93t179 -310q0 -410 -731 -410q-166 0 -344 12v-233h-223v1217zM522 856v-442q160 -14 346 -15q115 0 200 10.5t154.5 34t104.5 68.5t35 111q0 129 -113.5 181t-376.5 52h-350z" />
    <glyph glyph-name="ydieresis" unicode="&#xff;" horiz-adv-x="1662" 
d="M842 651l547 566h270l-715 -742v-475h-225v475l-715 742h277zM461 1587h229v-211h-229v211zM971 1587h231v-211h-231v211z" />
    <glyph glyph-name="OE" unicode="&#x152;" horiz-adv-x="3014" 
d="M1008 1460q444 0 628 -248v222h1182v-205h-960v-395h919v-207h-919v-424h1009v-203h-1231v215q-180 -242 -628 -242q-387 0 -622.5 189.5t-235.5 552.5q0 365 235.5 555t622.5 190zM1009.5 176q290.5 0 458.5 131t168 407.5t-168 409.5t-458.5 133t-458.5 -133
t-168 -409.5t168 -407.5t458.5 -131z" />
    <glyph glyph-name="oe" unicode="&#x153;" horiz-adv-x="2873" 
d="M1544 1217h1116v-187h-903v-321h864v-179h-864v-344h948v-186h-1161v172q-186 -199 -579 -199q-367 0 -591 163t-224 470q0 309 223 471t592 162q393 0 579 -199v177zM1542 608.5q0 227.5 -154.5 333t-422.5 105.5q-270 0 -425 -105.5t-155 -333t154.5 -336t425.5 -108.5
q268 0 422.5 108.5t154.5 336z" />
    <glyph glyph-name="Ydieresis" unicode="&#x178;" horiz-adv-x="1734" 
d="M872 743l594 691h265l-752 -877v-557h-221v557l-754 877h262zM502 1810h229v-211h-229v211zM1012 1810h231v-211h-231v211z" />
    <glyph glyph-name="circumflex" unicode="&#x2c6;" horiz-adv-x="1576" 
d="M788 1518l-225 -199h-219l322 323h245l320 -323h-219z" />
    <glyph glyph-name="tilde" unicode="&#x2dc;" horiz-adv-x="1576" 
d="M1006 1358q-80 0 -220.5 39t-187.5 39q-49 0 -73.5 -23.5t-41.5 -71.5l-155 62q23 86 90 139t168 53q80 0 219 -39.5t186 -39.5q51 0 75 23.5t42 72.5l154 -64q-23 -86 -89.5 -138t-166.5 -52z" />
    <glyph glyph-name="uni2000" unicode="&#x2000;" horiz-adv-x="944" 
 />
    <glyph glyph-name="uni2001" unicode="&#x2001;" horiz-adv-x="1890" 
 />
    <glyph glyph-name="uni2002" unicode="&#x2002;" horiz-adv-x="944" 
 />
    <glyph glyph-name="uni2003" unicode="&#x2003;" horiz-adv-x="1890" 
 />
    <glyph glyph-name="uni2004" unicode="&#x2004;" horiz-adv-x="628" 
 />
    <glyph glyph-name="uni2005" unicode="&#x2005;" horiz-adv-x="471" 
 />
    <glyph glyph-name="uni2006" unicode="&#x2006;" horiz-adv-x="313" 
 />
    <glyph glyph-name="uni2007" unicode="&#x2007;" horiz-adv-x="313" 
 />
    <glyph glyph-name="uni2008" unicode="&#x2008;" horiz-adv-x="235" 
 />
    <glyph glyph-name="uni2009" unicode="&#x2009;" horiz-adv-x="376" 
 />
    <glyph glyph-name="uni200A" unicode="&#x200a;" horiz-adv-x="104" 
 />
    <glyph glyph-name="uni2010" unicode="&#x2010;" horiz-adv-x="1316" 
d="M1055 778v-194h-793v194h793z" />
    <glyph glyph-name="uni2011" unicode="&#x2011;" horiz-adv-x="1316" 
d="M1055 778v-194h-793v194h793z" />
    <glyph glyph-name="figuredash" unicode="&#x2012;" horiz-adv-x="1316" 
d="M1055 778v-194h-793v194h793z" />
    <glyph glyph-name="endash" unicode="&#x2013;" horiz-adv-x="1804" 
d="M1542 778v-194h-1280v194h1280z" />
    <glyph glyph-name="emdash" unicode="&#x2014;" horiz-adv-x="3125" 
d="M2861 778v-194h-2599v194h2599z" />
    <glyph glyph-name="quoteleft" unicode="&#x2018;" horiz-adv-x="657" 
d="M356 948h-237l231 486h187z" />
    <glyph glyph-name="quoteright" unicode="&#x2019;" horiz-adv-x="657" 
d="M299 1434h238l-232 -486h-186z" />
    <glyph glyph-name="quotesinglbase" unicode="&#x201a;" horiz-adv-x="655" 
d="M299 111h238l-232 -486h-186z" />
    <glyph glyph-name="quotedblleft" unicode="&#x201c;" horiz-adv-x="1234" 
d="M358 948h-239l297 486h188zM936 948h-238l232 486h186z" />
    <glyph glyph-name="quotedblright" unicode="&#x201d;" horiz-adv-x="1234" 
d="M877 1434h239l-297 -486h-188zM299 1434h238l-232 -486h-186z" />
    <glyph glyph-name="quotedblbase" unicode="&#x201e;" horiz-adv-x="1234" 
d="M303 117h234l-250 -486h-168zM877 117h239l-307 -486h-178z" />
    <glyph glyph-name="bullet" unicode="&#x2022;" horiz-adv-x="1167" 
d="M225 680q0 119 101.5 187.5t255.5 68.5q156 0 257 -68.5t101 -187.5t-102.5 -187.5t-256 -68.5t-255 68.5t-101.5 187.5z" />
    <glyph glyph-name="ellipsis" unicode="&#x2026;" horiz-adv-x="2224" 
d="M205 238h244v-238h-244v238zM989 238h244v-238h-244v238zM1772 238h245v-238h-245v238z" />
    <glyph glyph-name="uni202F" unicode="&#x202f;" horiz-adv-x="376" 
 />
    <glyph glyph-name="guilsinglleft" unicode="&#x2039;" horiz-adv-x="997" 
d="M862 137h-246l-481 463v23l481 464h246l-450 -477z" />
    <glyph glyph-name="guilsinglright" unicode="&#x203a;" horiz-adv-x="997" 
d="M381 137h-246l451 473l-451 477h246l481 -464v-23z" />
    <glyph glyph-name="uni205F" unicode="&#x205f;" horiz-adv-x="471" 
 />
    <glyph glyph-name="Euro" unicode="&#x20ac;" horiz-adv-x="1777" 
d="M272 700v68h-184v154h201q41 260 225 399t498 139q582 0 637 -405l-219 -19q-14 47 -31 77t-59 68t-124.5 57t-205.5 19q-229 0 -340 -80.5t-146 -254.5h779l-54 -154h-737q0 -12 -1 -34.5t-1 -33.5q0 -49 2 -71h692l-47 -154h-612q41 -156 169 -227.5t373 -71.5
q262 0 492 92l45 -194q-238 -100 -555 -101q-674 0 -774 502h-207v154h186q-2 20 -2 71z" />
    <glyph glyph-name="trademark" unicode="&#x2122;" horiz-adv-x="2770" 
d="M166 1434h872v-146h-344v-581h-190v581h-338v146zM1911 764h-182l-310 471l-106 -528h-191l150 727h205l344 -508l342 508h207l147 -727h-188l-107 528z" />
    <glyph glyph-name="uniE000" unicode="&#xe000;" horiz-adv-x="1215" 
d="M0 1215h1215v-1215h-1215v1215z" />
    <glyph glyph-name="uniFB01" unicode="&#xfb01;" horiz-adv-x="2367" 
d="M297 1217h1128v-187h-903v-346h774v-182h-774v-502h-225v1217zM1843 1217h225v-1217h-225v1217z" />
    <glyph glyph-name="uniFB02" unicode="&#xfb02;" horiz-adv-x="2936" 
d="M297 1217h1128v-187h-903v-346h774v-182h-774v-502h-225v1217zM1845 1217h226v-1031h827v-186h-1053v1217z" />
    <glyph glyph-name="uniFB03" unicode="&#xfb03;" horiz-adv-x="3948" 
d="M3426 1217h225v-1217h-225v1217zM1862 1217h1128v-187h-903v-346h774v-182h-774v-502h-225v1217zM297 1217h1128v-187h-903v-346h774v-182h-774v-502h-225v1217z" />
    <glyph glyph-name="uniFB04" unicode="&#xfb04;" horiz-adv-x="4517" 
d="M3426 1217h225v-1031h828v-186h-1053v1217zM1862 1217h1128v-187h-903v-346h774v-182h-774v-502h-225v1217zM297 1217h1128v-187h-903v-346h774v-182h-774v-502h-225v1217z" />
  </font>
</defs>
</svg>
